<svg width="118" height="113" viewBox="0 0 118 113" fill="none" xmlns="http://www.w3.org/2000/svg">
<path fill-rule="evenodd" clip-rule="evenodd" d="M10.408 0.837878C9.61556 1.01215 8.26675 1.49876 7.41065 1.9188C5.27376 2.96771 2.42833 5.84907 1.39516 8.01021C-0.116664 11.1724 -0.0382715 8.34801 0.029054 57.3115L0.0901542 101.754L0.711532 103.478C2.17886 107.549 5.2786 110.625 9.2372 111.939L10.9268 112.5H59H107.073L108.763 111.939C112.721 110.625 115.821 107.549 117.288 103.478L117.91 101.754L117.971 57.3115C118.038 8.34801 118.117 11.1724 116.605 8.01021C115.574 5.85351 112.726 2.96748 110.598 1.92324C107.506 0.405698 110.59 0.490265 58.8847 0.506151C20.17 0.518065 11.5941 0.576701 10.408 0.837878ZM80.2288 21.2583C82.9395 22.1114 85.4548 24.0957 87.1428 26.7126C91.2697 33.1108 88.852 41.9067 82.0297 45.3144C73.7448 49.4528 64.2129 43.8922 63.467 34.4851C62.9794 28.336 67.4584 22.3268 73.5834 20.9128C75.429 20.4867 78.2415 20.6329 80.2288 21.2583ZM42.8119 47.6514C43.2822 47.8967 43.9753 48.4259 44.3518 48.8274C44.7284 49.229 50.1236 56.2964 56.3413 64.5326C66.7302 78.2944 67.7466 79.565 68.8828 80.2142C70.3623 81.0595 72.2198 81.1592 73.6701 80.4715C74.1614 80.2385 76.2828 78.3451 78.3847 76.2641C82.421 72.2675 82.8717 71.9727 84.9512 71.9699C86.3222 71.9678 88.027 72.9216 89.0113 74.2413C90.9095 76.7862 103.146 94.5928 103.647 95.5396C104.578 97.2973 104.215 98.9038 102.725 99.6199C101.999 99.9691 98.323 100.002 59.8838 100.002C19.4029 100.002 17.8067 99.9857 17.0331 99.5692C15.964 98.9935 15.1909 97.8084 15.1978 96.7551C15.2008 96.2923 15.4397 95.3354 15.7288 94.6288C16.878 91.8205 38.3218 49.1477 38.8994 48.5205C40.1037 47.2127 41.4121 46.9221 42.8119 47.6514Z" fill="#FF8059"/>
</svg>
