                                    <svg width="66" height="66" viewBox="0 0 66 66" fill="none" xmlns="http://www.w3.org/2000/svg">
                                    <path d="M28.5091 43.2209C28.2647 43.2209 28.0355 43.1824 27.8216 43.1054C27.6077 43.0296 27.4091 42.9001 27.2258 42.7167L19.3425 34.8334C19.0064 34.4973 18.8456 34.0616 18.8603 33.5262C18.8762 32.9921 19.0522 32.557 19.3883 32.2209C19.7244 31.8848 20.1522 31.7167 20.6716 31.7167C21.1911 31.7167 21.6188 31.8848 21.955 32.2209L28.5091 38.7751L44.0466 23.2376C44.3827 22.9015 44.8185 22.7334 45.3538 22.7334C45.8879 22.7334 46.323 22.9015 46.6591 23.2376C46.9952 23.5737 47.1633 24.0088 47.1633 24.5429C47.1633 25.0782 46.9952 25.514 46.6591 25.8501L29.7925 42.7167C29.6091 42.9001 29.4105 43.0296 29.1966 43.1054C28.9827 43.1824 28.7536 43.2209 28.5091 43.2209V43.2209Z" fill="#0C8EC7" />
                                    <path d="M66 33C66 51.2254 51.2254 66 33 66C14.7746 66 0 51.2254 0 33C0 14.7746 14.7746 0 33 0C51.2254 0 66 14.7746 66 33ZM3.11808 33C3.11808 49.5033 16.4967 62.8819 33 62.8819C49.5033 62.8819 62.8819 49.5033 62.8819 33C62.8819 16.4967 49.5033 3.11808 33 3.11808C16.4967 3.11808 3.11808 16.4967 3.11808 33Z" fill="#0C8EC7" />
                                </svg>