<svg width="27" height="25" viewBox="0 0 27 25" fill="none" xmlns="http://www.w3.org/2000/svg">
<path fill-rule="evenodd" clip-rule="evenodd" d="M13.6127 0.547885C12.3303 0.653952 11.1453 1.06995 10.0517 1.79796C9.38378 2.24262 8.39803 3.2341 8.0092 3.85229C7.75791 4.25185 7.7207 4.28954 7.60648 4.26073C7.38932 4.20589 6.43704 4.22847 6.12146 4.29593C5.23775 4.48483 4.36174 5.02628 3.79476 5.73405C3.11291 6.58522 2.82955 7.50025 2.89328 8.64497L2.92484 9.21137L2.68452 9.40585C2.12993 9.85477 1.58601 10.5403 1.23539 11.2323C0.122782 13.4282 0.551072 16.149 2.29977 17.9933C2.96718 18.6972 3.65809 19.1652 4.47138 19.4643C5.2607 19.7546 5.46065 19.7708 8.2461 19.7708C11.0843 19.7708 10.9686 19.7849 11.1759 19.4134C11.3652 19.0739 11.2699 18.6813 10.9462 18.4674C10.8187 18.3831 10.6015 18.3736 8.21288 18.348C5.34251 18.3172 5.38771 18.3221 4.64092 17.9671C3.34135 17.3494 2.40725 16.102 2.11724 14.5968C2.08764 14.4434 2.06313 14.0766 2.06277 13.7817C2.06086 12.3585 2.74845 11.0765 3.97251 10.2211C4.47123 9.87253 4.57186 9.64315 4.43387 9.16887C4.40553 9.07142 4.35937 8.8288 4.33133 8.62971C4.15368 7.36938 4.994 6.11434 6.26261 5.74536C6.62415 5.64021 7.27988 5.63934 7.65682 5.74358C8.25325 5.90849 8.57265 5.7974 8.79747 5.34686C9.52226 3.89419 10.855 2.73491 12.3631 2.24526C13.5503 1.8598 14.932 1.86994 16.1428 2.27311C17.0569 2.57746 17.7806 3.03074 18.4825 3.73856C19.3423 4.60566 19.8971 5.6572 20.1166 6.83585C20.3169 7.91088 20.3331 7.93314 21.0589 8.12971C22.2685 8.45729 23.1656 9.0521 23.8694 9.9932C24.5863 10.952 24.9271 11.9767 24.9283 13.1777C24.9297 14.5002 24.4568 15.7213 23.5711 16.6829C22.8391 17.4775 22.106 17.9315 21.1015 18.212C20.7479 18.3108 20.5515 18.3207 18.4177 18.3473L16.1154 18.3759L15.9259 18.567C15.7508 18.7434 15.7363 18.7802 15.7363 19.0488C15.7363 19.3821 15.8399 19.5673 16.0963 19.6931C16.3293 19.8073 20.3686 19.8076 21.028 19.6934C22.302 19.4729 23.4618 18.8579 24.4215 17.894C25.8941 16.415 26.6127 14.2724 26.3099 12.2635C25.9303 9.7447 24.1964 7.6329 21.8965 6.8883L21.5627 6.78031L21.5027 6.46566C21.4697 6.29263 21.3648 5.91468 21.2697 5.62575C20.4596 3.16511 18.354 1.26864 15.7942 0.694127C15.4358 0.613676 14.2137 0.47616 14.1003 0.503552C14.0865 0.506899 13.867 0.526834 13.6127 0.547885ZM13.2445 9.47885C13.0931 9.53845 9.19123 13.4479 9.08823 13.6432C9.04851 13.7186 9.016 13.8867 9.016 14.0169C9.016 14.2236 9.04041 14.2783 9.20814 14.4473C9.42692 14.6678 9.58941 14.7245 9.85954 14.6747C10.0217 14.6448 10.2391 14.448 11.4197 13.2627L12.7915 11.8855V17.9358C12.7915 24.5822 12.7713 24.1557 13.0961 24.3887C13.2054 24.4671 13.3246 24.5 13.4996 24.5C13.7858 24.5 13.9598 24.4043 14.1025 24.1685C14.1983 24.0102 14.2006 23.8635 14.2008 17.9451L14.201 11.8837L15.5476 13.2379C16.2882 13.9827 16.9579 14.616 17.0359 14.6452C17.1138 14.6744 17.2353 14.6983 17.3059 14.6983C17.4863 14.6983 17.7938 14.5123 17.8929 14.3433C17.9956 14.1681 18.0011 13.827 17.9042 13.6432C17.7927 13.4317 13.8924 9.53596 13.7321 9.47591C13.5608 9.41179 13.4126 9.41265 13.2445 9.47885Z" fill="#FF8059"/>
</svg>
