<svg width="269" height="205" viewBox="0 0 269 205" fill="none" xmlns="http://www.w3.org/2000/svg">
<path d="M8.91046 101.262C6.83897 100.484 3.34246 99.1635 3.34246 96.2199C3.34246 94.2612 5.1141 92.2998 7.17459 92.2998C10.5721 92.2998 11.656 94.4703 12.3547 96.7784C12.7233 96.8416 13.1773 96.8141 13.4909 96.5693C13.3698 94.8912 13.2295 93.9091 12.8636 92.0549C10.8417 91.7743 10.9187 91.1113 7.50471 91.1113C4.09073 91.1113 0.841804 93.4552 0.841804 97.1635C0.841804 100.872 3.8679 102.533 6.94626 103.705C9.07277 104.514 11.6505 105.496 11.6505 108.919C11.6505 111.752 10.0686 113.221 7.27638 113.221C4.0082 113.221 1.90644 111.736 1.13616 108.253C0.707005 108.112 0.335621 108.178 0 108.357C0.140301 111.051 0.280601 111.961 0.701503 113.675C2.90505 113.675 3.88165 114.481 6.98477 114.481C8.57759 114.481 10.0851 114.09 11.3011 113.331C13.3121 112.071 14.5885 109.917 14.5885 107.694C14.5885 103.972 11.7853 102.341 8.90496 101.26L8.91046 101.262Z" fill="white"/>
<path d="M79.3915 109.761C79.2154 109.445 78.9706 109.236 78.5854 109.236C76.1013 111.965 73.7217 113.049 70.4672 113.049C65.7575 113.049 62.4894 107.734 62.4894 102.623C62.4894 99.6048 63.2899 97.0904 64.5664 95.5196C66.3022 93.3848 68.3297 92.4055 70.1509 92.4055C74.9789 92.4055 76.9046 95.2747 77.8124 98.2843C78.2333 98.4246 78.5717 98.3201 78.9678 98.111C78.7917 96.2926 78.5469 94.6117 78.1975 92.6888C76.4121 92.5155 74.8386 91.1152 70.5333 91.1152C67.5594 91.1152 65.0753 92.1991 63.012 94.0891C60.6875 96.2156 59.3037 99.6433 59.3037 103.291C59.3037 109.371 62.9763 114.488 70.5003 114.488C73.8922 114.488 77.0063 112.878 79.386 109.764L79.3915 109.761Z" fill="white"/>
<path d="M133.831 114.487C141.005 114.487 142.719 110.042 142.719 103.816V95.8383C142.719 93.0296 143.313 92.9003 145.412 92.6554C145.624 92.4436 145.624 91.7091 145.412 91.5C144.084 91.5358 142.656 91.5688 141.844 91.5688C141.091 91.5688 139.396 91.5358 137.784 91.5C137.572 91.7091 137.572 92.4436 137.784 92.6554C140.408 92.9003 141.003 93.0048 141.003 95.8383V104.446C141.003 108.366 140.477 113.051 134.563 113.051C132.884 113.051 131.454 112.419 130.4 111.409C128.686 109.764 128.615 107.104 128.615 104.829V95.8383C128.615 92.9333 129.14 92.76 131.834 92.6554C132.045 92.4436 132.045 91.7091 131.834 91.5C130.191 91.5358 128.488 91.5688 127.11 91.5688C125.732 91.5688 124.31 91.5358 122.948 91.5C122.739 91.7091 122.739 92.4436 122.948 92.6554C125.047 92.76 125.641 92.936 125.641 95.8383V105.984C125.641 113.12 130.241 114.487 133.828 114.487H133.831Z" fill="white"/>
<path d="M201.46 101.538V101.47C203.213 100.581 204.783 98.7846 204.783 96.8864C204.783 94.5426 203.768 91.5 197.262 91.5C196.038 91.5 194.148 91.5688 192.888 91.5688C191.628 91.5688 189.738 91.5358 188.374 91.5C188.162 91.7091 188.162 92.4436 188.374 92.6554C190.822 92.76 191.416 92.936 191.416 95.8383V109.868C191.416 112.773 190.822 112.947 188.374 113.051C188.162 113.263 188.162 113.998 188.374 114.207C189.738 114.171 191.625 114.138 192.921 114.138C194.217 114.138 195.089 114.207 198.03 114.207C204.992 114.207 206.847 110.71 206.847 107.701C206.847 104.342 204.506 102.416 201.46 101.541V101.538ZM194.393 94.892C194.393 93.0378 194.393 92.6857 197.435 92.6857C199.394 92.6857 201.95 93.7366 201.95 97.3046C201.95 100.278 199.887 101.327 196.982 101.327H194.393V94.8892V94.892ZM197.298 113.049C194.85 113.049 194.393 112.141 194.393 110.006V102.518H196.808C201.6 102.518 203.595 105.211 203.595 108.361C203.595 110.914 202.616 113.049 197.295 113.049H197.298Z" fill="white"/>
<path d="M267.518 108.188C266.819 110.708 265.592 112.771 262.935 112.771H258.874C257.405 112.771 256.915 112.213 256.915 110.568V102.835H260.101C263.075 102.835 263.179 103.641 263.287 105.214C263.496 105.426 264.23 105.426 264.439 105.214C264.404 104.304 264.371 103.335 264.371 102.136C264.371 101.156 264.406 99.968 264.439 99.1262C264.23 98.9171 263.493 98.9171 263.287 99.1262C263.182 101.052 263.075 101.506 260.101 101.506H256.915V95.2088C256.915 93.6682 257.336 92.9694 259.226 92.9694H261.848C264.472 92.9694 265.034 94.3697 265.801 96.7823C266.236 96.8456 266.613 96.7713 266.956 96.609C266.78 95.1757 266.258 91.8168 266.186 91.5362C266.186 91.4674 266.15 91.4316 266.046 91.4316C265.452 91.5362 265.171 91.5719 264.332 91.5719H255.411C254.343 91.5719 252.296 91.5389 250.896 91.5032C250.684 91.7122 250.684 92.4468 250.896 92.6586C253.347 92.7631 253.942 92.9392 253.942 95.8415V109.872C253.942 112.777 253.347 112.95 250.896 113.054C250.684 113.266 250.684 114.001 250.896 114.21C252.189 114.174 254.291 114.141 255.444 114.141H262.965C264.646 114.141 267.443 114.21 267.443 114.21C267.933 112.46 268.459 110.149 268.736 108.367C268.373 108.16 267.972 108.081 267.512 108.191L267.518 108.188Z" fill="white"/>
<path d="M133.577 200.248V124.783L158.196 100.162V76.2417L179.365 55.0728C179.824 55.4194 180.391 55.634 181.01 55.634C182.526 55.634 183.758 54.4016 183.758 52.8858C183.758 51.37 182.526 50.1375 181.01 50.1375C179.494 50.1375 178.262 51.37 178.262 52.8858C178.262 53.4222 178.421 53.9174 178.688 54.341L178.586 54.2393L157.057 75.7685V99.6884L133.008 123.738L109.003 99.7352V75.5484L87.644 54.1897C87.9273 53.7578 88.0951 53.2434 88.0951 52.6877C88.0951 51.1719 86.8627 49.9395 85.3469 49.9395C83.8311 49.9395 82.5986 51.1719 82.5986 52.6877C82.5986 54.2035 83.8311 55.4359 85.3469 55.4359C85.8943 55.4359 86.4033 55.2709 86.8352 54.993L107.864 76.0216V100.208L132.438 124.783V200.245C131.591 200.493 130.967 201.269 130.967 202.196C130.967 203.324 131.88 204.237 133.008 204.237C134.136 204.237 135.049 203.324 135.049 202.196C135.049 201.266 134.425 200.493 133.577 200.245V200.248ZM181.01 50.9353C182.086 50.9353 182.96 51.8101 182.96 52.8858C182.96 53.9614 182.086 54.8362 181.01 54.8362C179.934 54.8362 179.059 53.9614 179.059 52.8858C179.059 51.8101 179.934 50.9353 181.01 50.9353ZM83.3937 52.6877C83.3937 51.6121 84.2685 50.7372 85.3441 50.7372C86.4198 50.7372 87.2946 51.6121 87.2946 52.6877C87.2946 53.7633 86.4198 54.6381 85.3441 54.6381C84.2685 54.6381 83.3937 53.7633 83.3937 52.6877Z" fill="white"/>
<path d="M186.772 122.188C185.408 122.188 184.283 123.189 184.068 124.496H176.233L138.781 161.334V200.25C137.934 200.497 137.31 201.273 137.31 202.2C137.31 203.328 138.223 204.241 139.351 204.241C140.479 204.241 141.392 203.328 141.392 202.2C141.392 201.27 140.768 200.497 139.92 200.25V161.81L176.698 125.634H184.12C184.431 126.812 185.493 127.684 186.767 127.684C188.283 127.684 189.515 126.452 189.515 124.936C189.515 123.42 188.283 122.188 186.767 122.188H186.772ZM186.772 126.886C185.697 126.886 184.822 126.011 184.822 124.936C184.822 123.86 185.697 122.985 186.772 122.985C187.848 122.985 188.723 123.86 188.723 124.936C188.723 126.011 187.848 126.886 186.772 126.886Z" fill="white"/>
<path d="M127.128 200.254V159.644L89.844 122.968L89.6789 122.803H81.8056C81.5139 121.598 80.4356 120.695 79.1398 120.695C77.624 120.695 76.3916 121.928 76.3916 123.444C76.3916 124.959 77.624 126.192 79.1398 126.192C80.4851 126.192 81.602 125.221 81.8386 123.941H89.2112L125.989 160.117V200.249C125.142 200.496 124.517 201.272 124.517 202.199C124.517 203.327 125.431 204.24 126.559 204.24C127.687 204.24 128.6 203.327 128.6 202.199C128.6 201.269 127.975 200.496 127.128 200.246V200.254ZM79.1398 125.397C78.0642 125.397 77.1894 124.522 77.1894 123.446C77.1894 122.371 78.0642 121.496 79.1398 121.496C80.2155 121.496 81.0903 122.371 81.0903 123.446C81.0903 124.522 80.2155 125.397 79.1398 125.397Z" fill="white"/>
<path d="M160.875 146.527L145.274 162.128V178.494H146.072V162.458L161.439 147.091L160.875 146.527Z" fill="white"/>
<path d="M174.236 141.843L150.901 165.129L151.465 165.694L174.799 142.408L174.236 141.843Z" fill="white"/>
<path d="M177.216 142.19L177.78 142.754L188.421 132.113L187.857 131.549L177.216 142.19Z" fill="white"/>
<path d="M167.921 139.028C167.019 139.028 166.29 139.76 166.29 140.66C166.29 141.559 167.022 142.291 167.921 142.291C168.821 142.291 169.553 141.559 169.553 140.66C169.553 140.373 169.473 140.109 169.344 139.876L177.498 131.722C177.792 131.914 178.144 132.03 178.524 132.03C179.558 132.03 180.4 131.188 180.4 130.154C180.4 129.119 179.558 128.277 178.524 128.277C177.489 128.277 176.648 129.119 176.648 130.154C176.648 130.519 176.758 130.861 176.939 131.149L168.802 139.287C168.549 139.125 168.249 139.025 167.924 139.025L167.921 139.028ZM178.521 128.85C179.242 128.85 179.825 129.436 179.825 130.154C179.825 130.872 179.239 131.457 178.521 131.457C177.803 131.457 177.217 130.872 177.217 130.154C177.217 129.436 177.803 128.85 178.521 128.85Z" fill="white"/>
<path d="M105.914 146.14L121.284 161.507V177.545H122.082V161.177L106.478 145.576L105.914 146.14Z" fill="white"/>
<path d="M93.1325 140.871L92.5684 141.436L115.878 164.745L116.442 164.181L93.1325 140.871Z" fill="white"/>
<path d="M78.9346 131.164L89.5754 141.804L90.1394 141.24L79.4985 130.6L78.9346 131.164Z" fill="white"/>
<path d="M88.8352 127.332C87.8008 127.332 86.959 128.174 86.959 129.208C86.959 130.243 87.8008 131.084 88.8352 131.084C89.2148 131.084 89.5642 130.969 89.8613 130.776L98.084 138.999C97.9547 139.233 97.8749 139.5 97.8749 139.786C97.8749 140.688 98.6067 141.417 99.5063 141.417C100.406 141.417 101.138 140.685 101.138 139.786C101.138 138.886 100.406 138.154 99.5063 138.154C99.1816 138.154 98.8818 138.251 98.6287 138.413L90.4197 130.204C90.6013 129.915 90.7113 129.574 90.7113 129.208C90.7113 128.174 89.8695 127.332 88.8352 127.332ZM87.5312 129.208C87.5312 128.49 88.1172 127.904 88.8352 127.904C89.5532 127.904 90.1391 128.49 90.1391 129.208C90.1391 129.926 89.5532 130.512 88.8352 130.512C88.1172 130.512 87.5312 129.926 87.5312 129.208Z" fill="white"/>
<path d="M144.983 140.256C144.081 140.256 143.352 140.987 143.352 141.887C143.352 142.787 144.083 143.518 144.983 143.518C145.882 143.518 146.614 142.787 146.614 141.887C146.614 141.595 146.532 141.328 146.4 141.092L152.801 134.69C153.096 134.883 153.448 134.998 153.827 134.998C154.862 134.998 155.704 134.157 155.704 133.122C155.704 132.088 154.862 131.246 153.827 131.246C152.793 131.246 151.951 132.088 151.951 133.122C151.951 133.488 152.061 133.829 152.243 134.118L145.852 140.509C145.599 140.349 145.305 140.253 144.983 140.253V140.256ZM153.827 131.818C154.548 131.818 155.131 132.404 155.131 133.122C155.131 133.84 154.545 134.426 153.827 134.426C153.109 134.426 152.523 133.84 152.523 133.122C152.523 132.404 153.109 131.818 153.827 131.818Z" fill="white"/>
<path d="M155.098 139.44C156 139.44 156.729 138.709 156.729 137.809C156.729 136.909 155.998 136.178 155.098 136.178C154.199 136.178 153.467 136.909 153.467 137.809C153.467 138.112 153.555 138.39 153.698 138.634L147.316 145.017C147.027 144.835 146.686 144.725 146.32 144.725C145.288 144.725 144.446 145.567 144.446 146.601C144.446 147.636 145.288 148.477 146.32 148.477C147.351 148.477 148.196 147.636 148.196 146.601C148.196 146.222 148.08 145.872 147.888 145.575L154.259 139.204C154.504 139.352 154.79 139.443 155.098 139.443V139.44ZM146.32 147.902C145.602 147.902 145.016 147.316 145.016 146.598C145.016 145.88 145.602 145.295 146.32 145.295C147.038 145.295 147.624 145.88 147.624 146.598C147.624 147.316 147.038 147.902 146.32 147.902Z" fill="white"/>
<path d="M137.406 126.894C136.503 126.894 135.774 127.626 135.774 128.525C135.774 129.425 136.506 130.157 137.406 130.157C138.305 130.157 139.037 129.425 139.037 128.525C139.037 128.25 138.963 127.994 138.842 127.766L145.21 121.397C145.505 121.59 145.857 121.705 146.236 121.705C147.271 121.705 148.113 120.864 148.113 119.829C148.113 118.795 147.271 117.953 146.236 117.953C145.202 117.953 144.36 118.795 144.36 119.829C144.36 120.195 144.47 120.536 144.652 120.825L138.311 127.166C138.052 126.993 137.741 126.891 137.406 126.891V126.894ZM146.236 118.525C146.957 118.525 147.54 119.111 147.54 119.829C147.54 120.547 146.954 121.133 146.236 121.133C145.518 121.133 144.932 120.547 144.932 119.829C144.932 119.111 145.518 118.525 146.236 118.525Z" fill="white"/>
<path d="M147.423 126.169C148.325 126.169 149.054 125.437 149.054 124.538C149.054 123.635 148.322 122.906 147.423 122.906C146.523 122.906 145.791 123.638 145.791 124.538C145.791 124.854 145.885 125.148 146.042 125.399L139.726 131.718C139.437 131.536 139.096 131.426 138.73 131.426C137.695 131.426 136.854 132.268 136.854 133.302C136.854 134.337 137.695 135.178 138.73 135.178C139.764 135.178 140.606 134.337 140.606 133.302C140.606 132.923 140.49 132.573 140.298 132.276L146.622 125.952C146.862 126.086 147.131 126.172 147.426 126.172L147.423 126.169ZM138.73 134.603C138.009 134.603 137.426 134.018 137.426 133.299C137.426 132.581 138.012 131.996 138.73 131.996C139.448 131.996 140.034 132.581 140.034 133.299C140.034 134.018 139.448 134.603 138.73 134.603Z" fill="white"/>
<path d="M158.709 118.75C157.675 118.75 156.833 119.592 156.833 120.626C156.833 121.66 157.675 122.502 158.709 122.502C159.744 122.502 160.585 121.66 160.585 120.626C160.585 120.246 160.47 119.897 160.277 119.6L166.638 113.24C166.869 113.363 167.127 113.44 167.405 113.44C168.307 113.44 169.036 112.709 169.036 111.809C169.036 110.91 168.305 110.178 167.405 110.178C166.505 110.178 165.774 110.91 165.774 111.809C165.774 112.139 165.873 112.447 166.043 112.706L159.705 119.044C159.416 118.863 159.075 118.753 158.709 118.753V118.75ZM158.709 121.93C157.988 121.93 157.405 121.344 157.405 120.626C157.405 119.908 157.991 119.322 158.709 119.322C159.427 119.322 160.013 119.908 160.013 120.626C160.013 121.344 159.427 121.93 158.709 121.93Z" fill="white"/>
<path d="M98.7163 108.62C97.814 108.62 97.085 109.352 97.085 110.251C97.085 111.151 97.8167 111.883 98.7163 111.883C98.9941 111.883 99.2527 111.806 99.4838 111.682L105.828 118.026C105.646 118.314 105.536 118.656 105.536 119.021C105.536 120.056 106.378 120.898 107.412 120.898C108.447 120.898 109.288 120.056 109.288 119.021C109.288 117.987 108.447 117.145 107.412 117.145C107.033 117.145 106.683 117.261 106.386 117.453L100.081 111.145C100.251 110.887 100.35 110.579 100.35 110.249C100.35 109.346 99.6186 108.617 98.719 108.617L98.7163 108.62ZM107.409 117.717C108.13 117.717 108.713 118.303 108.713 119.021C108.713 119.739 108.127 120.325 107.409 120.325C106.691 120.325 106.105 119.739 106.105 119.021C106.105 118.303 106.691 117.717 107.409 117.717Z" fill="white"/>
<path d="M119.927 118.977C119.025 118.977 118.296 119.709 118.296 120.609C118.296 121.508 119.028 122.24 119.927 122.24C120.266 122.24 120.579 122.136 120.841 121.959L127.187 128.306C127.006 128.595 126.896 128.936 126.896 129.302C126.896 130.336 127.737 131.178 128.772 131.178C129.806 131.178 130.648 130.336 130.648 129.302C130.648 128.267 129.806 127.426 128.772 127.426C128.392 127.426 128.043 127.541 127.746 127.734L121.369 121.357C121.487 121.131 121.559 120.878 121.559 120.606C121.559 119.704 120.827 118.975 119.927 118.975V118.977ZM128.772 127.998C129.492 127.998 130.076 128.584 130.076 129.302C130.076 130.02 129.49 130.606 128.772 130.606C128.054 130.606 127.468 130.02 127.468 129.302C127.468 128.584 128.054 127.998 128.772 127.998Z" fill="white"/>
<path d="M110.579 136.452C110.579 137.354 111.311 138.083 112.21 138.083C112.538 138.083 112.84 137.984 113.096 137.819L119.498 144.22C119.316 144.509 119.206 144.85 119.206 145.216C119.206 146.251 120.048 147.092 121.082 147.092C122.117 147.092 122.959 146.251 122.959 145.216C122.959 144.182 122.117 143.34 121.082 143.34C120.703 143.34 120.353 143.456 120.056 143.648L113.635 137.227C113.762 136.996 113.842 136.732 113.842 136.452C113.842 135.549 113.11 134.82 112.21 134.82C111.311 134.82 110.579 135.552 110.579 136.452ZM121.082 143.91C121.803 143.91 122.386 144.496 122.386 145.214C122.386 145.932 121.8 146.518 121.082 146.518C120.364 146.518 119.778 145.932 119.778 145.214C119.778 144.496 120.364 143.91 121.082 143.91Z" fill="white"/>
<path d="M113.575 129.871C112.541 129.871 111.699 130.713 111.699 131.747C111.699 132.782 112.541 133.623 113.575 133.623C113.941 133.623 114.282 133.513 114.571 133.332L120.94 139.7C120.797 139.942 120.709 140.223 120.709 140.526C120.709 141.428 121.44 142.157 122.34 142.157C123.24 142.157 123.971 141.425 123.971 140.526C123.971 139.626 123.24 138.894 122.34 138.894C122.032 138.894 121.746 138.985 121.501 139.134L115.143 132.776C115.336 132.482 115.452 132.13 115.452 131.75C115.452 130.716 114.61 129.874 113.575 129.874V129.871ZM113.575 133.051C112.855 133.051 112.271 132.465 112.271 131.747C112.271 131.029 112.857 130.443 113.575 130.443C114.293 130.443 114.879 131.029 114.879 131.747C114.879 132.465 114.293 133.051 113.575 133.051Z" fill="white"/>
<path d="M128.036 65.6067C129.07 65.6067 129.912 64.7649 129.912 63.7306C129.912 62.6962 129.07 61.8544 128.036 61.8544C127.656 61.8544 127.307 61.9699 127.01 62.1625L120.608 55.7637C120.776 55.5078 120.878 55.1997 120.878 54.8696C120.878 53.9673 120.146 53.2383 119.247 53.2383C118.347 53.2383 117.615 53.97 117.615 54.8696C117.615 55.7692 118.347 56.501 119.247 56.501C119.527 56.501 119.786 56.4239 120.017 56.3001L126.451 62.7347C126.27 63.0236 126.16 63.3647 126.16 63.7306C126.16 64.7649 127.002 65.6067 128.036 65.6067ZM128.036 62.4266C128.757 62.4266 129.34 63.0126 129.34 63.7306C129.34 64.4486 128.754 65.0345 128.036 65.0345C127.318 65.0345 126.732 64.4486 126.732 63.7306C126.732 63.0126 127.318 62.4266 128.036 62.4266Z" fill="white"/>
<path d="M98.4079 31.5615C98.7298 31.5615 99.0296 31.4652 99.2827 31.3029L105.684 37.7045C105.503 37.9933 105.393 38.3344 105.393 38.7003C105.393 39.7347 106.234 40.5765 107.269 40.5765C108.303 40.5765 109.145 39.7347 109.145 38.7003C109.145 37.666 108.303 36.8242 107.269 36.8242C106.889 36.8242 106.54 36.9397 106.243 37.1323L99.8301 30.7197C99.9622 30.4859 100.042 30.219 100.042 29.9302C100.042 29.0278 99.3102 28.2988 98.4106 28.2988C97.5111 28.2988 96.7793 29.0306 96.7793 29.9302C96.7793 30.8297 97.5111 31.5615 98.4106 31.5615H98.4079ZM107.263 37.3964C107.984 37.3964 108.567 37.9823 108.567 38.7003C108.567 39.4183 107.981 40.0043 107.263 40.0043C106.545 40.0043 105.959 39.4183 105.959 38.7003C105.959 37.9823 106.545 37.3964 107.263 37.3964Z" fill="white"/>
<path d="M130.994 59.1034C130.994 58.2011 130.263 57.4721 129.363 57.4721C129.055 57.4721 128.769 57.5629 128.524 57.7114L122.098 51.2851C122.29 50.9908 122.406 50.6386 122.406 50.259C122.406 49.2246 121.564 48.3828 120.529 48.3828C119.495 48.3828 118.653 49.2246 118.653 50.259C118.653 51.2934 119.495 52.1352 120.529 52.1352C120.895 52.1352 121.237 52.0251 121.525 51.8436L127.963 58.2809C127.82 58.523 127.732 58.8036 127.732 59.1062C127.732 60.0085 128.463 60.7375 129.363 60.7375C130.263 60.7375 130.994 60.0058 130.994 59.1062V59.1034ZM120.529 51.5657C119.809 51.5657 119.226 50.9797 119.226 50.2617C119.226 49.5437 119.811 48.9578 120.529 48.9578C121.247 48.9578 121.833 49.5437 121.833 50.2617C121.833 50.9797 121.247 51.5657 120.529 51.5657Z" fill="white"/>
<path d="M101.548 18.7602C101.914 18.7602 102.255 18.6501 102.544 18.4686L108.937 24.8646C108.761 25.126 108.656 25.4396 108.656 25.7779C108.656 26.6803 109.388 27.4093 110.288 27.4093C111.187 27.4093 111.919 26.6775 111.919 25.7779C111.919 24.8784 111.187 24.1466 110.288 24.1466C110.015 24.1466 109.765 24.2181 109.54 24.3364L103.113 17.9101C103.306 17.6158 103.421 17.2636 103.421 16.884C103.421 15.8496 102.579 15.0078 101.545 15.0078C100.511 15.0078 99.6689 15.8496 99.6689 16.884C99.6689 17.9184 100.511 18.7602 101.545 18.7602H101.548ZM101.548 15.58C102.269 15.58 102.852 16.166 102.852 16.884C102.852 17.602 102.266 18.188 101.548 18.188C100.83 18.188 100.244 17.602 100.244 16.884C100.244 16.166 100.83 15.58 101.548 15.58Z" fill="white"/>
<path d="M170.309 124.155C170.975 124.155 171.517 123.613 171.517 122.945C171.517 122.276 170.975 121.734 170.309 121.734C169.643 121.734 169.099 122.276 169.099 122.945C169.099 123.212 169.187 123.454 169.333 123.655L159.096 133.891C158.939 133.797 158.766 133.726 158.571 133.726C158.001 133.726 157.539 134.188 157.539 134.758C157.539 135.327 158.001 135.789 158.571 135.789C159.14 135.789 159.602 135.327 159.602 134.758C159.602 134.593 159.556 134.441 159.487 134.304L169.77 124.02C169.932 124.103 170.114 124.152 170.306 124.152L170.309 124.155ZM170.309 122.307C170.661 122.307 170.947 122.593 170.947 122.945C170.947 123.297 170.661 123.583 170.309 123.583C169.957 123.583 169.671 123.297 169.671 122.945C169.671 122.593 169.957 122.307 170.309 122.307Z" fill="white"/>
<path d="M174.281 117.017C174.95 117.017 175.491 116.475 175.491 115.806C175.491 115.138 174.95 114.596 174.281 114.596C173.613 114.596 173.073 115.138 173.073 115.806C173.073 116.073 173.161 116.315 173.307 116.516L163.071 126.752C162.914 126.656 162.741 126.587 162.545 126.587C161.976 126.587 161.514 127.049 161.514 127.619C161.514 128.188 161.976 128.651 162.545 128.651C163.115 128.651 163.577 128.188 163.577 127.619C163.577 127.454 163.53 127.305 163.461 127.165L173.745 116.882C173.907 116.964 174.088 117.014 174.281 117.014V117.017ZM174.281 115.168C174.633 115.168 174.919 115.454 174.919 115.806C174.919 116.158 174.633 116.444 174.281 116.444C173.929 116.444 173.643 116.158 173.643 115.806C173.643 115.454 173.929 115.168 174.281 115.168Z" fill="white"/>
<path d="M176.814 111.436C177.483 111.436 178.025 110.895 178.025 110.226C178.025 109.558 177.483 109.016 176.814 109.016C176.146 109.016 175.607 109.558 175.607 110.226C175.607 110.493 175.695 110.735 175.84 110.936L165.604 121.172C165.447 121.076 165.274 121.007 165.078 121.007C164.509 121.007 164.047 121.469 164.047 122.039C164.047 122.608 164.509 123.07 165.078 123.07C165.648 123.07 166.11 122.608 166.11 122.039C166.11 121.874 166.063 121.725 165.995 121.585L176.278 111.302C176.44 111.384 176.622 111.434 176.814 111.434V111.436ZM176.814 109.588C177.166 109.588 177.452 109.874 177.452 110.226C177.452 110.578 177.166 110.864 176.814 110.864C176.462 110.864 176.176 110.578 176.176 110.226C176.176 109.874 176.462 109.588 176.814 109.588Z" fill="white"/>
<path d="M176.949 78.6279C177.617 78.6279 178.159 78.086 178.159 77.4175C178.159 76.749 177.617 76.207 176.949 76.207C176.281 76.207 175.741 76.749 175.741 77.4175C175.741 77.6843 175.829 77.9264 175.975 78.1272L165.739 88.3637C165.582 88.2674 165.409 88.1986 165.213 88.1986C164.644 88.1986 164.182 88.6608 164.182 89.2302C164.182 89.7997 164.644 90.2619 165.213 90.2619C165.783 90.2619 166.245 89.7997 166.245 89.2302C166.245 89.0652 166.198 88.9166 166.129 88.7763L176.413 78.4931C176.575 78.5756 176.756 78.6252 176.949 78.6252V78.6279ZM176.949 76.7792C177.301 76.7792 177.587 77.0653 177.587 77.4175C177.587 77.7696 177.301 78.0557 176.949 78.0557C176.597 78.0557 176.311 77.7696 176.311 77.4175C176.311 77.0653 176.597 76.7792 176.949 76.7792Z" fill="white"/>
<path d="M169.187 81.0607C168.617 81.0607 168.155 81.5229 168.155 82.0924C168.155 82.6618 168.617 83.124 169.187 83.124C169.756 83.124 170.219 82.6618 170.219 82.0924C170.219 81.9273 170.172 81.776 170.103 81.6384L180.386 71.3552C180.549 71.4378 180.73 71.4873 180.923 71.4873C181.588 71.4873 182.13 70.9453 182.13 70.2768C182.13 69.6084 181.588 69.0664 180.923 69.0664C180.257 69.0664 179.712 69.6084 179.712 70.2768C179.712 70.5437 179.8 70.7858 179.946 70.9866L169.71 81.223C169.553 81.1295 169.379 81.058 169.184 81.058L169.187 81.0607ZM180.923 69.6386C181.275 69.6386 181.561 69.9247 181.561 70.2768C181.561 70.629 181.275 70.9151 180.923 70.9151C180.571 70.9151 180.284 70.629 180.284 70.2768C180.284 69.9247 180.571 69.6386 180.923 69.6386Z" fill="white"/>
<path d="M182.248 64.6995C182.248 64.9664 182.336 65.2085 182.482 65.4093L172.246 75.6457C172.089 75.5522 171.915 75.4807 171.72 75.4807C171.151 75.4807 170.688 75.9428 170.688 76.5123C170.688 77.0817 171.151 77.5439 171.72 77.5439C172.29 77.5439 172.752 77.0817 172.752 76.5123C172.752 76.3472 172.705 76.1987 172.636 76.0584L182.919 65.7752C183.082 65.8577 183.263 65.9072 183.456 65.9072C184.122 65.9072 184.664 65.3653 184.664 64.6968C184.664 64.0283 184.122 63.4863 183.456 63.4863C182.79 63.4863 182.245 64.0283 182.245 64.6968L182.248 64.6995ZM184.097 64.6995C184.097 65.0516 183.811 65.3377 183.459 65.3377C183.106 65.3377 182.82 65.0516 182.82 64.6995C182.82 64.3474 183.106 64.0613 183.459 64.0613C183.811 64.0613 184.097 64.3474 184.097 64.6995Z" fill="white"/>
<path d="M155.642 54.3775C155.642 54.947 156.105 55.4091 156.674 55.4091C157.243 55.4091 157.706 54.947 157.706 54.3775C157.706 54.2125 157.659 54.0611 157.59 53.9236L167.873 43.6404C168.036 43.7229 168.217 43.7724 168.41 43.7724C169.075 43.7724 169.617 43.2305 169.617 42.562C169.617 41.8935 169.075 41.3516 168.41 41.3516C167.744 41.3516 167.199 41.8935 167.199 42.562C167.199 42.8288 167.287 43.0709 167.433 43.2718L157.197 53.5082C157.04 53.4147 156.867 53.3431 156.671 53.3431C156.102 53.3431 155.64 53.8053 155.64 54.3748L155.642 54.3775ZM168.413 41.9238C168.765 41.9238 169.051 42.2099 169.051 42.562C169.051 42.9141 168.765 43.2002 168.413 43.2002C168.06 43.2002 167.774 42.9141 167.774 42.562C167.774 42.2099 168.06 41.9238 168.413 41.9238Z" fill="white"/>
<path d="M172.386 36.6377C173.054 36.6377 173.596 36.0957 173.596 35.4272C173.596 34.7587 173.054 34.2168 172.386 34.2168C171.717 34.2168 171.178 34.7587 171.178 35.4272C171.178 35.6941 171.266 35.9362 171.412 36.137L161.175 46.3734C161.018 46.2772 160.845 46.2084 160.65 46.2084C160.08 46.2084 159.618 46.6705 159.618 47.24C159.618 47.8095 160.08 48.2716 160.65 48.2716C161.219 48.2716 161.681 47.8095 161.681 47.24C161.681 47.0749 161.635 46.9264 161.566 46.7861L171.849 36.5029C172.011 36.5854 172.193 36.6349 172.386 36.6349V36.6377ZM172.386 34.789C172.738 34.789 173.024 35.0751 173.024 35.4272C173.024 35.7794 172.738 36.0655 172.386 36.0655C172.033 36.0655 171.747 35.7794 171.747 35.4272C171.747 35.0751 172.033 34.789 172.386 34.789Z" fill="white"/>
<path d="M163.708 40.7883C163.552 40.6948 163.378 40.6232 163.183 40.6232C162.614 40.6232 162.151 41.0854 162.151 41.6549C162.151 42.2243 162.614 42.6865 163.183 42.6865C163.752 42.6865 164.215 42.2243 164.215 41.6549C164.215 41.4898 164.168 41.3412 164.099 41.2009L174.382 30.9177C174.545 30.9975 174.726 31.0498 174.919 31.0498C175.587 31.0498 176.129 30.5078 176.129 29.8393C176.129 29.1709 175.587 28.6289 174.919 28.6289C174.25 28.6289 173.711 29.1709 173.711 29.8393C173.711 30.1062 173.799 30.3483 173.945 30.5491L163.708 40.7855V40.7883ZM174.919 29.2039C175.271 29.2039 175.557 29.49 175.557 29.8421C175.557 30.1942 175.271 30.4803 174.919 30.4803C174.567 30.4803 174.281 30.1942 174.281 29.8421C174.281 29.49 174.567 29.2039 174.919 29.2039Z" fill="white"/>
<path d="M145.482 17.1586L138.772 23.8683C138.615 23.7748 138.442 23.7032 138.246 23.7032C137.677 23.7032 137.215 24.1654 137.215 24.7349C137.215 25.3043 137.677 25.7665 138.246 25.7665C138.816 25.7665 139.278 25.3043 139.278 24.7349C139.278 24.5698 139.231 24.4212 139.163 24.2809L145.897 17.5493C146.035 17.618 146.186 17.6648 146.351 17.6648C146.92 17.6648 147.383 17.2026 147.383 16.6332C147.383 16.0637 146.92 15.6016 146.351 15.6016C145.781 15.6016 145.319 16.0637 145.319 16.6332C145.319 16.8285 145.388 17.0018 145.484 17.1586H145.482Z" fill="white"/>
<path d="M146.485 20.1621C145.915 20.1621 145.453 20.6243 145.453 21.1937C145.453 21.3891 145.522 21.5624 145.618 21.7192L138.909 28.4288C138.752 28.3353 138.579 28.2638 138.383 28.2638C137.814 28.2638 137.352 28.7259 137.352 29.2954C137.352 29.8649 137.814 30.327 138.383 30.327C138.953 30.327 139.415 29.8649 139.415 29.2954C139.415 29.1303 139.368 28.9818 139.299 28.8415L146.031 22.1098C146.168 22.1786 146.32 22.2254 146.485 22.2254C147.054 22.2254 147.516 21.7632 147.516 21.1937C147.516 20.6243 147.054 20.1621 146.485 20.1621Z" fill="white"/>
<path d="M145.767 25.7492C145.767 25.9445 145.835 26.1178 145.932 26.2747L139.222 32.9843C139.065 32.888 138.892 32.8193 138.697 32.8193C138.127 32.8193 137.665 33.2814 137.665 33.8509C137.665 34.4203 138.127 34.8825 138.697 34.8825C139.266 34.8825 139.728 34.4203 139.728 33.8509C139.728 33.6858 139.682 33.5373 139.613 33.397L146.344 26.6625C146.482 26.7313 146.633 26.7781 146.798 26.7781C147.368 26.7781 147.83 26.3159 147.83 25.7465C147.83 25.177 147.368 24.7148 146.798 24.7148C146.229 24.7148 145.767 25.177 145.767 25.7465V25.7492Z" fill="white"/>
<path d="M108.664 134.383C109.233 134.383 109.696 133.921 109.696 133.351C109.696 132.782 109.233 132.32 108.664 132.32C108.469 132.32 108.295 132.388 108.139 132.485L97.9021 122.248C98.0479 122.047 98.1359 121.805 98.1359 121.539C98.1359 120.873 97.5939 120.328 96.9255 120.328C96.257 120.328 95.7178 120.87 95.7178 121.539C95.7178 122.207 96.2597 122.749 96.9255 122.749C97.118 122.749 97.2996 122.699 97.4619 122.617L107.745 132.9C107.676 133.038 107.63 133.189 107.63 133.354C107.63 133.924 108.092 134.386 108.661 134.386L108.664 134.383ZM96.9282 122.174C96.5761 122.174 96.29 121.888 96.29 121.536C96.29 121.184 96.5761 120.898 96.9282 120.898C97.2803 120.898 97.5664 121.184 97.5664 121.536C97.5664 121.888 97.2803 122.174 96.9282 122.174Z" fill="white"/>
<path d="M92.9565 115.61C93.1491 115.61 93.3307 115.56 93.493 115.477L103.776 125.761C103.707 125.898 103.661 126.05 103.661 126.215C103.661 126.784 104.123 127.246 104.692 127.246C105.262 127.246 105.724 126.784 105.724 126.215C105.724 125.645 105.262 125.183 104.692 125.183C104.497 125.183 104.324 125.252 104.167 125.348L93.9304 115.112C94.0762 114.911 94.1642 114.669 94.1642 114.402C94.1642 113.736 93.6223 113.191 92.9565 113.191C92.2908 113.191 91.7461 113.733 91.7461 114.402C91.7461 115.07 92.288 115.612 92.9565 115.612V115.61ZM92.9565 113.761C93.3087 113.761 93.5948 114.047 93.5948 114.399C93.5948 114.751 93.3087 115.037 92.9565 115.037C92.6044 115.037 92.3183 114.751 92.3183 114.399C92.3183 114.047 92.6044 113.761 92.9565 113.761Z" fill="white"/>
<path d="M90.4204 110.027C90.613 110.027 90.7945 109.978 90.9568 109.895L101.24 120.179C101.171 120.316 101.125 120.468 101.125 120.633C101.125 121.202 101.587 121.664 102.156 121.664C102.726 121.664 103.188 121.202 103.188 120.633C103.188 120.063 102.726 119.601 102.156 119.601C101.961 119.601 101.787 119.67 101.631 119.766L91.3942 109.53C91.5401 109.329 91.6281 109.087 91.6281 108.82C91.6281 108.151 91.0861 107.609 90.4204 107.609C89.7547 107.609 89.21 108.151 89.21 108.82C89.21 109.488 89.7519 110.03 90.4204 110.03V110.027ZM90.4204 108.179C90.7725 108.179 91.0586 108.465 91.0586 108.817C91.0586 109.169 90.7725 109.455 90.4204 109.455C90.0683 109.455 89.7822 109.169 89.7822 108.817C89.7822 108.465 90.0683 108.179 90.4204 108.179Z" fill="white"/>
<path d="M106.164 86.4826C106.733 86.4826 107.196 86.0204 107.196 85.4509C107.196 84.8815 106.733 84.4193 106.164 84.4193C105.969 84.4193 105.795 84.4881 105.639 84.5844L95.4021 74.3479C95.5479 74.1471 95.6359 73.905 95.6359 73.6382C95.6359 72.9724 95.094 72.4277 94.4255 72.4277C93.757 72.4277 93.2178 72.9697 93.2178 73.6382C93.2178 74.3067 93.7597 74.8486 94.4255 74.8486C94.618 74.8486 94.7996 74.7991 94.9619 74.7166L105.245 84.9998C105.176 85.1373 105.13 85.2886 105.13 85.4537C105.13 86.0231 105.592 86.4853 106.161 86.4853L106.164 86.4826ZM94.4255 74.2736C94.0733 74.2736 93.7872 73.9875 93.7872 73.6354C93.7872 73.2833 94.0733 72.9972 94.4255 72.9972C94.7776 72.9972 95.0637 73.2833 95.0637 73.6354C95.0637 73.9875 94.7776 74.2736 94.4255 74.2736Z" fill="white"/>
<path d="M102.189 77.2787C101.994 77.2787 101.821 77.3475 101.664 77.4437L91.4275 67.2073C91.5733 67.0065 91.6613 66.7644 91.6613 66.4975C91.6613 65.8291 91.1193 65.2871 90.4536 65.2871C89.7879 65.2871 89.2432 65.8291 89.2432 66.4975C89.2432 67.166 89.7851 67.708 90.4536 67.708C90.6462 67.708 90.8277 67.6585 90.99 67.5759L101.273 77.8591C101.204 77.9967 101.158 78.148 101.158 78.3131C101.158 78.8825 101.62 79.3447 102.189 79.3447C102.759 79.3447 103.221 78.8825 103.221 78.3131C103.221 77.7436 102.759 77.2814 102.189 77.2814V77.2787ZM90.4536 67.1358C90.1015 67.1358 89.8154 66.8497 89.8154 66.4975C89.8154 66.1454 90.1015 65.8593 90.4536 65.8593C90.8057 65.8593 91.0918 66.1454 91.0918 66.4975C91.0918 66.8497 90.8057 67.1358 90.4536 67.1358Z" fill="white"/>
<path d="M87.9194 59.7051C87.2509 59.7051 86.709 60.247 86.709 60.9155C86.709 61.584 87.2509 62.126 87.9194 62.126C88.112 62.126 88.2935 62.0764 88.4559 61.9939L98.7391 72.2771C98.6703 72.4147 98.6235 72.566 98.6235 72.731C98.6235 73.3005 99.0857 73.7626 99.6552 73.7626C100.225 73.7626 100.687 73.3005 100.687 72.731C100.687 72.1616 100.225 71.6994 99.6552 71.6994C99.4598 71.6994 99.2865 71.7682 99.1297 71.8645L88.8933 61.628C89.0391 61.4272 89.1271 61.1851 89.1271 60.9183C89.1271 60.2525 88.5852 59.7078 87.9194 59.7078V59.7051ZM87.9194 61.5537C87.5673 61.5537 87.2812 61.2676 87.2812 60.9155C87.2812 60.5634 87.5673 60.2773 87.9194 60.2773C88.2715 60.2773 88.5577 60.5634 88.5577 60.9155C88.5577 61.2676 88.2715 61.5537 87.9194 61.5537Z" fill="white"/>
<path d="M138.341 158.869C138.341 158.041 137.764 157.35 136.991 157.171V143.394L153.796 126.589V118.737L164.52 108.014C164.806 108.19 165.139 108.297 165.496 108.297C166.531 108.297 167.372 107.455 167.372 106.421C167.372 105.387 166.531 104.545 165.496 104.545C164.462 104.545 163.62 105.387 163.62 106.421C163.62 106.806 163.738 107.167 163.939 107.464L152.999 118.404V126.256L136.193 143.062V157.169C135.42 157.35 134.845 158.038 134.845 158.866C134.845 159.832 135.626 160.613 136.592 160.613C137.557 160.613 138.338 159.832 138.338 158.866L138.341 158.869ZM165.499 105.117C166.22 105.117 166.803 105.703 166.803 106.421C166.803 107.139 166.217 107.725 165.499 107.725C164.781 107.725 164.195 107.139 164.195 106.421C164.195 105.703 164.781 105.117 165.499 105.117Z" fill="white"/>
<path d="M129.748 153.231V139.11L112.928 122.293V114.37L102.001 103.443C102.139 103.185 102.221 102.893 102.221 102.579C102.221 101.545 101.379 100.703 100.345 100.703C99.3105 100.703 98.4688 101.545 98.4688 102.579C98.4688 103.614 99.3105 104.455 100.345 104.455C100.774 104.455 101.167 104.304 101.484 104.059L112.127 114.703V122.626L128.947 139.443V153.233C128.174 153.415 127.596 154.103 127.596 154.931C127.596 155.896 128.378 156.678 129.343 156.678C130.309 156.678 131.09 155.896 131.09 154.931C131.09 154.103 130.512 153.415 129.742 153.233L129.748 153.231ZM99.0437 102.577C99.0437 101.859 99.6297 101.273 100.348 101.273C101.066 101.273 101.652 101.859 101.652 102.577C101.652 103.295 101.066 103.881 100.348 103.881C99.6297 103.881 99.0437 103.295 99.0437 102.577Z" fill="white"/>
<path d="M170.771 107.64H171.568V91.2635L186.759 76.0726L186.198 75.5059L170.771 90.9334V107.64Z" fill="white"/>
<path d="M162.489 77.7801L168.946 71.3236C169.147 71.4143 169.37 71.4639 169.606 71.4639C170.509 71.4639 171.238 70.7321 171.238 69.8325C171.238 68.9329 170.506 68.2012 169.606 68.2012C168.707 68.2012 167.975 68.9329 167.975 69.8325C167.975 70.0801 168.035 70.3139 168.134 70.523L161.35 77.307V100.968L155.097 107.221C154.82 107.059 154.503 106.96 154.159 106.96C153.125 106.96 152.283 107.802 152.283 108.836C152.283 109.87 153.125 110.712 154.159 110.712C155.194 110.712 156.036 109.87 156.036 108.836C156.036 108.561 155.972 108.302 155.868 108.069L162.492 101.444V77.7829L162.489 77.7801ZM154.159 110.14C153.439 110.14 152.855 109.554 152.855 108.836C152.855 108.118 153.441 107.532 154.159 107.532C154.877 107.532 155.463 108.118 155.463 108.836C155.463 109.554 154.877 110.14 154.159 110.14Z" fill="white"/>
<path d="M176.558 91.7639C175.989 91.7639 175.526 92.2261 175.526 92.7955C175.526 93.365 175.989 93.8271 176.558 93.8271C177.127 93.8271 177.59 93.365 177.59 92.7955C177.59 92.6305 177.543 92.4819 177.474 92.3416L185.001 84.8149C185.138 84.8837 185.29 84.9304 185.455 84.9304C186.024 84.9304 186.486 84.4683 186.486 83.8988C186.486 83.3294 186.024 82.8672 185.455 82.8672C184.885 82.8672 184.423 83.3294 184.423 83.8988C184.423 84.0941 184.492 84.2674 184.588 84.4243L177.086 91.9262C176.929 91.8299 176.756 91.7611 176.561 91.7611L176.558 91.7639Z" fill="white"/>
<path d="M183.664 88.8566C183.664 89.2225 183.774 89.5637 183.955 89.8525L177.931 95.8772C177.642 95.6956 177.301 95.5856 176.935 95.5856C175.9 95.5856 175.059 96.4274 175.059 97.4618C175.059 98.4961 175.9 99.3379 176.935 99.3379C177.969 99.3379 178.811 98.4961 178.811 97.4618C178.811 97.0821 178.695 96.7327 178.503 96.4356L184.514 90.4247C184.808 90.6173 185.16 90.7328 185.54 90.7328C186.574 90.7328 187.416 89.891 187.416 88.8566C187.416 87.8223 186.574 86.9805 185.54 86.9805C184.505 86.9805 183.664 87.8223 183.664 88.8566ZM176.935 98.7657C176.214 98.7657 175.631 98.1798 175.631 97.4618C175.631 96.7437 176.217 96.1578 176.935 96.1578C177.653 96.1578 178.239 96.7437 178.239 97.4618C178.239 98.1798 177.653 98.7657 176.935 98.7657ZM186.844 88.8566C186.844 89.5747 186.258 90.1606 185.54 90.1606C184.822 90.1606 184.236 89.5747 184.236 88.8566C184.236 88.1386 184.822 87.5527 185.54 87.5527C186.258 87.5527 186.844 88.1386 186.844 88.8566Z" fill="white"/>
<path d="M86.1359 90.0543C86.3313 90.0543 86.5046 89.9855 86.6614 89.8892L94.1633 97.3912C94.067 97.548 93.9983 97.7213 93.9983 97.9166C93.9983 98.4861 94.4604 98.9482 95.0299 98.9482C95.5994 98.9482 96.0615 98.4861 96.0615 97.9166C96.0615 97.3472 95.5994 96.885 95.0299 96.885C94.8648 96.885 94.7163 96.9318 94.576 97.0005L87.0493 89.4738C87.118 89.3363 87.1648 89.185 87.1648 89.0199C87.1648 88.4504 86.7026 87.9883 86.1332 87.9883C85.5637 87.9883 85.1016 88.4504 85.1016 89.0199C85.1016 89.5894 85.5637 90.0515 86.1332 90.0515L86.1359 90.0543Z" fill="white"/>
<path d="M86.3781 80.2327C86.5734 80.2327 86.7468 80.1639 86.9036 80.0676L94.3615 87.5256C94.29 87.6659 94.2405 87.8172 94.2405 87.985C94.2405 88.0042 94.2515 88.0207 94.2515 88.04C94.2515 88.0593 94.2405 88.0758 94.2405 88.095C94.2405 88.6645 94.7026 89.1266 95.2721 89.1266C95.8415 89.1266 96.3037 88.6645 96.3037 88.095C96.3037 88.0758 96.2927 88.0593 96.2927 88.04C96.2927 88.0207 96.3037 88.0042 96.3037 87.985C96.3037 87.4155 95.8415 86.9534 95.2721 86.9534C95.107 86.9534 94.9585 87.0001 94.8182 87.0689L87.33 79.5807C87.3767 79.4624 87.407 79.3331 87.407 79.1983C87.407 79.179 87.396 79.1625 87.396 79.1433C87.396 79.124 87.407 79.1075 87.407 79.0883C87.407 78.5188 86.9448 78.0566 86.3754 78.0566C85.8059 78.0566 85.3438 78.5188 85.3438 79.0883C85.3438 79.1075 85.3548 79.124 85.3548 79.1433C85.3548 79.1625 85.3438 79.179 85.3438 79.1983C85.3438 79.7678 85.8059 80.2299 86.3754 80.2299L86.3781 80.2327Z" fill="white"/>
<path d="M84.6396 84.3625C84.6396 85.3969 85.4815 86.2387 86.5158 86.2387C86.8817 86.2387 87.2228 86.1286 87.5117 85.9471L93.5364 91.9718C93.3548 92.2606 93.2448 92.6017 93.2448 92.9676C93.2448 94.002 94.0866 94.8438 95.1209 94.8438C96.1553 94.8438 96.9971 94.002 96.9971 92.9676C96.9971 91.9332 96.1553 91.0914 95.1209 91.0914C94.7413 91.0914 94.3919 91.207 94.0948 91.3996L88.0839 85.3886C88.2765 85.0943 88.392 84.7421 88.392 84.3625C88.392 83.3281 87.5502 82.4863 86.5158 82.4863C85.4815 82.4863 84.6396 83.3281 84.6396 84.3625ZM96.4249 92.9649C96.4249 93.6829 95.8389 94.2688 95.1209 94.2688C94.4029 94.2688 93.817 93.6829 93.817 92.9649C93.817 92.2469 94.4029 91.6609 95.1209 91.6609C95.8389 91.6609 96.4249 92.2469 96.4249 92.9649ZM86.5158 83.0558C87.2366 83.0558 87.8198 83.6418 87.8198 84.3598C87.8198 85.0778 87.2338 85.6637 86.5158 85.6637C85.7978 85.6637 85.2119 85.0778 85.2119 84.3598C85.2119 83.6418 85.7978 83.0558 86.5158 83.0558Z" fill="white"/>
<path d="M82.1586 73.5207C82.7913 73.5207 83.3663 73.2979 83.8312 72.9375L99.0442 88.1505V97.3416H99.842V87.8176L84.3896 72.3653C84.7142 71.9141 84.9096 71.3667 84.9096 70.7697C84.9096 69.2539 83.6771 68.0215 82.1613 68.0215C80.6455 68.0215 79.4131 69.2539 79.4131 70.7697C79.4131 72.2855 80.6455 73.518 82.1613 73.518L82.1586 73.5207ZM82.1586 68.822C83.2342 68.822 84.109 69.6968 84.109 70.7725C84.109 71.8481 83.2342 72.7229 82.1586 72.7229C81.0829 72.7229 80.2081 71.8481 80.2081 70.7725C80.2081 69.6968 81.0829 68.822 82.1586 68.822Z" fill="white"/>
<path d="M119.77 103.625C120.805 103.625 121.647 102.783 121.647 101.749C121.647 100.714 120.805 99.8726 119.77 99.8726C119.426 99.8726 119.11 99.9717 118.832 100.134L112.582 93.881V70.2197L105.804 63.4413C105.897 63.2349 105.952 63.0093 105.952 62.77C105.952 61.8677 105.22 61.1387 104.321 61.1387C103.421 61.1387 102.689 61.8704 102.689 62.77C102.689 63.6696 103.421 64.4013 104.321 64.4013C104.563 64.4013 104.794 64.3436 105 64.25L111.443 70.6929V94.3542L118.068 100.979C117.96 101.212 117.9 101.474 117.9 101.746C117.9 102.78 118.741 103.622 119.776 103.622L119.77 103.625ZM121.074 101.749C121.074 102.467 120.488 103.053 119.77 103.053C119.052 103.053 118.466 102.467 118.466 101.749C118.466 101.031 119.052 100.445 119.77 100.445C120.488 100.445 121.074 101.031 121.074 101.749Z" fill="white"/>
<path d="M151.533 78.0293L140.932 88.6309L141.334 89.0335L151.936 78.4319L151.533 78.0293Z" fill="white"/>
<path d="M116.991 78.4372L116.588 78.8398L127.189 89.4414L127.592 89.0388L116.991 78.4372Z" fill="white"/>
<path d="M153.434 27.4196V63.3586L134.829 81.9636V88.046H135.971V82.4367L154.576 63.8318V27.3811C155.772 27.084 156.666 26.0084 156.666 24.7209C156.666 23.2051 155.434 21.9727 153.918 21.9727C152.402 21.9727 151.17 23.2051 151.17 24.7209C151.17 26.0716 152.149 27.1913 153.437 27.4224L153.434 27.4196ZM153.915 22.7704C154.991 22.7704 155.866 23.6453 155.866 24.7209C155.866 25.7965 154.991 26.6714 153.915 26.6714C152.84 26.6714 151.965 25.7965 151.965 24.7209C151.965 23.6453 152.84 22.7704 153.915 22.7704Z" fill="white"/>
<path d="M120.973 11.1605C121.556 11.1605 122.095 10.9762 122.538 10.6654L128.824 16.9514V51.5176H129.622V16.6213L123.113 10.1124C123.487 9.642 123.718 9.05604 123.718 8.4123C123.718 6.89651 122.486 5.66406 120.97 5.66406C119.454 5.66406 118.222 6.89651 118.222 8.4123C118.222 9.9281 119.454 11.1605 120.97 11.1605H120.973ZM120.973 6.46185C122.048 6.46185 122.923 7.33667 122.923 8.4123C122.923 9.48794 122.048 10.3628 120.973 10.3628C119.897 10.3628 119.022 9.48794 119.022 8.4123C119.022 7.33667 119.897 6.46185 120.973 6.46185Z" fill="white"/>
<path d="M113.828 35.0549V63.8276L132.436 82.4325V88.0418H133.578V81.9594L114.97 63.3544V35.0962C116.255 34.8679 117.237 33.7455 117.237 32.3947C117.237 30.8789 116.004 29.6465 114.488 29.6465C112.973 29.6465 111.74 30.8789 111.74 32.3947C111.74 33.6822 112.634 34.7578 113.831 35.0549H113.828ZM114.486 30.4443C115.561 30.4443 116.436 31.3191 116.436 32.3947C116.436 33.4704 115.561 34.3452 114.486 34.3452C113.41 34.3452 112.535 33.4704 112.535 32.3947C112.535 31.3191 113.41 30.4443 114.486 30.4443Z" fill="white"/>
<path d="M101.185 26.6423L100.782 27.0449L107.834 34.0964L108.236 33.6938L101.185 26.6423Z" fill="white"/>
<path d="M100.778 21.863L100.375 22.2656L107.524 29.4144L107.926 29.0117L100.778 21.863Z" fill="white"/>
<path d="M138.029 66.4356C136.994 66.4356 136.152 67.2774 136.152 68.3118C136.152 69.3462 136.994 70.188 138.029 70.188C139.063 70.188 139.905 69.3462 139.905 68.3118C139.905 68.0147 139.83 67.7368 139.707 67.4892L148.843 58.3532C149.156 58.587 149.539 58.7328 149.96 58.7328C150.994 58.7328 151.836 57.891 151.836 56.8566C151.836 55.8223 150.994 54.9805 149.96 54.9805C148.925 54.9805 148.083 55.8223 148.083 56.8566C148.083 57.1813 148.174 57.4811 148.32 57.748L139.203 66.8648C138.881 66.6034 138.477 66.4384 138.029 66.4384V66.4356ZM138.029 69.6158C137.308 69.6158 136.725 69.0298 136.725 68.3118C136.725 67.5938 137.311 67.0078 138.029 67.0078C138.747 67.0078 139.332 67.5938 139.332 68.3118C139.332 69.0298 138.747 69.6158 138.029 69.6158ZM149.96 55.5499C150.68 55.5499 151.264 56.1359 151.264 56.8539C151.264 57.5719 150.678 58.1579 149.96 58.1579C149.242 58.1579 148.656 57.5719 148.656 56.8539C148.656 56.1359 149.242 55.5499 149.96 55.5499Z" fill="white"/>
<path d="M139.282 51.4624C138.96 51.2011 138.553 51.036 138.108 51.036C137.073 51.036 136.231 51.8778 136.231 52.9122C136.231 53.9466 137.073 54.7884 138.108 54.7884C139.142 54.7884 139.984 53.9466 139.984 52.9122C139.984 52.6151 139.91 52.34 139.786 52.0896L148.925 42.9508C149.238 43.1847 149.621 43.3305 150.041 43.3305C151.076 43.3305 151.918 42.4887 151.918 41.4543C151.918 40.4199 151.076 39.5781 150.041 39.5781C149.007 39.5781 148.165 40.4199 148.165 41.4543C148.165 41.7789 148.256 42.0788 148.399 42.3456L139.282 51.4624ZM138.108 54.2162C137.387 54.2162 136.804 53.6302 136.804 52.9122C136.804 52.1942 137.39 51.6082 138.108 51.6082C138.826 51.6082 139.412 52.1942 139.412 52.9122C139.412 53.6302 138.826 54.2162 138.108 54.2162ZM150.039 40.1503C150.759 40.1503 151.343 40.7363 151.343 41.4543C151.343 42.1723 150.757 42.7583 150.039 42.7583C149.321 42.7583 148.735 42.1723 148.735 41.4543C148.735 40.7363 149.321 40.1503 150.039 40.1503Z" fill="white"/>
<path d="M170.068 20.6642L163.664 27.0685C163.37 26.8759 163.018 26.7604 162.638 26.7604C161.604 26.7604 160.762 27.6022 160.762 28.6366C160.762 29.6709 161.604 30.5127 162.638 30.5127C163.672 30.5127 164.514 29.6709 164.514 28.6366C164.514 28.2707 164.404 27.9296 164.222 27.6407L170.641 21.2226C170.883 21.3629 171.158 21.4482 171.458 21.4482C172.36 21.4482 173.089 20.7165 173.089 19.8169C173.089 18.9173 172.357 18.1855 171.458 18.1855C170.558 18.1855 169.826 18.9173 169.826 19.8169C169.826 20.1277 169.917 20.4166 170.071 20.6642H170.068ZM162.641 29.9405C161.92 29.9405 161.337 29.3546 161.337 28.6366C161.337 27.9186 161.923 27.3326 162.641 27.3326C163.359 27.3326 163.945 27.9186 163.945 28.6366C163.945 29.3546 163.359 29.9405 162.641 29.9405Z" fill="white"/>
<path d="M159.534 17.3578C160.436 17.3578 161.165 16.626 161.165 15.7265C161.165 15.4073 161.069 15.113 160.912 14.8599L167.366 8.40606C167.655 8.58763 167.996 8.69767 168.362 8.69767C169.396 8.69767 170.238 7.85586 170.238 6.82149C170.238 5.78712 169.396 4.94531 168.362 4.94531C167.327 4.94531 166.485 5.78712 166.485 6.82149C166.485 7.20113 166.601 7.5505 166.794 7.84761L160.334 14.3069L160.348 14.3207C160.106 14.1804 159.831 14.0951 159.534 14.0951C158.631 14.0951 157.902 14.8269 157.902 15.7265C157.902 16.626 158.634 17.3578 159.534 17.3578ZM168.362 5.52027C169.082 5.52027 169.666 6.10623 169.666 6.82424C169.666 7.54225 169.08 8.12821 168.362 8.12821C167.644 8.12821 167.058 7.54225 167.058 6.82424C167.058 6.10623 167.644 5.52027 168.362 5.52027Z" fill="white"/>
<path d="M168.717 16.5852L161.665 23.6367L162.068 24.0394L169.119 16.9879L168.717 16.5852Z" fill="white"/>
<path d="M169.128 11.7907L161.979 18.9395L162.382 19.3421L169.531 12.1933L169.128 11.7907Z" fill="white"/>
<path d="M134.301 0.000234219L129.902 4.39844L130.305 4.8011L134.703 0.4029L134.301 0.000234219Z" fill="white"/>
<path d="M134.074 4.72289L129.676 9.12109L130.078 9.52376L134.477 5.12556L134.074 4.72289Z" fill="white"/>
<path d="M114.89 20.9001L114.487 21.3027L125.017 31.8323L125.42 31.4297L114.89 20.9001Z" fill="white"/>
<path d="M133.608 11.7578V75.7679C132.943 76.0045 132.464 76.6317 132.464 77.3772C132.464 78.3235 133.231 79.0911 134.178 79.0911C135.124 79.0911 135.892 78.3235 135.892 77.3772C135.892 76.6317 135.413 76.0045 134.747 75.7679V12.231L141.088 5.88992C141.55 6.24204 142.12 6.45937 142.744 6.45937C144.26 6.45937 145.493 5.22693 145.493 3.71113C145.493 2.19534 144.26 0.962891 142.744 0.962891C141.229 0.962891 139.996 2.19534 139.996 3.71113C139.996 4.18705 140.128 4.62996 140.343 5.02336L133.606 11.7605L133.608 11.7578ZM142.747 1.75793C143.823 1.75793 144.698 2.63274 144.698 3.70838C144.698 4.78402 143.823 5.65883 142.747 5.65883C141.671 5.65883 140.797 4.78402 140.797 3.70838C140.797 2.63274 141.671 1.75793 142.747 1.75793Z" fill="white"/>
</svg>
