<svg width="920" height="200" viewBox="0 0 920 200" fill="none" xmlns="http://www.w3.org/2000/svg">
<path d="M855.967 159.339C855.967 146.377 866.489 135.86 879.444 135.86C892.406 135.86 902.916 146.377 902.916 159.339C902.916 172.301 892.406 182.81 879.444 182.81C866.489 182.81 855.967 172.301 855.967 159.339Z" fill="#86BC24"/>
<path d="M107.199 97.1609C107.199 82.2899 104.326 71.2573 98.5788 64.0697C92.8244 56.889 84.1078 53.302 72.3893 53.302H59.9234V144.24H69.4609C82.4772 144.24 92.0158 140.381 98.0892 132.637C104.155 124.906 107.199 113.078 107.199 97.1609ZM151.656 95.6121C151.656 122.705 144.373 143.581 129.808 158.234C115.242 172.895 94.7672 180.225 68.3742 180.225H17.0898V17.8809H71.954C97.4025 17.8809 117.049 24.5452 130.894 37.8673C144.733 51.1962 151.656 70.4354 151.656 95.6121Z" fill="white"/>
<path d="M293.713 180.223H334.522V17.1997H293.713V180.223Z" fill="white"/>
<path d="M391.851 119.415C391.851 129.809 393.209 137.737 395.92 143.185C398.637 148.64 403.188 151.365 409.588 151.365C415.92 151.365 420.396 148.64 423.005 143.185C425.614 137.737 426.911 129.809 426.911 119.415C426.911 109.075 425.593 101.276 422.951 96.0111C420.301 90.7326 415.784 88.0898 409.378 88.0898C403.115 88.0898 398.637 90.7191 395.92 95.9501C393.209 101.188 391.851 109.007 391.851 119.415ZM468.447 119.415C468.447 139.218 463.256 154.666 452.849 165.74C442.448 176.82 427.89 182.363 409.174 182.363C391.226 182.363 376.938 176.697 366.334 165.366C355.716 154.034 350.41 138.722 350.41 119.415C350.41 99.673 355.608 84.3331 366.015 73.3955C376.422 62.458 391.015 56.9893 409.806 56.9893C421.416 56.9893 431.688 59.5234 440.587 64.5845C449.493 69.6457 456.369 76.8944 461.199 86.3373C466.036 95.7667 468.447 106.799 468.447 119.415Z" fill="white"/>
<path d="M484.652 180.224H525.468V117.832V59.1294H484.652V180.224Z" fill="white"/>
<path d="M484.652 44.4818H525.468V17.1924H484.652V44.4818Z" fill="white"/>
<path d="M608.158 149.337C613.668 149.337 620.229 147.938 627.885 145.159V175.628C622.383 178.046 617.152 179.779 612.179 180.805C607.207 181.844 601.371 182.36 594.693 182.36C580.99 182.36 571.112 178.916 565.046 172.041C559.006 165.166 555.976 154.609 555.976 140.363V90.4443H541.684V59.1398H555.976V28.2158L597.105 21.062V59.1398H623.145V90.4443H597.105V137.578C597.105 145.417 600.794 149.337 608.158 149.337Z" fill="white"/>
<path d="M702.62 149.337C708.129 149.337 714.693 147.938 722.349 145.159V175.628C716.853 178.046 711.614 179.779 706.641 180.805C701.662 181.844 695.846 182.36 689.155 182.36C675.452 182.36 665.575 178.916 659.522 172.041C653.469 165.166 650.44 154.609 650.44 140.363V90.4443H636.139V59.1398H650.44V27.747L691.56 21.062V59.1398H717.613V90.4443H691.56V137.578C691.56 145.417 695.249 149.337 702.62 149.337Z" fill="white"/>
<path d="M773.847 104.662C774.404 98.0317 776.3 93.1744 779.533 90.0697C782.781 86.9719 786.789 85.4231 791.585 85.4231C796.816 85.4231 800.974 87.162 804.058 90.6675C807.162 94.1526 808.779 98.8198 808.909 104.662H773.847ZM831.402 71.2655C821.701 61.7546 807.937 56.9922 790.131 56.9922C771.415 56.9922 757.013 62.4609 746.918 73.3984C736.829 84.336 731.781 100.029 731.781 120.478C731.781 140.281 737.237 155.552 748.12 166.272C759.01 176.993 774.302 182.36 793.996 182.36C803.453 182.36 811.592 181.714 818.413 180.43C825.193 179.16 831.755 176.863 838.121 173.548L831.85 146.259C827.224 148.147 822.821 149.601 818.664 150.559C812.658 151.952 806.069 152.652 798.895 152.652C791.029 152.652 784.819 150.729 780.267 146.884C775.716 143.032 773.29 137.72 773.012 130.953H845.96V112.359C845.96 94.472 841.109 80.7696 831.402 71.2655Z" fill="white"/>
<path d="M205.819 104.662C206.376 98.0317 208.272 93.1744 211.505 90.0697C214.746 86.9719 218.761 85.4231 223.565 85.4231C228.782 85.4231 232.939 87.162 236.03 90.6675C239.135 94.1526 240.745 98.8198 240.888 104.662H205.819ZM263.381 71.2655C253.673 61.7546 239.916 56.9922 222.104 56.9922C203.38 56.9922 188.985 62.4609 178.896 73.3984C168.808 84.336 163.754 100.029 163.754 120.478C163.754 140.281 169.203 155.552 180.099 166.272C190.983 176.993 206.274 182.36 225.969 182.36C235.425 182.36 243.564 181.714 250.384 180.43C257.164 179.16 263.728 176.863 270.1 173.548L263.823 146.259C259.196 148.147 254.794 149.601 250.643 150.559C244.624 151.952 238.041 152.652 230.866 152.652C223.007 152.652 216.792 150.729 212.24 146.884C207.681 143.032 205.263 137.72 204.985 130.953H277.933V112.359C277.933 94.472 273.082 80.7696 263.381 71.2655Z" fill="white"/>
</svg>
