<svg width="428" height="418" viewBox="0 0 428 418" fill="none" xmlns="http://www.w3.org/2000/svg">
<path d="M219.399 400.057C316.779 400.057 395.606 320.794 395.606 223.097C395.606 125.399 316.681 46.1367 219.399 46.1367C122.118 46.1367 43.1929 125.3 43.1929 222.998C43.1929 320.696 122.118 400.057 219.399 400.057Z" fill="url(#paint0_linear_3133_21036)" fill-opacity="0.3"/>
<path d="M314.521 87.2461H119.271C107.098 87.2461 97.2817 97.2032 97.2817 109.329H336.608C336.51 97.1046 326.694 87.2461 314.521 87.2461Z" fill="url(#paint1_linear_3133_21036)"/>
<path d="M97.2817 108.738H336.608V291.81C336.608 299.993 333.369 307.781 327.675 313.499C321.982 319.217 314.129 322.47 306.079 322.47H127.811C119.663 322.47 111.908 319.217 106.215 313.499C100.521 307.781 97.2817 299.894 97.2817 291.81V108.738Z" fill="url(#paint2_linear_3133_21036)"/>
<path d="M295.379 131.906H138.413C135.173 131.906 132.523 134.568 132.523 137.821C132.523 141.075 135.173 143.736 138.413 143.736H295.379C298.618 143.736 301.269 141.075 301.269 137.821C301.367 134.568 298.717 131.906 295.379 131.906Z" fill="url(#paint3_linear_3133_21036)"/>
<path d="M295.379 131.906H138.413C135.173 131.906 132.523 134.568 132.523 137.821C132.523 141.075 135.173 143.736 138.413 143.736H295.379C298.618 143.736 301.269 141.075 301.269 137.821C301.367 134.568 298.717 131.906 295.379 131.906Z" fill="url(#paint4_linear_3133_21036)"/>
<path d="M295.379 182.283H138.413C135.173 182.283 132.523 184.945 132.523 188.198C132.523 191.452 135.173 194.113 138.413 194.113H295.379C298.618 194.113 301.269 191.452 301.269 188.198C301.367 184.945 298.717 182.283 295.379 182.283Z" fill="url(#paint5_linear_3133_21036)"/>
<path d="M295.379 182.283H138.413C135.173 182.283 132.523 184.945 132.523 188.198C132.523 191.452 135.173 194.113 138.413 194.113H295.379C298.618 194.113 301.269 191.452 301.269 188.198C301.367 184.945 298.717 182.283 295.379 182.283Z" fill="url(#paint6_linear_3133_21036)"/>
<path d="M295.379 232.758H138.413C135.173 232.758 132.523 235.42 132.523 238.673C132.523 241.926 135.173 244.588 138.413 244.588H295.379C298.618 244.588 301.269 241.926 301.269 238.673C301.367 235.42 298.717 232.758 295.379 232.758Z" fill="url(#paint7_linear_3133_21036)"/>
<path d="M295.379 232.758H138.413C135.173 232.758 132.523 235.42 132.523 238.673C132.523 241.926 135.173 244.588 138.413 244.588H295.379C298.618 244.588 301.269 241.926 301.269 238.673C301.367 235.42 298.717 232.758 295.379 232.758Z" fill="url(#paint8_linear_3133_21036)"/>
<path d="M295.379 283.234H138.413C135.173 283.234 132.523 285.896 132.523 289.149C132.523 292.403 135.173 295.065 138.413 295.065H295.379C298.618 295.065 301.269 292.403 301.269 289.149C301.269 285.896 298.717 283.234 295.379 283.234Z" fill="url(#paint9_linear_3133_21036)"/>
<path d="M295.379 283.234H138.413C135.173 283.234 132.523 285.896 132.523 289.149C132.523 292.403 135.173 295.065 138.413 295.065H295.379C298.618 295.065 301.269 292.403 301.269 289.149C301.269 285.896 298.717 283.234 295.379 283.234Z" fill="url(#paint10_linear_3133_21036)"/>
<g filter="url(#filter0_d_3133_21036)">
<path d="M137.431 221.914H53.8927C47.2175 221.914 41.7202 227.336 41.7202 234.139V354.116C41.7202 360.82 47.1193 366.341 53.8927 366.341H137.431C144.106 366.341 149.604 360.919 149.604 354.116V234.139C149.506 227.435 144.106 221.914 137.431 221.914Z" fill="url(#paint11_linear_3133_21036)"/>
</g>
<g filter="url(#filter1_d_3133_21036)">
<path d="M375.285 34.5039H283.01C278.691 34.5039 275.255 38.053 275.255 42.2921V85.8666C275.255 90.2044 278.789 93.6549 283.01 93.6549H375.285C379.604 93.6549 383.04 90.1058 383.04 85.8666V42.3907C383.138 38.053 379.604 34.5039 375.285 34.5039Z" fill="url(#paint12_linear_3133_21036)"/>
</g>
<path d="M128.106 281.951H63.2186C61.059 281.951 59.292 283.726 59.292 285.895C59.292 288.063 61.059 289.838 63.2186 289.838H128.106C130.265 289.838 132.032 288.063 132.032 285.895C132.032 283.726 130.265 281.951 128.106 281.951Z" fill="white"/>
<path d="M128.106 337.947H63.7093C61.5497 337.947 59.7827 339.623 59.7827 341.792C59.7827 343.961 61.5497 345.637 63.7093 345.637H128.106C130.265 345.637 132.032 343.961 132.032 341.792C132.032 339.722 130.265 337.947 128.106 337.947Z" fill="white"/>
<path d="M128.106 308.668H63.7093C61.5497 308.668 59.7827 310.344 59.7827 312.513C59.7827 314.682 61.5497 316.358 63.7093 316.358H128.106C130.265 316.358 132.032 314.682 132.032 312.513C132.032 310.442 130.265 308.668 128.106 308.668Z" fill="white"/>
<path d="M86.8762 240.447H67.9303C63.7092 240.447 60.2734 243.898 60.2734 248.137V253.46C60.2734 257.7 63.7092 261.15 67.9303 261.15H86.8762C91.0973 261.15 94.5331 257.7 94.5331 253.46V248.137C94.5331 243.898 91.0973 240.447 86.8762 240.447Z" fill="white"/>
<path d="M298.029 73.1495C302.937 73.1495 306.962 69.1075 306.962 64.1783C306.962 59.249 302.937 55.207 298.029 55.207C293.121 55.207 289.096 59.249 289.096 64.1783C289.096 69.1075 293.023 73.1495 298.029 73.1495Z" fill="#0C8EC7"/>
<path d="M330.031 73.1495C334.939 73.1495 338.964 69.1075 338.964 64.1783C338.964 59.249 334.939 55.207 330.031 55.207C325.123 55.207 321.098 59.249 321.098 64.1783C321.098 69.1075 325.025 73.1495 330.031 73.1495Z" fill="#FFC453"/>
<path d="M362.033 73.1495C366.941 73.1495 370.966 69.1075 370.966 64.1783C370.966 59.249 366.941 55.207 362.033 55.207C357.125 55.207 353.1 59.249 353.1 64.1783C353.1 69.1075 357.027 73.1495 362.033 73.1495Z" fill="#FF9696"/>
<path d="M337.688 287.67L315.012 312.809L378.917 371.073L401.593 345.934L337.688 287.67Z" fill="url(#paint13_linear_3133_21036)"/>
<path d="M337.688 287.67L315.012 312.809L378.917 371.073L401.593 345.934L337.688 287.67Z" fill="url(#paint14_linear_3133_21036)"/>
<path fill-rule="evenodd" clip-rule="evenodd" d="M361.64 246.068C361.64 298.614 319.233 341.202 266.911 341.202C214.589 341.202 172.182 298.614 172.182 246.068C172.182 193.522 214.589 150.934 266.911 150.934C319.233 150.934 361.64 193.522 361.64 246.068ZM347.112 246.068C347.112 290.53 311.183 326.612 266.911 326.612C222.639 326.612 186.71 290.53 186.71 246.068C186.71 201.606 222.639 165.524 266.911 165.524C311.282 165.524 347.112 201.606 347.112 246.068Z" fill="url(#paint15_linear_3133_21036)"/>
<g filter="url(#filter2_b_3133_21036)">
<path d="M267.009 326.611C311.281 326.611 347.21 290.529 347.21 246.067C347.21 201.606 311.281 165.523 267.009 165.523C222.737 165.523 186.808 201.606 186.808 246.067C186.808 290.529 222.638 326.611 267.009 326.611Z" fill="url(#paint16_linear_3133_21036)" fill-opacity="0.2"/>
</g>
<path d="M286.25 246.067L309.22 222.998C311.38 220.73 312.558 217.674 312.46 214.519C312.46 211.365 311.184 208.407 308.926 206.14C306.668 203.872 303.723 202.689 300.582 202.591C297.44 202.591 294.397 203.774 292.14 205.844L269.169 228.913L246.198 205.844C245.118 204.661 243.744 203.774 242.272 203.084C240.799 202.393 239.229 202.098 237.56 202.098C235.989 202.098 234.32 202.393 232.848 202.985C231.375 203.576 230.001 204.464 228.823 205.647C227.645 206.83 226.762 208.111 226.173 209.689C225.584 211.167 225.289 212.745 225.289 214.421C225.289 215.998 225.682 217.674 226.271 219.153C226.958 220.632 227.841 221.913 229.019 223.096L251.99 246.165L229.314 269.135C228.136 270.22 227.252 271.6 226.565 273.079C225.878 274.558 225.584 276.135 225.584 277.811C225.584 279.388 225.878 281.064 226.467 282.543C227.056 284.022 227.94 285.402 229.117 286.585C230.295 287.768 231.572 288.655 233.142 289.247C234.615 289.838 236.185 290.134 237.854 290.134C239.425 290.134 241.094 289.74 242.566 289.148C244.039 288.458 245.413 287.571 246.493 286.388L269.463 263.319L292.434 286.388C294.692 288.458 297.735 289.542 300.778 289.345C303.821 289.247 306.766 287.965 308.926 285.796C311.085 283.627 312.362 280.67 312.46 277.614C312.558 274.558 311.478 271.6 309.417 269.234L286.25 246.067Z" fill="#FF9696"/>
<path d="M204.478 346.131C205.263 342.779 209.975 342.779 210.76 346.131L213.411 357.271C213.705 358.454 214.589 359.341 215.767 359.637L226.859 362.299C230.197 363.088 230.197 367.82 226.859 368.608L215.767 371.27C214.589 371.566 213.705 372.453 213.411 373.636L210.76 384.776C209.975 388.128 205.263 388.128 204.478 384.776L201.827 373.636C201.533 372.453 200.649 371.566 199.471 371.27L188.379 368.608C185.041 367.82 185.041 363.088 188.379 362.299L199.471 359.637C200.649 359.341 201.533 358.454 201.827 357.271L204.478 346.131Z" fill="url(#paint17_linear_3133_21036)"/>
<path d="M204.478 346.131C205.263 342.779 209.975 342.779 210.76 346.131L213.411 357.271C213.705 358.454 214.589 359.341 215.767 359.637L226.859 362.299C230.197 363.088 230.197 367.82 226.859 368.608L215.767 371.27C214.589 371.566 213.705 372.453 213.411 373.636L210.76 384.776C209.975 388.128 205.263 388.128 204.478 384.776L201.827 373.636C201.533 372.453 200.649 371.566 199.471 371.27L188.379 368.608C185.041 367.82 185.041 363.088 188.379 362.299L199.471 359.637C200.649 359.341 201.533 358.454 201.827 357.271L204.478 346.131Z" fill="url(#paint18_linear_3133_21036)"/>
<path d="M76.9617 49.7854C77.747 46.4335 82.4589 46.4335 83.2442 49.7854L85.8947 60.9255C86.1892 62.1085 87.0727 62.9958 88.2507 63.2915L99.3433 65.9533C102.681 66.742 102.681 71.4741 99.3433 72.2628L88.2507 74.9246C87.0727 75.2203 86.1892 76.1076 85.8947 77.2906L83.2442 88.4307C82.4589 91.7826 77.747 91.7826 76.9617 88.4307L74.3112 77.2906C74.0167 76.1076 73.1332 75.2203 71.9552 74.9246L60.8626 72.2628C57.525 71.4741 57.525 66.742 60.8626 65.9533L71.9552 63.2915C73.1332 62.9958 74.0167 62.1085 74.3112 60.9255L76.9617 49.7854Z" fill="url(#paint19_linear_3133_21036)"/>
<path d="M76.9617 49.7854C77.747 46.4335 82.4589 46.4335 83.2442 49.7854L85.8947 60.9255C86.1892 62.1085 87.0727 62.9958 88.2507 63.2915L99.3433 65.9533C102.681 66.742 102.681 71.4741 99.3433 72.2628L88.2507 74.9246C87.0727 75.2203 86.1892 76.1076 85.8947 77.2906L83.2442 88.4307C82.4589 91.7826 77.747 91.7826 76.9617 88.4307L74.3112 77.2906C74.0167 76.1076 73.1332 75.2203 71.9552 74.9246L60.8626 72.2628C57.525 71.4741 57.525 66.742 60.8626 65.9533L71.9552 63.2915C73.1332 62.9958 74.0167 62.1085 74.3112 60.9255L76.9617 49.7854Z" fill="url(#paint20_linear_3133_21036)"/>
<path fill-rule="evenodd" clip-rule="evenodd" d="M212.429 51.6578C215.374 51.6578 217.828 49.1932 217.828 46.2356C217.828 43.2781 215.374 40.8135 212.429 40.8135C209.484 40.8135 207.03 43.2781 207.03 46.2356C207.03 49.1932 209.386 51.6578 212.429 51.6578ZM212.429 55.6998C217.632 55.6998 221.853 51.4606 221.853 46.2356C221.853 41.0106 217.632 36.7715 212.429 36.7715C207.226 36.7715 203.005 41.0106 203.005 46.2356C203.005 51.4606 207.226 55.6998 212.429 55.6998Z" fill="url(#paint21_linear_3133_21036)"/>
<path fill-rule="evenodd" clip-rule="evenodd" d="M212.429 51.6578C215.374 51.6578 217.828 49.1932 217.828 46.2356C217.828 43.2781 215.374 40.8135 212.429 40.8135C209.484 40.8135 207.03 43.2781 207.03 46.2356C207.03 49.1932 209.386 51.6578 212.429 51.6578ZM212.429 55.6998C217.632 55.6998 221.853 51.4606 221.853 46.2356C221.853 41.0106 217.632 36.7715 212.429 36.7715C207.226 36.7715 203.005 41.0106 203.005 46.2356C203.005 51.4606 207.226 55.6998 212.429 55.6998Z" fill="url(#paint22_linear_3133_21036)"/>
<path d="M379.703 200.423C379.212 198.451 381.077 196.578 383.041 197.17L396.489 201.014C398.453 201.606 399.14 204.07 397.667 205.549L387.654 215.309C386.182 216.788 383.728 216.098 383.139 214.028L379.703 200.423Z" fill="url(#paint23_linear_3133_21036)"/>
<path d="M379.703 200.423C379.212 198.451 381.077 196.578 383.041 197.17L396.489 201.014C398.453 201.606 399.14 204.07 397.667 205.549L387.654 215.309C386.182 216.788 383.728 216.098 383.139 214.028L379.703 200.423Z" fill="url(#paint24_linear_3133_21036)"/>
<path d="M64.2983 177.256C66.2616 176.763 68.1268 178.636 67.5378 180.607L63.7093 194.114C63.1203 196.085 60.6662 196.775 59.1937 195.297L49.4754 185.241C48.0029 183.762 48.6901 181.298 50.7515 180.706L64.2983 177.256Z" fill="url(#paint25_linear_3133_21036)"/>
<path d="M64.2983 177.256C66.2616 176.763 68.1268 178.636 67.5378 180.607L63.7093 194.114C63.1203 196.085 60.6662 196.775 59.1937 195.297L49.4754 185.241C48.0029 183.762 48.6901 181.298 50.7515 180.706L64.2983 177.256Z" fill="url(#paint26_linear_3133_21036)"/>
<path d="M320.902 363.974C322.865 363.481 324.73 365.355 324.141 367.326L320.313 380.832C319.724 382.804 317.27 383.494 315.797 382.015L306.079 371.96C304.606 370.481 305.294 368.016 307.355 367.425L320.902 363.974Z" fill="url(#paint27_linear_3133_21036)"/>
<path d="M320.902 363.974C322.865 363.481 324.73 365.355 324.141 367.326L320.313 380.832C319.724 382.804 317.27 383.494 315.797 382.015L306.079 371.96C304.606 370.481 305.294 368.016 307.355 367.425L320.902 363.974Z" fill="url(#paint28_linear_3133_21036)"/>
<path fill-rule="evenodd" clip-rule="evenodd" d="M392.17 130.328C395.115 130.328 397.569 127.863 397.569 124.906C397.569 121.948 395.115 119.483 392.17 119.483C389.225 119.483 386.771 121.948 386.771 124.906C386.771 127.863 389.225 130.328 392.17 130.328ZM392.17 134.37C397.373 134.37 401.594 130.131 401.594 124.906C401.594 119.681 397.373 115.441 392.17 115.441C386.967 115.441 382.746 119.681 382.746 124.906C382.746 130.131 386.967 134.37 392.17 134.37Z" fill="url(#paint29_linear_3133_21036)"/>
<path fill-rule="evenodd" clip-rule="evenodd" d="M392.17 130.328C395.115 130.328 397.569 127.863 397.569 124.906C397.569 121.948 395.115 119.483 392.17 119.483C389.225 119.483 386.771 121.948 386.771 124.906C386.771 127.863 389.225 130.328 392.17 130.328ZM392.17 134.37C397.373 134.37 401.594 130.131 401.594 124.906C401.594 119.681 397.373 115.441 392.17 115.441C386.967 115.441 382.746 119.681 382.746 124.906C382.746 130.131 386.967 134.37 392.17 134.37Z" fill="url(#paint30_linear_3133_21036)"/>
<path d="M378.917 370.975L401.594 345.836L405.029 348.991C408.367 352.047 410.33 356.187 410.527 360.722C410.723 365.257 409.152 369.595 406.207 372.947C403.164 376.299 399.041 378.27 394.526 378.468C390.01 378.665 385.691 377.087 382.353 374.13L378.917 370.975Z" fill="#0C8EC7"/>
<defs>
<filter id="filter0_d_3133_21036" x="14.7202" y="198.914" width="167.883" height="204.428" filterUnits="userSpaceOnUse" color-interpolation-filters="sRGB">
<feFlood flood-opacity="0" result="BackgroundImageFix"/>
<feColorMatrix in="SourceAlpha" type="matrix" values="0 0 0 0 0 0 0 0 0 0 0 0 0 0 0 0 0 0 127 0" result="hardAlpha"/>
<feOffset dx="3" dy="7"/>
<feGaussianBlur stdDeviation="15"/>
<feColorMatrix type="matrix" values="0 0 0 0 0.105882 0 0 0 0 0.466667 0 0 0 0 0.545098 0 0 0 0.15 0"/>
<feBlend mode="normal" in2="BackgroundImageFix" result="effect1_dropShadow_3133_21036"/>
<feBlend mode="normal" in="SourceGraphic" in2="effect1_dropShadow_3133_21036" result="shape"/>
</filter>
<filter id="filter1_d_3133_21036" x="255.255" y="12.5039" width="159.787" height="111.15" filterUnits="userSpaceOnUse" color-interpolation-filters="sRGB">
<feFlood flood-opacity="0" result="BackgroundImageFix"/>
<feColorMatrix in="SourceAlpha" type="matrix" values="0 0 0 0 0 0 0 0 0 0 0 0 0 0 0 0 0 0 127 0" result="hardAlpha"/>
<feOffset dx="6" dy="4"/>
<feGaussianBlur stdDeviation="13"/>
<feColorMatrix type="matrix" values="0 0 0 0 0.105882 0 0 0 0 0.466667 0 0 0 0 0.545098 0 0 0 0.09 0"/>
<feBlend mode="normal" in2="BackgroundImageFix" result="effect1_dropShadow_3133_21036"/>
<feBlend mode="normal" in="SourceGraphic" in2="effect1_dropShadow_3133_21036" result="shape"/>
</filter>
<filter id="filter2_b_3133_21036" x="171.808" y="150.523" width="190.402" height="191.088" filterUnits="userSpaceOnUse" color-interpolation-filters="sRGB">
<feFlood flood-opacity="0" result="BackgroundImageFix"/>
<feGaussianBlur in="BackgroundImageFix" stdDeviation="7.5"/>
<feComposite in2="SourceAlpha" operator="in" result="effect1_backgroundBlur_3133_21036"/>
<feBlend mode="normal" in="SourceGraphic" in2="effect1_backgroundBlur_3133_21036" result="shape"/>
</filter>
<linearGradient id="paint0_linear_3133_21036" x1="219.399" y1="46.1367" x2="150.844" y2="534.062" gradientUnits="userSpaceOnUse">
<stop stop-color="#D7F3FF"/>
<stop offset="1" stop-color="#3FB0E1"/>
</linearGradient>
<linearGradient id="paint1_linear_3133_21036" x1="97.1835" y1="109.428" x2="173.22" y2="215.631" gradientUnits="userSpaceOnUse">
<stop stop-color="#D7F3FF"/>
<stop offset="1" stop-color="#3FB0E1"/>
</linearGradient>
<linearGradient id="paint2_linear_3133_21036" x1="97.1834" y1="215.899" x2="340.51" y2="366.24" gradientUnits="userSpaceOnUse">
<stop stop-color="white"/>
<stop offset="1" stop-color="#B9EAFF"/>
</linearGradient>
<linearGradient id="paint3_linear_3133_21036" x1="125.396" y1="137.821" x2="311.311" y2="137.821" gradientUnits="userSpaceOnUse">
<stop stop-color="#65C8DE"/>
<stop offset="1" stop-color="#D2F7FF"/>
</linearGradient>
<linearGradient id="paint4_linear_3133_21036" x1="132.454" y1="143.789" x2="168.577" y2="210.198" gradientUnits="userSpaceOnUse">
<stop stop-color="#D7F3FF"/>
<stop offset="1" stop-color="#3FB0E1"/>
</linearGradient>
<linearGradient id="paint5_linear_3133_21036" x1="2.30035e-05" y1="188.198" x2="0.981674" y2="188.198" gradientUnits="userSpaceOnUse">
<stop stop-color="#0C8EC7"/>
<stop offset="1" stop-color="#D2F7FF"/>
</linearGradient>
<linearGradient id="paint6_linear_3133_21036" x1="132.454" y1="194.166" x2="168.577" y2="260.575" gradientUnits="userSpaceOnUse">
<stop stop-color="#D7F3FF"/>
<stop offset="1" stop-color="#3FB0E1"/>
</linearGradient>
<linearGradient id="paint7_linear_3133_21036" x1="2.30035e-05" y1="238.673" x2="0.981674" y2="238.673" gradientUnits="userSpaceOnUse">
<stop stop-color="#0C8EC7"/>
<stop offset="1" stop-color="#D2F7FF"/>
</linearGradient>
<linearGradient id="paint8_linear_3133_21036" x1="132.454" y1="244.641" x2="168.577" y2="311.049" gradientUnits="userSpaceOnUse">
<stop stop-color="#D7F3FF"/>
<stop offset="1" stop-color="#3FB0E1"/>
</linearGradient>
<linearGradient id="paint9_linear_3133_21036" x1="1.21364e-05" y1="289.149" x2="311.311" y2="289.149" gradientUnits="userSpaceOnUse">
<stop stop-color="#65C8DE"/>
<stop offset="1" stop-color="#D2F7FF"/>
</linearGradient>
<linearGradient id="paint10_linear_3133_21036" x1="132.454" y1="295.117" x2="168.577" y2="361.525" gradientUnits="userSpaceOnUse">
<stop stop-color="#D7F3FF"/>
<stop offset="1" stop-color="#3FB0E1"/>
</linearGradient>
<linearGradient id="paint11_linear_3133_21036" x1="48.1009" y1="310.049" x2="210.604" y2="323.9" gradientUnits="userSpaceOnUse">
<stop stop-color="#D7F3FF"/>
<stop offset="1" stop-color="#3FB0E1"/>
</linearGradient>
<linearGradient id="paint12_linear_3133_21036" x1="275.211" y1="93.9189" x2="491.905" y2="145.417" gradientUnits="userSpaceOnUse">
<stop stop-color="#D7F3FF"/>
<stop offset="1" stop-color="#3FB0E1"/>
</linearGradient>
<linearGradient id="paint13_linear_3133_21036" x1="346.906" y1="341.931" x2="369.895" y2="316.821" gradientUnits="userSpaceOnUse">
<stop stop-color="#90E3F5"/>
<stop offset="1" stop-color="#65C8DE"/>
</linearGradient>
<linearGradient id="paint14_linear_3133_21036" x1="314.976" y1="371.445" x2="394.722" y2="382.114" gradientUnits="userSpaceOnUse">
<stop stop-color="#D7F3FF"/>
<stop offset="1" stop-color="#3FB0E1"/>
</linearGradient>
<linearGradient id="paint15_linear_3133_21036" x1="172.104" y1="342.052" x2="346.849" y2="364.477" gradientUnits="userSpaceOnUse">
<stop stop-color="#D7F3FF"/>
<stop offset="1" stop-color="#3FB0E1"/>
</linearGradient>
<linearGradient id="paint16_linear_3133_21036" x1="240.092" y1="175.954" x2="321.494" y2="386.268" gradientUnits="userSpaceOnUse">
<stop stop-color="white"/>
<stop offset="1" stop-color="#D2F7FF"/>
</linearGradient>
<linearGradient id="paint17_linear_3133_21036" x1="175.146" y1="365.247" x2="240.131" y2="365.657" gradientUnits="userSpaceOnUse">
<stop stop-color="#90E3F5"/>
<stop offset="1" stop-color="#65C8DE"/>
</linearGradient>
<linearGradient id="paint18_linear_3133_21036" x1="185.858" y1="387.485" x2="225.968" y2="392.633" gradientUnits="userSpaceOnUse">
<stop stop-color="#D7F3FF"/>
<stop offset="1" stop-color="#3FB0E1"/>
</linearGradient>
<linearGradient id="paint19_linear_3133_21036" x1="47.6201" y1="68.901" x2="112.605" y2="69.3116" gradientUnits="userSpaceOnUse">
<stop stop-color="#90E3F5"/>
<stop offset="1" stop-color="#65C8DE"/>
</linearGradient>
<linearGradient id="paint20_linear_3133_21036" x1="58.3415" y1="91.1396" x2="98.4515" y2="96.2869" gradientUnits="userSpaceOnUse">
<stop stop-color="#D7F3FF"/>
<stop offset="1" stop-color="#3FB0E1"/>
</linearGradient>
<linearGradient id="paint21_linear_3133_21036" x1="202.937" y1="46.1765" x2="221.892" y2="46.2938" gradientUnits="userSpaceOnUse">
<stop stop-color="#90E3F5"/>
<stop offset="1" stop-color="#65C8DE"/>
</linearGradient>
<linearGradient id="paint22_linear_3133_21036" x1="202.998" y1="55.7843" x2="220.382" y2="58.0152" gradientUnits="userSpaceOnUse">
<stop stop-color="#D7F3FF"/>
<stop offset="1" stop-color="#3FB0E1"/>
</linearGradient>
<linearGradient id="paint23_linear_3133_21036" x1="376.837" y1="213.554" x2="396.422" y2="194.769" gradientUnits="userSpaceOnUse">
<stop stop-color="#90E3F5"/>
<stop offset="1" stop-color="#65C8DE"/>
</linearGradient>
<linearGradient id="paint24_linear_3133_21036" x1="379.616" y1="216.185" x2="396.993" y2="218.4" gradientUnits="userSpaceOnUse">
<stop stop-color="#D7F3FF"/>
<stop offset="1" stop-color="#3FB0E1"/>
</linearGradient>
<linearGradient id="paint25_linear_3133_21036" x1="51.1933" y1="174.328" x2="70.0359" y2="193.856" gradientUnits="userSpaceOnUse">
<stop stop-color="#90E3F5"/>
<stop offset="1" stop-color="#65C8DE"/>
</linearGradient>
<linearGradient id="paint26_linear_3133_21036" x1="48.6802" y1="196.177" x2="66.1643" y2="198.435" gradientUnits="userSpaceOnUse">
<stop stop-color="#D7F3FF"/>
<stop offset="1" stop-color="#3FB0E1"/>
</linearGradient>
<linearGradient id="paint27_linear_3133_21036" x1="307.787" y1="361.036" x2="326.63" y2="380.565" gradientUnits="userSpaceOnUse">
<stop stop-color="#90E3F5"/>
<stop offset="1" stop-color="#65C8DE"/>
</linearGradient>
<linearGradient id="paint28_linear_3133_21036" x1="305.284" y1="382.895" x2="322.768" y2="385.154" gradientUnits="userSpaceOnUse">
<stop stop-color="#D7F3FF"/>
<stop offset="1" stop-color="#3FB0E1"/>
</linearGradient>
<linearGradient id="paint29_linear_3133_21036" x1="382.707" y1="124.846" x2="401.663" y2="124.964" gradientUnits="userSpaceOnUse">
<stop stop-color="#90E3F5"/>
<stop offset="1" stop-color="#65C8DE"/>
</linearGradient>
<linearGradient id="paint30_linear_3133_21036" x1="382.738" y1="134.454" x2="400.122" y2="136.685" gradientUnits="userSpaceOnUse">
<stop stop-color="#D7F3FF"/>
<stop offset="1" stop-color="#3FB0E1"/>
</linearGradient>
</defs>
</svg>