<svg width="79" height="13" viewBox="0 0 79 13" fill="none" xmlns="http://www.w3.org/2000/svg">
    <path d="M6.45679 1.06401C5.55546 0.918885 5.21132 0.574219 3.68725 0.574219C2.93341 0.574219 1.96653 0.846325 1.29464 1.44496C0.671899 1.98917 0.229429 2.84176 0.229429 3.7125C0.229429 4.41997 0.393307 5.27257 0.770226 5.81678C1.52406 6.94148 2.88425 7.57639 3.58893 8.10246C4.34276 8.68295 5.08021 9.40857 5.08021 10.4244C5.08021 11.3314 4.37554 11.9301 3.37589 11.9301C2.2779 11.9301 1.14715 10.9324 0.81939 9.28159C0.540797 9.17274 0.262205 9.26345 0 9.33601C0 10.6965 0.131102 11.658 0.311368 12.3292C1.24547 12.3292 1.27825 12.692 3.55615 12.692C4.55581 12.692 5.34242 12.3836 6.03071 11.7124C6.60428 11.1319 7.14508 10.2974 7.14508 9.17274C7.14508 8.22945 6.76816 7.59453 6.29291 6.9959C5.65379 6.21587 4.73607 5.65352 4.09695 5.29071C3.44144 4.9279 2.2779 3.9846 2.2779 2.95061C2.2779 1.93475 2.8187 1.31797 3.67087 1.31797C5.06383 1.31797 5.52269 2.71478 5.81767 3.91204C6.0471 3.9846 6.45679 3.9846 6.63706 3.82134C6.63706 2.8599 6.5715 2.11615 6.45679 1.06401Z" fill="#2F486F"/>
    <path d="M21.1496 12.692C22.7393 12.692 24.1978 11.8575 25.3121 10.243C25.2302 10.0798 24.9516 9.86208 24.7713 9.86208C23.6078 11.277 22.2804 11.7487 21.1333 11.7487C19.2323 11.7487 17.7246 9.28159 17.7246 6.45169C17.7246 3.63994 19.0356 1.31797 20.9858 1.31797C23.2473 1.31797 23.9847 2.73292 24.4108 4.29299C24.6075 4.36555 24.9188 4.31113 25.1155 4.20229C25.0335 3.25899 24.9024 2.38825 24.755 1.39053C23.9192 1.29983 23.1817 0.574219 21.166 0.574219C17.954 0.574219 15.25 2.80548 15.25 6.79636C15.25 8.50155 15.9055 10.5151 17.233 11.5491C18.2818 12.3836 19.56 12.692 21.1496 12.692Z" fill="#2F486F"/>
    <path d="M36.7626 3.04131C36.7626 1.53566 37.0085 1.44496 38.2703 1.39053C38.3686 1.28169 38.3686 0.882605 38.2703 0.773763C37.4673 0.791903 36.3693 0.810043 35.5991 0.810043C34.8453 0.810043 34.0259 0.791903 33.2065 0.773763C33.1082 0.882605 33.1082 1.28169 33.2065 1.39053C34.1898 1.44496 34.4683 1.53566 34.4683 3.04131V8.22945C34.4683 9.98906 34.96 11.277 35.8941 11.9301C36.9101 12.6738 38.4178 12.692 39.2044 12.692C42.5639 12.692 43.6291 10.3881 43.6291 7.15917V3.04131C43.6291 1.53566 43.9241 1.49938 44.891 1.39053C44.9893 1.28169 44.9893 0.882605 44.891 0.773763C44.2519 0.791903 43.58 0.810043 43.1375 0.810043C42.6459 0.810043 41.7937 0.791903 41.0562 0.773763C40.9579 0.882605 40.9579 1.28169 41.0562 1.39053C42.2853 1.51752 42.5639 1.53566 42.5639 3.04131V7.48569C42.5639 9.51741 42.3181 11.9301 39.5486 11.9301C38.7619 11.9301 38.09 11.5491 37.5984 11.0231C36.7954 10.1705 36.7626 8.80994 36.7626 7.63081V3.04131Z" fill="#2F486F"/>
    <path d="M55.8395 2.31569C55.8395 1.78962 55.9214 1.53566 56.9866 1.53566C57.7405 1.53566 58.6582 1.86218 58.6582 3.63994C58.6582 5.09117 57.9207 5.6898 56.7572 5.6898H55.8395V2.31569ZM55.8395 6.45169H57.003C58.691 6.45169 59.4284 7.55825 59.4284 9.11832C59.4284 10.2067 59.0843 11.785 56.9211 11.785C55.9378 11.785 55.8395 11.5128 55.8395 10.9868V6.45169ZM54.7087 0.810043C54.0532 0.810043 52.185 0.773763 52.185 0.773763C52.0211 0.882605 52.0211 1.28169 52.185 1.39053C53.0863 1.44496 53.5452 1.51752 53.5452 3.02317V10.2974C53.5452 11.8031 53.0863 11.8757 52.185 11.9301C52.0211 12.0389 52.0211 12.438 52.185 12.5468C52.185 12.5468 54.0532 12.5106 54.7087 12.5106C55.3642 12.5106 56.4131 12.5468 57.3963 12.5468C60.7558 12.5468 61.8374 10.9868 61.8374 9.13646C61.8374 7.54011 61.1163 6.50611 59.3792 5.99818V5.9619C60.2642 5.52653 60.9525 4.52881 60.9525 3.60366C60.9525 2.35197 60.3297 0.773763 57.0358 0.773763C56.2164 0.773763 55.2167 0.810043 54.7087 0.810043Z" fill="#2F486F"/>
    <path d="M74.7176 5.88934H73.3902V2.46082C73.3902 2.02545 73.6688 1.57194 74.0621 1.57194H75.4551C76.6841 1.57194 77.0283 2.26127 77.3888 3.51296C77.5855 3.54924 77.9296 3.51296 78.0935 3.42225C78.0116 2.6785 77.9296 0.937026 77.8968 0.791903C77.8968 0.755623 77.8805 0.737482 77.8313 0.737482C77.5527 0.791903 77.4216 0.810043 77.0283 0.810043H72.1939C72.1939 0.810043 70.4896 0.791903 69.6702 0.773763C69.5718 0.882605 69.5718 1.28169 69.6702 1.39053C70.8173 1.44496 71.0959 1.53566 71.0959 3.04131V10.2974C71.0959 11.8031 70.8173 11.8757 69.6702 11.9301C69.5718 12.0389 69.5718 12.438 69.6702 12.5468C70.4732 12.5287 72.2103 12.5106 72.2103 12.5106H76.0614C76.848 12.5106 78.3229 12.5468 78.3229 12.5468C78.5524 11.6398 78.6343 10.4426 78.7654 9.51741C78.5851 9.42671 78.241 9.37229 78.0279 9.42671C77.7002 10.7328 76.9627 11.7487 75.7173 11.7487H74.0621C73.7016 11.7487 73.3902 11.3677 73.3902 10.8779V6.7238H74.7176C75.8484 6.7238 76.1597 7.06846 76.2089 7.88478C76.3072 7.99362 76.8152 7.99362 76.9136 7.88478C76.8972 7.24987 76.8808 6.92334 76.8808 6.28843C76.8808 5.6898 76.8972 5.27257 76.9136 4.72836C76.8152 4.61952 76.3072 4.61952 76.2089 4.72836C76.1597 5.72608 75.8156 5.88934 74.7176 5.88934Z" fill="#2F486F"/>
    </svg>
    