<svg width="219" height="200" viewBox="0 0 219 200" fill="none" xmlns="http://www.w3.org/2000/svg">
<path d="M155 159.339C155 146.377 165.522 135.86 178.477 135.86C191.439 135.86 201.95 146.377 201.95 159.339C201.95 172.301 191.439 182.81 178.477 182.81C165.522 182.81 155 172.301 155 159.339Z" fill="#86BC24"/>
<path d="M107.199 97.1609C107.199 82.2899 104.326 71.2573 98.5788 64.0697C92.8244 56.889 84.1078 53.302 72.3893 53.302H59.9234V144.24H69.4609C82.4772 144.24 92.0158 140.381 98.0892 132.637C104.155 124.906 107.199 113.078 107.199 97.1609ZM151.656 95.6121C151.656 122.705 144.373 143.581 129.808 158.234C115.242 172.895 94.7672 180.225 68.3742 180.225H17.0898V17.8809H71.954C97.4025 17.8809 117.049 24.5452 130.894 37.8673C144.733 51.1962 151.656 70.4354 151.656 95.6121Z" fill="white"/>
</svg>
