<svg width="100" height="101" viewBox="0 0 100 101" fill="none" xmlns="http://www.w3.org/2000/svg">
<g clip-path="url(#clip0_59_1157)">
<path d="M0 49.0216L8.93958 40.082V49.0216H0Z" fill="#135431"/>
<path d="M99.9999 49.0216L91.0603 40.082V49.0216H99.9999Z" fill="#135431"/>
<path d="M70.8333 0.5H13.6166C10.6978 0.5 8.33325 2.83125 8.33325 5.70833V95.2917C8.33325 98.1687 10.6978 100.5 13.6166 100.5H86.3833C89.302 100.5 91.6666 98.1687 91.6666 95.2917V21.3333L70.8333 0.5Z" fill="#35BD73"/>
<path d="M70.8333 0.5L91.6666 21.3333H70.8333V0.5Z" fill="#D9FFEB"/>
<path d="M0 49.0215H100V86.5215H0V49.0215Z" fill="#229456"/>
<path d="M91.6666 21.334V42.1673L70.8333 21.334H91.6666Z" fill="#1B9754"/>
<path d="M43.6417 20.6445H18.7501C17.5995 20.6445 16.6667 21.5773 16.6667 22.7279C16.6667 23.8785 17.5995 24.8112 18.7501 24.8112H43.6417C44.7923 24.8112 45.7251 23.8785 45.7251 22.7279C45.7251 21.5773 44.7923 20.6445 43.6417 20.6445Z" fill="#D9FFEB"/>
<path d="M62.5001 28.584H18.7501C17.5995 28.584 16.6667 29.5167 16.6667 30.6673C16.6667 31.8179 17.5995 32.7507 18.7501 32.7507H62.5001C63.6507 32.7507 64.5834 31.8179 64.5834 30.6673C64.5834 29.5167 63.6507 28.584 62.5001 28.584Z" fill="#D9FFEB"/>
<path d="M62.5001 36.5215H18.7501C17.5995 36.5215 16.6667 37.4542 16.6667 38.6048C16.6667 39.7554 17.5995 40.6882 18.7501 40.6882H62.5001C63.6507 40.6882 64.5834 39.7554 64.5834 38.6048C64.5834 37.4542 63.6507 36.5215 62.5001 36.5215Z" fill="#D9FFEB"/>
<path d="M32.2459 64.0475L35.8772 56.6621H41.9959L35.7855 67.6788L42.1647 78.8788H35.9855L32.248 71.3559L28.5105 78.8788H22.3459L28.7084 67.6788L22.5126 56.6621H28.6168L32.248 64.0475H32.2459Z" fill="white"/>
<path d="M49.2605 74.7599H58.5835V78.8807H43.9043V56.6641H49.2605V74.762V74.7599Z" fill="white"/>
<path d="M72.3001 72.9742C72.3001 72.1909 72.023 71.5805 71.4688 71.143C70.9147 70.7055 69.9397 70.2534 68.5459 69.7846C67.1522 69.3159 66.0126 68.8638 65.1272 68.4263C62.248 67.0117 60.8084 65.0701 60.8084 62.5971C60.8084 61.3659 61.1668 60.2805 61.8834 59.3388C62.6001 58.3971 63.6147 57.6659 64.9272 57.1409C66.2397 56.618 67.7147 56.3555 69.3522 56.3555C70.9897 56.3555 72.3813 56.6409 73.648 57.2096C74.9147 57.7805 75.898 58.5909 76.6001 59.643C77.3022 60.6951 77.6522 61.8992 77.6522 63.2513H72.3126C72.3126 62.3451 72.0355 61.6451 71.4813 61.1451C70.9272 60.6471 70.1772 60.3971 69.2313 60.3971C68.2855 60.3971 67.5188 60.6076 66.9647 61.0305C66.4105 61.4534 66.1334 61.9888 66.1334 62.6409C66.1334 63.2117 66.4376 63.7263 67.048 64.1888C67.6584 64.6513 68.7313 65.1305 70.2667 65.6221C71.8022 66.1159 73.0647 66.6471 74.0501 67.2159C76.4501 68.5992 77.6522 70.5076 77.6522 72.9388C77.6522 74.8826 76.9188 76.4076 75.4542 77.5159C73.9897 78.6242 71.9792 79.1784 69.4272 79.1784C67.6272 79.1784 65.9959 78.8555 64.5376 78.2096C63.0772 77.5638 61.9792 76.6784 61.2417 75.5555C60.5042 74.4326 60.1355 73.1367 60.1355 71.6721H65.5063C65.5063 72.8617 65.8147 73.7388 66.4292 74.3034C67.0438 74.868 68.0438 75.1513 69.4272 75.1513C70.3126 75.1513 71.0105 74.9596 71.5251 74.5784C72.0376 74.1971 72.2959 73.6596 72.2959 72.968L72.3001 72.9742Z" fill="white"/>
</g>
<defs>
<clipPath id="clip0_59_1157">
<rect width="100" height="100" fill="white" transform="translate(0 0.5)"/>
</clipPath>
</defs>
</svg>
