<svg width="24" height="24" viewBox="0 0 24 24" fill="none" xmlns="http://www.w3.org/2000/svg">
<path fill-rule="evenodd" clip-rule="evenodd" d="M16.1608 8.23285C16.1608 10.5825 14.2876 12.4666 11.9515 12.4666C9.61537 12.4666 7.74219 10.5825 7.74219 8.23285C7.74219 5.88227 9.61537 4 11.9515 4C14.2876 4 16.1608 5.88227 16.1608 8.23285ZM11.9508 19.9999C8.5196 19.9999 5.58984 19.456 5.58984 17.2801C5.58984 15.1033 8.5008 14.5396 11.9508 14.5396C15.382 14.5396 18.3117 15.0835 18.3117 17.2603C18.3117 19.4361 15.4008 19.9999 11.9508 19.9999ZM17.9578 8.30938C17.9578 9.50719 17.6005 10.623 16.9737 11.5507C16.9092 11.6461 16.9666 11.7749 17.0803 11.7947C17.237 11.8217 17.399 11.8371 17.5638 11.8416C19.2068 11.8848 20.6816 10.8212 21.089 9.2199C21.6925 6.84139 19.9205 4.70605 17.6641 4.70605C17.4187 4.70605 17.1841 4.73217 16.9558 4.779C16.9245 4.78621 16.8913 4.80062 16.8734 4.82854C16.8519 4.86276 16.8681 4.90869 16.8895 4.93841C17.5674 5.89395 17.9578 7.05934 17.9578 8.30938ZM20.6782 13.5126C21.7823 13.7296 22.5084 14.1727 22.8093 14.8166C23.0636 15.3453 23.0636 15.9586 22.8093 16.4864C22.349 17.4851 20.8654 17.8058 20.2887 17.8886C20.1696 17.9066 20.0738 17.8031 20.0864 17.6833C20.3809 14.9157 18.0377 13.6035 17.4315 13.3018C17.4055 13.2883 17.4002 13.2676 17.4028 13.255C17.4046 13.246 17.4154 13.2316 17.4351 13.2289C18.7468 13.2046 20.1571 13.3847 20.6782 13.5126ZM6.43768 11.8411C6.60243 11.8366 6.7636 11.8222 6.9212 11.7942C7.03491 11.7744 7.09222 11.6456 7.02775 11.5502C6.40097 10.6226 6.0437 9.5067 6.0437 8.30889C6.0437 7.05885 6.4341 5.89347 7.11192 4.93792C7.13341 4.9082 7.14863 4.86227 7.12803 4.82805C7.11013 4.80103 7.0761 4.78572 7.04566 4.77852C6.81643 4.73168 6.58184 4.70557 6.3365 4.70557C4.08008 4.70557 2.30808 6.8409 2.91248 9.21941C3.31989 10.8207 4.79461 11.8843 6.43768 11.8411ZM6.59694 13.2545C6.59962 13.268 6.59425 13.2878 6.56918 13.3022C5.9621 13.6039 3.61883 14.9161 3.91342 17.6827C3.92595 17.8034 3.83104 17.9061 3.71195 17.889C3.13531 17.8061 1.65163 17.4855 1.19139 16.4867C0.936203 15.9581 0.936203 15.3457 1.19139 14.817C1.49225 14.1731 2.21752 13.73 3.32156 13.512C3.84358 13.385 5.25294 13.2049 6.5656 13.2292C6.5853 13.2319 6.59515 13.2464 6.59694 13.2545Z" fill="#FF8059"/>
</svg>
