<svg width="24" height="24" viewBox="0 0 24 24" fill="none" xmlns="http://www.w3.org/2000/svg">
<path d="M18.1406 10.6468C19.5356 10.4508 20.6096 9.25479 20.6126 7.80579C20.6126 6.37779 19.5716 5.19379 18.2066 4.96979" stroke="#F8C592" stroke-width="1.5" stroke-linecap="round" stroke-linejoin="round"/>
<path d="M19.9805 14.0004C21.3315 14.2024 22.2745 14.6754 22.2745 15.6504C22.2745 16.3214 21.8305 16.7574 21.1125 17.0314" stroke="#F8C592" stroke-width="1.5" stroke-linecap="round" stroke-linejoin="round"/>
<path fill-rule="evenodd" clip-rule="evenodd" d="M12.1387 14.4139C8.92469 14.4139 6.17969 14.9009 6.17969 16.8459C6.17969 18.7899 8.90769 19.2909 12.1387 19.2909C15.3527 19.2909 18.0967 18.8089 18.0967 16.8629C18.0967 14.9169 15.3697 14.4139 12.1387 14.4139Z" stroke="#F8C592" stroke-width="1.5" stroke-linecap="round" stroke-linejoin="round"/>
<path fill-rule="evenodd" clip-rule="evenodd" d="M12.1393 11.638C14.2483 11.638 15.9583 9.929 15.9583 7.819C15.9583 5.71 14.2483 4 12.1393 4C10.0303 4 8.32034 5.71 8.32034 7.819C8.31234 9.921 10.0093 11.631 12.1113 11.638H12.1393Z" stroke="#F8C592" stroke-width="1.5" stroke-linecap="round" stroke-linejoin="round"/>
<path d="M6.13606 10.6468C4.74006 10.4508 3.66706 9.25479 3.66406 7.80579C3.66406 6.37779 4.70506 5.19379 6.07006 4.96979" stroke="#F8C592" stroke-width="1.5" stroke-linecap="round" stroke-linejoin="round"/>
<path d="M4.294 14.0004C2.943 14.2024 2 14.6754 2 15.6504C2 16.3214 2.444 16.7574 3.162 17.0314" stroke="#F8C592" stroke-width="1.5" stroke-linecap="round" stroke-linejoin="round"/>
</svg>
