<svg width="24" height="24" viewBox="0 0 24 24" fill="none" xmlns="http://www.w3.org/2000/svg">
<path fill-rule="evenodd" clip-rule="evenodd" d="M7.33 2.00049H16.669C20.07 2.00049 21.99 3.92949 22 7.33049V16.6705C22 20.0705 20.07 22.0005 16.669 22.0005H7.33C3.929 22.0005 2 20.0705 2 16.6705V7.33049C2 3.92949 3.929 2.00049 7.33 2.00049ZM12.0484 17.8604C12.4794 17.8604 12.8384 17.5404 12.8784 17.1104V6.92043C12.9184 6.61043 12.7694 6.29943 12.4994 6.13043C12.2184 5.96043 11.8784 5.96043 11.6094 6.13043C11.3384 6.29943 11.1894 6.61043 11.2184 6.92043V17.1104C11.2694 17.5404 11.6284 17.8604 12.0484 17.8604ZM16.6489 17.8606C17.0689 17.8606 17.4279 17.5406 17.4789 17.1106V13.8306C17.5079 13.5096 17.3589 13.2106 17.0879 13.0406C16.8189 12.8706 16.4789 12.8706 16.1989 13.0406C15.9279 13.2106 15.7789 13.5096 15.8189 13.8306V17.1106C15.8589 17.5406 16.2179 17.8606 16.6489 17.8606ZM8.21749 17.1107C8.17749 17.5407 7.81849 17.8607 7.38749 17.8607C6.95749 17.8607 6.59749 17.5407 6.55849 17.1107V10.2007C6.52849 9.8897 6.67749 9.5807 6.94849 9.4107C7.21749 9.2407 7.55849 9.2407 7.82849 9.4107C8.09749 9.5807 8.24849 9.8897 8.21749 10.2007V17.1107Z" fill="#F9AF2F"/>
</svg>
