<svg width="46" height="48" viewBox="0 0 46 48" fill="none" xmlns="http://www.w3.org/2000/svg">
<path d="M5.31033 34.5527C0.901993 30.092 -2.05627 21.0981 1.75053 12.4412C5.78981 3.2555 14.9116 -0.440873 21.3861 0.0415159C21.5517 0.59946 21.4442 1.18065 21.4616 1.75312C21.482 2.30816 21.4645 2.8661 21.4645 3.48217C13.8626 4.12438 8.01287 7.59701 4.48504 14.3737C0.968831 21.1271 1.48318 27.8864 5.31033 34.5498V34.5527Z" fill="#F8C592"/>
<path d="M39.6662 12.4967C44.5657 17.5473 47.1287 26.7621 43.1214 35.2852C38.9019 44.253 29.9167 47.6559 23.7445 47.1909C23.5788 46.6882 23.5527 44.4622 23.7125 43.7416C31.3029 43.0819 37.1584 39.5802 40.6659 32.7454C44.1675 25.9193 43.5834 19.1281 39.6691 12.4967H39.6662Z" fill="#F8C592"/>
<path d="M36.1771 28.5566C36.3689 28.9519 36.5287 29.2047 36.6159 29.4807C36.8193 30.1288 37.2668 30.3874 37.912 30.4106C38.1851 30.4194 38.4554 30.4833 38.8825 30.5443C38.5251 30.9018 38.2752 31.1894 37.9846 31.4277C37.6126 31.7299 37.5167 32.0787 37.633 32.5349C37.7202 32.8865 37.7492 33.2498 37.8248 33.7351C37.3889 33.5055 37.0518 33.3573 36.7467 33.1597C36.3456 32.904 35.9766 32.9185 35.5785 33.1684C35.2879 33.3515 34.9682 33.4851 34.5323 33.7089C34.5992 33.2149 34.6195 32.8342 34.7096 32.4681C34.8113 32.0554 34.7125 31.7532 34.3958 31.48C34.1052 31.2272 33.8465 30.9337 33.4688 30.553C33.9976 30.4688 34.3754 30.3874 34.7561 30.3554C35.1455 30.3235 35.3925 30.1578 35.5465 29.7917C35.7063 29.4139 35.9156 29.0565 36.1742 28.5537L36.1771 28.5566Z" fill="#F9AF2F"/>
<path d="M11.9727 35.6897C12.5626 35.588 12.9665 35.4921 13.3762 35.4573C13.6959 35.4311 13.8848 35.2916 14.0185 35.0155C14.2073 34.6232 14.4166 34.2397 14.681 33.7282C14.9193 34.1874 15.1169 34.539 15.2854 34.9051C15.4453 35.248 15.6545 35.4514 16.0701 35.4689C16.4711 35.4863 16.8692 35.6084 17.3196 35.6955C16.9593 36.0762 16.6658 36.3988 16.3577 36.701C16.1398 36.9131 16.0526 37.1282 16.1282 37.4449C16.227 37.8692 16.2648 38.3051 16.3461 38.8659C15.9073 38.6393 15.5499 38.4882 15.2302 38.2789C14.8496 38.029 14.5096 38.0494 14.1347 38.2818C13.8238 38.4736 13.4867 38.6189 13.0188 38.8601C13.0973 38.3574 13.1205 37.9767 13.2164 37.6193C13.3297 37.2096 13.2367 36.9044 12.9229 36.6284C12.6323 36.3726 12.3708 36.0849 11.9756 35.6897H11.9727Z" fill="#F9AF2F"/>
<path d="M37.6058 17.8111C37.106 17.5583 36.7253 17.3868 36.3708 17.1805C36.0773 17.009 35.8216 17.009 35.5281 17.1805C35.1706 17.3868 34.7929 17.5525 34.3018 17.7995C34.3657 17.3374 34.386 16.9974 34.4674 16.6719C34.5836 16.1954 34.511 15.8234 34.0983 15.5067C33.8107 15.2887 33.5782 15.001 33.2266 14.6465C33.7322 14.5709 34.0867 14.4838 34.4471 14.4692C34.9295 14.4489 35.2113 14.2222 35.3857 13.7863C35.5223 13.4463 35.7112 13.1267 35.9465 12.6559C36.1877 13.1354 36.3882 13.487 36.5452 13.859C36.7108 14.2426 36.9723 14.4344 37.3908 14.4605C37.754 14.4838 38.1144 14.5564 38.5387 14.6174C38.3498 15.0504 38.0301 15.2887 37.7482 15.5328C37.385 15.8496 37.3036 16.2012 37.4053 16.6487C37.4838 16.9829 37.5245 17.3258 37.6058 17.8169V17.8111Z" fill="#F9AF2F"/>
<path d="M33.2651 35.7052C32.9251 36.0481 32.7072 36.3242 32.4369 36.5305C32.0068 36.8589 31.9255 37.2541 32.0475 37.751C32.126 38.0591 32.1521 38.3787 32.2277 38.8582C31.8267 38.6635 31.5303 38.556 31.2774 38.3904C30.8009 38.0765 30.3534 38.0416 29.871 38.3787C29.6123 38.5589 29.3101 38.6751 28.9062 38.8815C28.9817 38.3758 29.0021 37.9893 29.1067 37.6232C29.2229 37.2047 29.1125 36.9054 28.7958 36.641C28.5139 36.4027 28.2436 36.1499 27.9414 35.8796C28.1942 35.5861 28.4441 35.5832 28.6882 35.5745C29.4234 35.5483 29.9698 35.2781 30.1819 34.508C30.2458 34.2755 30.3911 34.0663 30.5655 33.7147C30.798 34.1738 30.9927 34.4847 31.1176 34.8247C31.2833 35.2693 31.5709 35.4844 32.0388 35.5222C32.405 35.5512 32.7653 35.6326 33.2622 35.7111L33.2651 35.7052Z" fill="#F9AF2F"/>
<path d="M12.0046 14.6678C11.7257 14.9497 11.5687 15.1502 11.3741 15.2926C10.8045 15.711 10.5865 16.2225 10.8161 16.917C10.8975 17.1669 10.8888 17.4488 10.9353 17.8237C10.479 17.5912 10.1187 17.4343 9.7903 17.2279C9.45031 17.0158 9.15099 17.0332 8.81681 17.2279C8.48553 17.4197 8.131 17.5766 7.66605 17.8091C7.7416 17.2831 7.78229 16.8967 7.85784 16.516C7.93049 16.1382 7.84041 15.8447 7.53819 15.589C7.24178 15.3391 6.98024 15.0485 6.59375 14.6649C7.13426 14.5806 7.53237 14.4963 7.9334 14.4644C8.30245 14.4353 8.52912 14.2697 8.67442 13.9355C8.84296 13.5548 9.04347 13.1916 9.2992 12.683C9.53749 13.1451 9.738 13.4909 9.89782 13.857C10.0606 14.2377 10.3018 14.444 10.7318 14.4702C11.1125 14.4905 11.4874 14.5835 12.0105 14.6649L12.0046 14.6678Z" fill="#F9AF2F"/>
<path d="M19.9917 7.08591C20.4015 7.02779 20.8112 6.96095 21.2209 6.91736C21.5551 6.88249 21.7702 6.72266 21.9096 6.41754C22.0898 6.02523 22.299 5.64455 22.5577 5.13892C22.7495 5.51669 22.9267 5.7666 23.011 6.04267C23.2086 6.6936 23.63 6.97257 24.2925 6.97548C24.5599 6.97548 24.8243 7.05394 25.2428 7.12078C24.8563 7.50727 24.5802 7.80658 24.278 8.07684C24.0077 8.31803 23.9177 8.58538 23.9932 8.94572C24.0775 9.34674 24.1124 9.75648 24.185 10.2708C23.7317 10.0442 23.3742 9.88725 23.043 9.68674C22.7059 9.48332 22.4066 9.48041 22.0695 9.67802C21.7353 9.87272 21.3779 10.0267 20.9158 10.2592C20.9885 9.74776 21.0204 9.35836 21.1018 8.9835C21.1861 8.59991 21.096 8.30931 20.7938 8.0594C20.4944 7.80949 20.2184 7.53052 19.9336 7.26317C19.9539 7.20214 19.9743 7.14402 19.9946 7.083L19.9917 7.08591Z" fill="#F9AF2F"/>
<path d="M17.7209 9.26703C17.3751 9.61575 17.1397 9.89763 16.8607 10.1272C16.5178 10.4091 16.3841 10.72 16.4946 11.1617C16.5846 11.5162 16.6137 11.8882 16.6805 12.3125C16.2156 12.2602 15.893 12.0364 15.5705 11.8417C15.1869 11.6063 14.8469 11.6121 14.472 11.8591C14.1872 12.048 13.8647 12.1817 13.4259 12.4084C13.4724 11.9812 13.4636 11.6645 13.5508 11.3768C13.7339 10.7752 13.5305 10.3481 13.0626 9.9819C12.836 9.80464 12.6529 9.57506 12.3594 9.27575C12.8824 9.18567 13.2602 9.09558 13.6438 9.06362C14.0419 9.03165 14.2773 8.84567 14.4313 8.48824C14.5853 8.13081 14.7858 7.79372 15.0329 7.31714C15.2508 7.72107 15.4397 8.00876 15.5617 8.31969C15.7506 8.80499 16.0383 9.08105 16.5934 9.07524C16.9101 9.07233 17.2298 9.17986 17.718 9.26994L17.7209 9.26703Z" fill="#F9AF2F"/>
<path d="M31.8709 12.4449C31.528 12.2706 31.2636 12.1776 31.0485 12.0207C30.4935 11.6167 29.9646 11.5732 29.398 12.0003C29.2033 12.1485 28.9505 12.2212 28.5872 12.3926C28.6308 12.0061 28.6163 11.733 28.6947 11.486C28.8981 10.8438 28.7122 10.3643 28.192 9.96325C27.9828 9.80052 27.82 9.57676 27.5469 9.28617C28.0612 9.19318 28.4361 9.09728 28.8168 9.06531C29.1887 9.03626 29.4096 8.8648 29.5636 8.53934C29.738 8.16447 29.9356 7.80122 30.1942 7.29849C30.4238 7.7431 30.6098 8.05113 30.7492 8.38241C30.9265 8.80668 31.1764 9.06822 31.6791 9.07403C32.0162 9.07694 32.3504 9.19027 32.8241 9.28036C32.5102 9.62035 32.2981 9.91676 32.025 10.1347C31.6385 10.4398 31.5687 10.7973 31.6646 11.2419C31.7402 11.5993 31.7896 11.9626 31.8709 12.4449Z" fill="#F9AF2F"/>
<path d="M40.9307 23.0703C40.6372 23.3318 40.3554 23.6079 40.0502 23.852C39.7626 24.0845 39.687 24.3547 39.7655 24.7122C39.8526 25.1132 39.8875 25.5258 39.9631 26.0489C39.5533 25.8426 39.225 25.7205 38.946 25.5287C38.5014 25.2207 38.1033 25.2498 37.6674 25.5433C37.4058 25.7176 37.0949 25.8251 36.6851 26.0227C36.7549 25.5229 36.7781 25.1393 36.8682 24.7732C36.9641 24.3867 36.8682 24.1019 36.5747 23.8462C36.2783 23.5875 36.0081 23.3028 35.6797 22.9831C36.0226 22.739 36.3858 22.7506 36.6997 22.739C37.3012 22.7187 37.6325 22.431 37.8301 21.8934C37.9405 21.5941 38.112 21.318 38.3241 20.8995C38.5769 21.3965 38.7891 21.7742 38.9605 22.1694C39.1058 22.5065 39.3325 22.6693 39.6986 22.6983C40.0851 22.7274 40.4658 22.8058 40.8494 22.8611C40.8755 22.9308 40.9017 23.0005 40.9307 23.0703Z" fill="#F9AF2F"/>
<path d="M5.28624 26.0392C5.35888 25.5423 5.39957 25.179 5.46931 24.8216C5.54487 24.4235 5.45478 24.1009 5.13803 23.8248C4.84744 23.572 4.58881 23.2872 4.22266 22.924C4.61205 22.8601 4.85325 22.7874 5.09735 22.7845C5.8064 22.7816 6.27426 22.4794 6.49802 21.7907C6.58229 21.532 6.75084 21.3025 6.94554 20.9334C7.18092 21.4158 7.37852 21.7965 7.54998 22.1859C7.69527 22.5172 7.91613 22.6857 8.291 22.7119C8.68039 22.738 9.06689 22.8194 9.52603 22.8891C9.33714 23.3134 9.01748 23.5517 8.73561 23.7987C8.37527 24.1154 8.28809 24.47 8.3898 24.9146C8.46826 25.2488 8.50894 25.5917 8.59031 26.074C8.12536 25.8416 7.75339 25.6788 7.41049 25.4754C7.0734 25.2749 6.77699 25.2691 6.437 25.4725C6.10862 25.6672 5.74828 25.8125 5.28333 26.0363L5.28624 26.0392Z" fill="#F9AF2F"/>
<path d="M22.6068 36.799C22.8073 37.2059 22.9933 37.5517 23.1532 37.912C23.3101 38.2636 23.5455 38.4525 23.9436 38.4787C24.3272 38.5048 24.7049 38.592 25.2454 38.6763C24.8851 39.0366 24.6526 39.3214 24.3737 39.5423C23.993 39.8387 23.9 40.1845 24.0104 40.6407C24.0976 40.9894 24.1179 41.3556 24.1819 41.8351C23.7053 41.591 23.3304 41.4166 22.9759 41.2103C22.6853 41.0388 22.4325 41.033 22.1361 41.2045C21.7815 41.4108 21.4009 41.5677 20.9156 41.8031C20.9911 41.2713 21.0318 40.8616 21.1103 40.4634C21.1742 40.1322 21.0986 39.8794 20.8371 39.6614C20.5204 39.3941 20.221 39.1093 19.7852 38.7112C20.3257 38.6124 20.6744 38.5019 21.026 38.4961C21.5462 38.4874 21.828 38.2288 22.0082 37.7754C22.1186 37.4965 22.2639 37.232 22.4063 36.9647C22.4412 36.9008 22.5255 36.8659 22.6097 36.799H22.6068Z" fill="#F9AF2F"/>
<path d="M7.39999 33.7132C7.4988 33.1524 7.5511 32.7659 7.63538 32.3823C7.70803 32.0539 7.62666 31.7982 7.38256 31.5686C7.08034 31.2867 6.79555 30.9845 6.39453 30.5806C6.80137 30.505 7.07743 30.4237 7.3564 30.4091C7.96666 30.3743 8.41127 30.1505 8.60887 29.5199C8.69605 29.2468 8.87331 28.9997 9.07092 28.6249C9.33536 29.1218 9.55331 29.4938 9.73348 29.8832C9.86425 30.1679 10.056 30.3074 10.367 30.3394C10.8 30.383 11.2271 30.4614 11.7909 30.5457C11.4247 30.909 11.1661 31.2025 10.8726 31.4524C10.5617 31.7168 10.4164 31.9929 10.5297 32.4201C10.6285 32.7949 10.643 33.1901 10.7128 33.6987C10.3408 33.5156 10.0444 33.4081 9.78578 33.2366C9.3063 32.917 8.86169 32.8908 8.3764 33.2279C8.11777 33.4081 7.80683 33.5156 7.39709 33.7132H7.39999Z" fill="#F9AF2F"/>
</svg>
