<svg width="24" height="24" viewBox="0 0 24 24" fill="none" xmlns="http://www.w3.org/2000/svg">
<path fill-rule="evenodd" clip-rule="evenodd" d="M17.0112 14.602C17.4252 14.602 17.7612 14.266 17.7612 13.852V12C17.7612 11.586 17.4252 11.25 17.0112 11.25H11.3192C10.9952 10.183 10.0132 9.399 8.84123 9.399C7.40723 9.399 6.24023 10.566 6.24023 12C6.24023 13.435 7.40723 14.602 8.84123 14.602C10.0132 14.602 10.9952 13.818 11.3192 12.75H13.4312V13.852C13.4312 14.266 13.7672 14.602 14.1812 14.602C14.5952 14.602 14.9312 14.266 14.9312 13.852V12.75H16.2612V13.852C16.2612 14.266 16.5972 14.602 17.0112 14.602ZM7.666 2H16.335C19.723 2 22 4.378 22 7.917V16.084C22 19.623 19.723 22 16.334 22H7.666C4.277 22 2 19.623 2 16.084V7.917C2 4.378 4.277 2 7.666 2ZM7.73828 12.0009C7.73828 11.3929 8.23328 10.8989 8.84028 10.8989C9.44728 10.8989 9.94228 11.3929 9.94228 12.0009C9.94228 12.6079 9.44728 13.1019 8.84028 13.1019C8.23328 13.1019 7.73828 12.6079 7.73828 12.0009Z" fill="#767676"/>
</svg>
