<svg width="24" height="25" viewBox="0 0 24 25" fill="none" xmlns="http://www.w3.org/2000/svg">
<path fill-rule="evenodd" clip-rule="evenodd" d="M17.0112 15.5219C17.4252 15.5219 17.7612 15.1859 17.7612 14.7719V12.9199C17.7612 12.5059 17.4252 12.1699 17.0112 12.1699H11.3192C10.9952 11.1029 10.0132 10.3189 8.84123 10.3189C7.40723 10.3189 6.24023 11.4859 6.24023 12.9199C6.24023 14.3549 7.40723 15.5219 8.84123 15.5219C10.0132 15.5219 10.9952 14.7379 11.3192 13.6699H13.4312V14.7719C13.4312 15.1859 13.7672 15.5219 14.1812 15.5219C14.5952 15.5219 14.9312 15.1859 14.9312 14.7719V13.6699H16.2612V14.7719C16.2612 15.1859 16.5972 15.5219 17.0112 15.5219ZM7.666 2.91992H16.335C19.723 2.91992 22 5.29792 22 8.83692V17.0039C22 20.5429 19.723 22.9199 16.334 22.9199H7.666C4.277 22.9199 2 20.5429 2 17.0039V8.83692C2 5.29792 4.277 2.91992 7.666 2.91992ZM7.73828 12.9208C7.73828 12.3128 8.23328 11.8188 8.84028 11.8188C9.44728 11.8188 9.94228 12.3128 9.94228 12.9208C9.94228 13.5278 9.44728 14.0218 8.84028 14.0218C8.23328 14.0218 7.73828 13.5278 7.73828 12.9208Z" fill="#FF8059"/>
</svg>
