<svg width="24" height="24" viewBox="0 0 24 24" fill="none" xmlns="http://www.w3.org/2000/svg">
<path fill-rule="evenodd" clip-rule="evenodd" d="M16.1588 8.23285C16.1588 10.5825 14.2856 12.4666 11.9495 12.4666C9.61342 12.4666 7.74023 10.5825 7.74023 8.23285C7.74023 5.88227 9.61342 4 11.9495 4C14.2856 4 16.1588 5.88227 16.1588 8.23285ZM11.9488 20C8.51765 20 5.58789 19.456 5.58789 17.2802C5.58789 15.1034 8.49885 14.5396 11.9488 14.5396C15.38 14.5396 18.3098 15.0836 18.3098 17.2604C18.3098 19.4362 15.3988 20 11.9488 20ZM17.9578 8.30923C17.9578 9.50704 17.6005 10.6229 16.9737 11.5505C16.9092 11.646 16.9666 11.7748 17.0803 11.7946C17.237 11.8216 17.399 11.8369 17.5638 11.8414C19.2068 11.8846 20.6816 10.821 21.089 9.21974C21.6925 6.84124 19.9205 4.7059 17.6641 4.7059C17.4187 4.7059 17.1841 4.73202 16.9558 4.77885C16.9245 4.78606 16.8913 4.80047 16.8734 4.82838C16.8519 4.86261 16.8681 4.90854 16.8895 4.93826C17.5674 5.8938 17.9578 7.05919 17.9578 8.30923ZM20.6783 13.5126C21.7824 13.7296 22.5086 14.1727 22.8094 14.8166C23.0637 15.3453 23.0637 15.9586 22.8094 16.4864C22.3492 17.4851 20.8655 17.8058 20.2888 17.8886C20.1698 17.9066 20.074 17.8031 20.0865 17.6833C20.3811 14.9157 18.0378 13.6035 17.4316 13.3018C17.4057 13.2883 17.4003 13.2676 17.403 13.255C17.4048 13.246 17.4155 13.2316 17.4352 13.2289C18.747 13.2046 20.1572 13.3847 20.6783 13.5126ZM6.43768 11.8413C6.60243 11.8368 6.7636 11.8224 6.9212 11.7945C7.03491 11.7747 7.09222 11.6459 7.02775 11.5504C6.40097 10.6228 6.0437 9.50695 6.0437 8.30914C6.0437 7.0591 6.4341 5.89371 7.11192 4.93817C7.13341 4.90845 7.14863 4.86252 7.12803 4.82829C7.11013 4.80127 7.0761 4.78596 7.04566 4.77876C6.81643 4.73193 6.58184 4.70581 6.3365 4.70581C4.08008 4.70581 2.30808 6.84115 2.91248 9.21965C3.31989 10.8209 4.79461 11.8845 6.43768 11.8413ZM6.59694 13.2545C6.59962 13.268 6.59425 13.2878 6.56918 13.3022C5.9621 13.6039 3.61883 14.9161 3.91342 17.6827C3.92595 17.8034 3.83104 17.9061 3.71195 17.889C3.13531 17.8061 1.65163 17.4855 1.19139 16.4867C0.936203 15.9581 0.936203 15.3457 1.19139 14.817C1.49225 14.1731 2.21752 13.73 3.32156 13.512C3.84358 13.385 5.25294 13.2049 6.5656 13.2292C6.5853 13.2319 6.59515 13.2464 6.59694 13.2545Z" fill="#767676"/>
</svg>
