<svg width="49" height="48" viewBox="0 0 49 48" fill="none" xmlns="http://www.w3.org/2000/svg">
<g clip-path="url(#clip0_2358_4154)">
<path d="M24.7759 47.7158C37.8231 47.7158 48.3999 37.139 48.3999 24.0918C48.3999 11.0446 37.8231 0.467773 24.7759 0.467773C11.7287 0.467773 1.15186 11.0446 1.15186 24.0918C1.15186 37.139 11.7287 47.7158 24.7759 47.7158Z" fill="white"/>
<path d="M39.8102 28.3868C39.8102 20.0838 33.0789 13.353 24.7769 13.353C16.475 13.353 9.74268 20.0838 9.74268 28.3868H14.0373C14.0373 22.456 18.8447 17.6487 24.7749 17.6487C30.7051 17.6487 35.513 22.456 35.513 28.3868" fill="black" fill-opacity="0.1"/>
<path d="M25.8496 35.2592C30.3569 35.2592 34.0109 31.6052 34.0109 27.0978C34.0109 22.5905 30.3569 18.9365 25.8496 18.9365C21.3422 18.9365 17.6882 22.5905 17.6882 27.0978C17.6882 31.6052 21.3422 35.2592 25.8496 35.2592Z" fill="black" fill-opacity="0.1"/>
<path d="M24.7757 32.8967C29.6389 32.8967 33.5813 28.9543 33.5813 24.0912C33.5813 19.228 29.6389 15.2856 24.7757 15.2856C19.9126 15.2856 15.9702 19.228 15.9702 24.0912C15.9702 28.9543 19.9126 32.8967 24.7757 32.8967Z" fill="url(#paint0_linear_2358_4154)"/>
<path d="M46.252 13.3526C40.3395 1.45756 25.9028 -3.39345 14.0067 2.51954C10.2974 4.36298 7.12719 7.13331 4.80322 10.5621L14.4677 27.3142C12.6869 21.6576 15.8312 15.6283 21.4883 13.848C22.4833 13.5348 23.5189 13.3688 24.5611 13.3541" fill="url(#paint1_linear_2358_4154)"/>
<path d="M4.80325 10.5605C-2.59408 21.5951 0.354289 36.5314 11.3894 43.9343C14.8032 46.2227 18.7466 47.5979 22.8432 47.9294L32.9417 30.7443C29.1674 35.3192 22.3996 35.973 17.8252 32.1931C16.2715 30.9116 15.1097 29.2188 14.4728 27.3081" fill="url(#paint2_linear_2358_4154)"/>
<path d="M22.8433 47.9304C36.0896 48.932 47.6399 39.0051 48.6415 25.7587C48.9649 21.4845 48.1401 17.2015 46.2526 13.353H24.5657C30.4964 13.3804 35.2769 18.2096 35.2545 24.1404C35.2433 26.5397 34.4291 28.8661 32.9417 30.7488" fill="url(#paint3_linear_2358_4154)"/>
<path d="M4.80322 10.5604L14.4677 27.3125C13.757 24.9028 13.9093 22.3189 14.8966 20.0102L5.23218 9.91675" fill="url(#paint4_linear_2358_4154)"/>
<path d="M22.8433 47.9305L32.9418 30.7444C31.3491 32.6435 29.1487 33.9334 26.7136 34.3953L22.4189 47.9255" fill="url(#paint5_linear_2358_4154)"/>
<path d="M46.252 13.3525H24.5657C27.8334 13.3678 30.9112 14.8694 32.9417 17.4329L46.6866 13.9962" fill="url(#paint6_linear_2358_4154)"/>
</g>
<defs>
<linearGradient id="paint0_linear_2358_4154" x1="24.7585" y1="15.2745" x2="24.7585" y2="32.8825" gradientUnits="userSpaceOnUse">
<stop stop-color="#81B4E0"/>
<stop offset="1" stop-color="#0C5A94"/>
</linearGradient>
<linearGradient id="paint1_linear_2358_4154" x1="25.5276" y1="0.0371795" x2="25.5276" y2="19.5813" gradientUnits="userSpaceOnUse">
<stop stop-color="#F06B59"/>
<stop offset="1" stop-color="#DF2227"/>
</linearGradient>
<linearGradient id="paint2_linear_2358_4154" x1="6.57948" y1="41.189" x2="16.4581" y2="24.8669" gradientUnits="userSpaceOnUse">
<stop stop-color="#388B41"/>
<stop offset="1" stop-color="#4CB749"/>
</linearGradient>
<linearGradient id="paint3_linear_2358_4154" x1="39.6735" y1="42.9246" x2="29.1502" y2="17.5827" gradientUnits="userSpaceOnUse">
<stop stop-color="#E4B022"/>
<stop offset="0.3" stop-color="#FCD209"/>
</linearGradient>
<linearGradient id="paint4_linear_2358_4154" x1="9.84967" y1="26.6684" x2="9.84967" y2="9.48729" gradientUnits="userSpaceOnUse">
<stop stop-opacity="0.15"/>
<stop offset="0.3" stop-opacity="0.06"/>
<stop offset="1" stop-opacity="0.03"/>
</linearGradient>
<linearGradient id="paint5_linear_2358_4154" x1="33.5647" y1="32.217" x2="21.7529" y2="44.2435" gradientUnits="userSpaceOnUse">
<stop stop-opacity="0.15"/>
<stop offset="0.3" stop-opacity="0.06"/>
<stop offset="1" stop-opacity="0.03"/>
</linearGradient>
<linearGradient id="paint6_linear_2358_4154" x1="33.3935" y1="35.6765" x2="35.1114" y2="18.7112" gradientUnits="userSpaceOnUse">
<stop stop-opacity="0.15"/>
<stop offset="0.3" stop-opacity="0.06"/>
<stop offset="1" stop-opacity="0.03"/>
</linearGradient>
<clipPath id="clip0_2358_4154">
<rect width="48" height="48" fill="white" transform="translate(0.718018)"/>
</clipPath>
</defs>
</svg>
