<svg width="49" height="48" viewBox="0 0 49 48" fill="none" xmlns="http://www.w3.org/2000/svg">
<path fill-rule="evenodd" clip-rule="evenodd" d="M22.2233 0.135137C3.38361 2.09494 -5.86147 24.3164 6.02316 39.0737C16.9454 52.6359 38.3252 50.3686 46.1276 34.8209C54.6288 17.8807 41.0495 -1.82328 22.2233 0.135137ZM22.81 12.6755C22.6714 12.814 17.643 12.2116 17.3319 12.0192C17.059 11.8504 18.4889 8.71845 19.5219 7.22205C20.1952 6.24677 21.3031 5.13714 22.1657 4.57412L22.8002 4.15989L22.8304 8.39228C22.8471 10.72 22.8379 12.6475 22.81 12.6755ZM28.3587 5.47658C29.878 6.89288 32.6551 11.7587 32.0545 11.952C31.5238 12.1228 27.8985 12.589 27.1007 12.589H26.5497V8.36885V4.14869L27.0285 4.41577C27.2918 4.5627 27.8904 5.04007 28.3587 5.47658ZM36.0678 7.2284C37.0418 7.88432 39.0097 9.53342 39.0097 9.69362C39.0097 9.86986 35.9507 11.092 35.8497 10.9562C35.8331 10.9338 35.7007 10.5778 35.5554 10.1652C35.2497 9.2967 34.236 7.15857 33.7011 6.25358L33.3333 5.63124L34.239 6.11911C34.7372 6.38735 35.5601 6.88653 36.0678 7.2284ZM15.2445 7.07778C14.6887 8.13732 13.9994 9.72501 13.5942 10.879C13.5076 11.1256 10.3979 9.9757 10.3979 9.69697C10.3979 9.29058 15.2733 5.78405 15.8442 5.7799C15.8889 5.77955 15.6191 6.36369 15.2445 7.07778ZM11.2632 14.2121C12.601 14.7047 12.5217 14.5657 12.2514 15.9478C11.967 17.4011 11.711 19.3886 11.6024 20.9857L11.5218 22.1687H8.01653H4.51124L4.58196 21.6782C5.0199 18.6361 5.99951 15.8218 7.47118 13.3774L7.86516 12.723L9.04494 13.2764C9.6939 13.5808 10.6921 14.0018 11.2632 14.2121ZM42.1679 13.772C43.5239 16.0791 44.5006 18.9295 44.8376 21.5628L44.9153 22.1687H41.4485H37.9819L37.9241 21.7936C37.8923 21.5874 37.8351 20.977 37.7968 20.4374C37.7179 19.3224 37.3773 16.9804 37.1119 15.7266C37.0135 15.2622 36.933 14.8204 36.933 14.7447C36.933 14.669 37.4392 14.4347 38.0579 14.2239C38.6766 14.0133 39.7019 13.5897 40.3365 13.2828C40.971 12.9759 41.5015 12.7201 41.5152 12.7146C41.529 12.709 41.8227 13.1848 42.1679 13.772ZM33.2858 15.7919C33.5445 16.6604 34.1642 20.9349 34.1642 21.8506V22.1687H30.3569H26.5497V19.3046V16.4405L28.5399 16.2407C29.6345 16.1308 31.0492 15.9454 31.6837 15.8287C33.1759 15.5541 33.2148 15.5533 33.2858 15.7919ZM18.5315 16.0543C19.3564 16.1791 20.6672 16.3152 21.4446 16.3571L22.8579 16.433V19.3008V22.1687H19.1083H15.3588L15.3597 21.4474C15.3613 20.2341 15.9193 16.1275 16.1284 15.7887C16.1655 15.7288 16.3839 15.7131 16.6137 15.7538C16.8436 15.7944 17.7066 15.9297 18.5315 16.0543ZM11.6007 26.872C11.7432 28.7556 11.9136 30.1864 12.1537 31.5176C12.5154 33.5224 12.6012 33.3066 11.237 33.8234C10.588 34.0693 9.56249 34.5049 8.95795 34.7913L7.85893 35.3122L7.23513 34.2516C5.84053 31.8808 4.97756 29.3368 4.57527 26.4103L4.49981 25.8621H8.01203H11.5242L11.6007 26.872ZM22.8579 28.7298V31.5976L21.4557 31.673C20.6844 31.7145 19.3217 31.8605 18.4272 31.9975C15.9811 32.3722 16.1353 32.3986 15.9685 31.5753C15.7248 30.3713 15.4833 28.4844 15.4023 27.1508L15.3241 25.8621H19.091H22.8579V28.7298ZM34.1606 26.4681C34.1514 28.0169 33.4394 32.442 33.1999 32.4397C33.1274 32.439 32.4971 32.337 31.7991 32.213C31.1011 32.0892 29.6345 31.8983 28.5399 31.789L26.5497 31.5903V28.7262V25.8621H30.3569H34.1642L34.1606 26.4681ZM44.8376 26.4681C44.5011 29.0977 43.5237 31.952 42.1724 34.2511L41.5494 35.3111L40.366 34.7532C39.7152 34.4465 38.6896 34.0258 38.0867 33.8184C37.4839 33.6111 36.9803 33.4353 36.9675 33.4278C36.9548 33.4203 37.0698 32.7966 37.223 32.0416C37.4905 30.7231 37.7637 28.646 37.918 26.7566L37.9911 25.8621H41.4531H44.9153L44.8376 26.4681ZM22.8579 39.5392C22.8579 41.8562 22.8161 43.7519 22.7651 43.7519C22.3115 43.7519 20.5918 42.2429 19.7484 41.1047C18.5998 39.5546 17.0102 36.2105 17.3285 36.0137C17.6126 35.8381 20.9625 35.3969 22.4252 35.3425L22.8579 35.3264V39.5392ZM30.371 35.7902C32.3012 36.0722 32.2225 36.0388 32.0655 36.512C31.1028 39.4143 28.8426 42.5929 27.008 43.6244L26.5497 43.8821V39.6446V35.407L27.6399 35.4786C28.2393 35.518 29.4684 35.6582 30.371 35.7902ZM13.8585 37.8656C14.1995 38.8266 15.2508 41.0693 15.7114 41.8181L16.0672 42.3967L15.165 41.9039C13.5619 41.0282 10.3979 38.6628 10.3979 38.3401C10.3979 38.1557 13.3949 36.9146 13.5238 37.0457C13.5616 37.084 13.7121 37.453 13.8585 37.8656ZM36.7938 37.338C37.7992 37.6802 39.0097 38.216 39.0097 38.319C39.0097 38.7349 35.7431 41.1609 33.9782 42.0556L33.3898 42.354L33.9895 41.2683C34.4877 40.3661 34.9804 39.281 35.7835 37.3174C35.912 37.0032 35.8031 37.001 36.7938 37.338Z" fill="#FFCD2C"/>
</svg>
