<svg width="49" height="48" viewBox="0 0 49 48" fill="none" xmlns="http://www.w3.org/2000/svg">
<g clip-path="url(#clip0_2358_4251)">
<path d="M-7.55786 -8.14844H57.6305V57.0399H-7.55786" fill="#0078D7"/>
<path d="M43.5207 23.1777C43.5207 11.4082 35.3047 3.33601 24.3933 3.19214C13.4093 3.33474 5.76497 11.193 4.33643 22.177C8.3012 15.6581 16.1773 11.2643 23.1074 11.2643C28.7693 11.2643 31.8225 14.3187 31.8225 20.3372H16.6598C16.945 17.7831 18.0705 15.1578 19.643 13.6044C13.5532 16.0872 9.30194 21.6053 9.30194 29.0536C9.30194 38.2691 16.3924 45.6995 26.7335 45.6995C31.9842 45.6995 36.2354 44.574 39.9137 42.6451V33.6435C36.5919 35.6259 32.6093 36.8405 28.2155 36.8405C21.6253 36.8405 16.875 33.6435 16.875 27.8389H43.522V23.1777H43.5207Z" fill="white"/>
</g>
<defs>
<clipPath id="clip0_2358_4251">
<rect width="48" height="48" fill="white" transform="translate(0.718018)"/>
</clipPath>
</defs>
</svg>
