<svg width="49" height="48" viewBox="0 0 49 48" fill="none" xmlns="http://www.w3.org/2000/svg">
<g clip-path="url(#clip0_2358_4166)">
<path d="M21.5488 1.94614C22.6008 1.78833 23.6792 1.70942 24.7838 1.70942C37.0403 1.70942 46.9822 11.6513 46.9822 23.9078C46.9822 35.1122 38.671 44.3834 27.8874 45.8957C26.8354 46.0535 25.757 46.1324 24.6523 46.1324C12.3959 46.1324 2.45399 36.1905 2.45399 23.9341C2.45399 12.7297 10.7521 3.45847 21.5488 1.94614ZM24.6523 -0.065918C11.3965 -0.065918 0.652344 10.6782 0.652344 23.9341C0.652344 37.19 11.3965 47.9341 24.6523 47.9341C37.9082 47.9341 48.6523 37.19 48.6523 23.9341C48.6523 10.6782 37.9082 -0.065918 24.6523 -0.065918Z" fill="url(#paint0_linear_2358_4166)"/>
<path d="M24.6523 1.73584C23.6002 1.73584 22.5613 1.81474 21.5487 1.94625C10.8178 3.51118 2.58545 12.7561 2.58545 23.921C2.58545 36.1775 12.5274 46.1194 24.7838 46.1194C25.8359 46.1194 26.8748 46.0405 27.8874 45.909C38.6183 44.3441 46.8507 35.0991 46.8507 23.9473C46.8507 11.6778 36.9087 1.73584 24.6523 1.73584Z" fill="url(#paint1_radial_2358_4166)"/>
<path d="M39.8151 8.77148L22.1274 21.3435L27.3746 26.5644L39.8151 8.77148Z" fill="#CD151E"/>
<path d="M22.1406 21.3041L24.7839 23.9211L39.8151 8.77148L22.1406 21.3041Z" fill="#FA5153"/>
<path d="M22.1405 21.304L27.3876 26.5248L9.68677 39.0968L22.1405 21.304Z" fill="#ACACAC"/>
<path d="M9.68677 39.0968L24.7838 23.9209L22.1405 21.304L9.68677 39.0968Z" fill="#EEEEEE"/>
<path d="M38.1712 40.3198C38.1186 40.3593 38.0528 40.3856 37.9871 40.3856C38.0528 40.3856 38.1186 40.3724 38.1712 40.3198Z" fill="#E9E9E9"/>
<path d="M38.1974 40.3066C38.1974 40.3066 38.1843 40.3198 38.1711 40.3198C38.1843 40.3198 38.1843 40.3066 38.1974 40.3066Z" fill="#E9E9E9"/>
<path d="M31.0173 39.5046C30.9515 39.5572 30.9252 39.6493 30.9383 39.7282C30.9252 39.6493 30.9646 39.5572 31.0173 39.5046Z" fill="#E9E9E9"/>
<path d="M41.0908 37.4004C41.0776 37.4135 41.0776 37.4135 41.0645 37.4267C41.0776 37.4135 41.0908 37.4004 41.0908 37.4004Z" fill="#E9E9E9"/>
<path d="M41.1566 37.2295C41.1566 37.2821 41.1303 37.3478 41.0908 37.3873C41.1434 37.3478 41.1566 37.2952 41.1566 37.2295Z" fill="#E9E9E9"/>
<path d="M44.9964 17.9768C44.9701 18.0426 44.9043 18.0952 44.8386 18.1215L43.1948 18.6606C43.1816 18.6606 43.1816 18.6606 43.1685 18.6738C43.1816 18.6738 43.1948 18.6738 43.2079 18.6606L44.8517 18.1215C44.9175 18.0952 44.9701 18.0426 44.9964 17.9768Z" fill="#E9E9E9"/>
<path d="M39.0392 14.7417C38.9998 14.768 38.9603 14.7811 38.9077 14.7811C38.9472 14.7811 38.9998 14.768 39.0392 14.7417Z" fill="#E9E9E9"/>
<path d="M36.7773 9.31055C36.8299 9.35 36.8825 9.3763 36.9352 9.3763C36.8825 9.36315 36.8299 9.35 36.7773 9.31055Z" fill="#E9E9E9"/>
<path d="M36.7642 9.28418C36.7773 9.29733 36.7773 9.29733 36.7905 9.31048C36.7773 9.29733 36.7642 9.29733 36.7642 9.28418Z" fill="#E9E9E9"/>
<path d="M22.6008 45.1199C22.5877 45.1199 22.5745 45.1199 22.5745 45.1199C22.4035 45.1068 22.2983 44.9753 22.2983 44.8175L22.4298 43.0684C22.443 42.9106 22.5614 42.8054 22.706 42.8054C22.7192 42.8054 22.7323 42.8054 22.7455 42.8054C22.9164 42.8186 23.0216 42.9501 23.0216 43.1079L22.8901 44.8569C22.877 45.0016 22.7586 45.1199 22.6008 45.1199Z" fill="#E9E9E9"/>
<path d="M26.8091 45.1068C26.6513 45.1068 26.5198 45.0016 26.5066 44.857L26.2831 43.1342C26.2699 42.9896 26.3751 42.8318 26.5461 42.8186C26.5593 42.8186 26.5724 42.8186 26.5856 42.8186C26.7434 42.8186 26.8749 42.9238 26.888 43.0685L27.1116 44.7912C27.1247 44.9359 27.0195 45.0937 26.8486 45.1068C26.8354 45.1068 26.8223 45.1068 26.8091 45.1068Z" fill="#E9E9E9"/>
<path d="M30.7937 44.2913C30.6754 44.2913 30.5702 44.2256 30.5176 44.1072L29.9784 42.4634C29.9389 42.3187 30.0178 42.1478 30.1625 42.082C30.2019 42.0688 30.2282 42.0688 30.2677 42.0688C30.3861 42.0688 30.4913 42.1346 30.5439 42.253L31.083 43.8968C31.0962 43.9231 31.0962 43.9625 31.0962 43.9888C31.0962 44.0678 31.0567 44.1467 31.0041 44.1993C30.9778 44.2256 30.9384 44.2519 30.8989 44.265C30.8595 44.2913 30.8332 44.2913 30.7937 44.2913Z" fill="#E9E9E9"/>
<path d="M18.5372 44.3176C18.5109 44.3176 18.4977 44.3176 18.4714 44.3044C18.3268 44.265 18.2084 44.094 18.261 43.9494L18.7344 42.2661C18.7607 42.1346 18.8791 42.0557 19.0106 42.0557C19.0369 42.0557 19.0632 42.0557 19.0895 42.0688C19.2342 42.1083 19.3525 42.2792 19.2999 42.4239L18.8265 44.1072C18.8133 44.1598 18.787 44.1992 18.7607 44.2255C18.695 44.2913 18.6161 44.3176 18.5372 44.3176Z" fill="#E9E9E9"/>
<path d="M24.613 45.1988C24.4421 45.1988 24.3105 45.0673 24.3105 44.9226V41.0037C24.3105 40.859 24.4552 40.7275 24.613 40.7275C24.784 40.7275 24.9155 40.859 24.9155 41.0037V44.9226C24.9155 45.0673 24.784 45.1988 24.613 45.1988Z" fill="#E9E9E9"/>
<path d="M33.4896 41.0563C33.4107 40.9248 33.4502 40.7538 33.608 40.6618C33.6606 40.6355 33.7132 40.6223 33.7658 40.6223C33.8579 40.6223 33.9499 40.6618 34.0025 40.7538L34.8705 42.2662C34.9494 42.3977 34.9099 42.5818 34.7521 42.6607C34.6995 42.687 34.6469 42.7001 34.5943 42.7001C34.5023 42.7001 34.4102 42.6607 34.3576 42.5686L33.4896 41.0563Z" fill="#E9E9E9"/>
<path d="M14.7235 42.7395C14.6841 42.7395 14.6315 42.7264 14.592 42.7001C14.4474 42.6212 14.3816 42.4502 14.4605 42.3055L15.2496 40.7538C15.3022 40.6485 15.4074 40.5959 15.5126 40.5959C15.552 40.5959 15.6046 40.6091 15.6441 40.6354C15.7887 40.7143 15.8545 40.8853 15.7756 41.0299L14.9865 42.5817C14.9208 42.6738 14.8287 42.7395 14.7235 42.7395Z" fill="#E9E9E9"/>
<path d="M20.5229 44.7912C20.4966 44.7912 20.4835 44.7912 20.4572 44.778C20.2862 44.7386 20.1941 44.5939 20.2073 44.4361L20.97 40.5961C21.0095 40.4646 21.1278 40.3726 21.2857 40.3726C21.2988 40.3726 21.312 40.3726 21.3251 40.3726C21.4961 40.412 21.5881 40.5567 21.575 40.7145L20.8122 44.5545C20.7728 44.686 20.6544 44.7912 20.5229 44.7912Z" fill="#E9E9E9"/>
<path d="M27.7427 40.7144C27.7033 40.5698 27.7953 40.412 27.9663 40.3725C27.9926 40.3725 28.0057 40.3594 28.032 40.3594C28.1767 40.3594 28.295 40.4646 28.3213 40.5961L29.1104 44.4361C29.1498 44.5807 29.0315 44.7517 28.8868 44.778C28.8605 44.778 28.8474 44.7912 28.8211 44.7912C28.7685 44.7912 28.7159 44.778 28.6764 44.7517C28.5975 44.7123 28.5449 44.6465 28.5317 44.5676L27.7427 40.7144Z" fill="#E9E9E9"/>
<path d="M32.727 43.5813C32.6086 43.5813 32.5034 43.5155 32.4508 43.4103L30.9385 39.7939C30.8859 39.6624 30.9516 39.4914 31.1094 39.4125C31.1489 39.3994 31.1884 39.3862 31.2278 39.3862C31.3462 39.3862 31.4514 39.452 31.504 39.5572L33.0163 43.1736C33.0689 43.3183 33.0031 43.4892 32.8453 43.555C32.8059 43.5813 32.7664 43.5813 32.727 43.5813Z" fill="#E9E9E9"/>
<path d="M16.5647 43.5813C16.5252 43.5813 16.4858 43.5681 16.4332 43.555C16.2885 43.5024 16.2096 43.3314 16.2622 43.1736L17.7614 39.5572C17.814 39.452 17.9192 39.373 18.0375 39.373C18.077 39.373 18.1164 39.3862 18.1559 39.3993C18.3006 39.452 18.3795 39.6229 18.3269 39.7807L16.8277 43.3972C16.7882 43.5287 16.683 43.5813 16.5647 43.5813Z" fill="#E9E9E9"/>
<path d="M38.0003 40.4381C37.9214 40.4381 37.8425 40.3987 37.7767 40.3461L36.6326 39.031C36.5406 38.8995 36.5406 38.7154 36.6721 38.6233C36.7378 38.5707 36.8036 38.5444 36.8693 38.5444C36.9483 38.5444 37.0272 38.5839 37.0929 38.6365L38.237 39.9516C38.3554 40.0699 38.3291 40.254 38.1976 40.3592C38.1318 40.4118 38.0661 40.4381 38.0003 40.4381Z" fill="#E9E9E9"/>
<path d="M36.3169 41.6613C36.2248 41.6613 36.1328 41.6218 36.067 41.5298L33.8972 38.2816C33.8051 38.1369 33.8446 37.9659 33.9892 37.8739C34.0418 37.8344 34.0944 37.8213 34.1602 37.8213C34.2522 37.8213 34.3443 37.8607 34.4101 37.9528L36.5799 41.201C36.672 41.3325 36.6325 41.5166 36.4879 41.6087C36.4353 41.6481 36.3827 41.6613 36.3169 41.6613Z" fill="#E9E9E9"/>
<path d="M12.9351 41.6349C12.8825 41.6349 12.8167 41.6218 12.7641 41.5823C12.6326 41.4903 12.5932 41.3062 12.6721 41.1746L14.8419 37.9264C14.8945 37.8475 14.9997 37.7949 15.0918 37.7949C15.1444 37.7949 15.2102 37.8081 15.2628 37.8475C15.3943 37.9396 15.4337 38.1237 15.3548 38.2552L13.185 41.5034C13.1192 41.5823 13.0271 41.6349 12.9351 41.6349Z" fill="#E9E9E9"/>
<path d="M40.9067 37.532C40.8409 37.532 40.7751 37.5189 40.7225 37.4794L39.3549 36.4142C39.2234 36.3222 39.2102 36.138 39.3023 36.0065C39.3549 35.9276 39.4469 35.8882 39.5258 35.8882C39.5916 35.8882 39.6573 35.9013 39.7099 35.9408L41.0776 37.006C41.2091 37.098 41.2223 37.2822 41.1302 37.4137C41.0776 37.4926 40.9987 37.532 40.9067 37.532Z" fill="#E9E9E9"/>
<path d="M8.38493 37.4925C8.30603 37.4925 8.21397 37.4531 8.14822 37.3873C8.02986 37.2558 8.05617 37.0717 8.16137 36.9796L9.48959 35.8487C9.54219 35.7961 9.60795 35.7698 9.6737 35.7698C9.7526 35.7698 9.84466 35.8092 9.91041 35.875C10.0288 36.0065 10.0025 36.1906 9.89726 36.2827L8.56904 37.4136C8.51644 37.4662 8.45069 37.4925 8.38493 37.4925Z" fill="#E9E9E9"/>
<path d="M39.4994 39.0573C39.4205 39.0573 39.3547 39.031 39.289 38.9784L36.5142 36.2168C36.3827 36.0984 36.3827 35.9143 36.5142 35.8091C36.5668 35.7565 36.6457 35.7302 36.7246 35.7302C36.8035 35.7302 36.8692 35.7565 36.935 35.8091L39.7098 38.5708C39.8281 38.6891 39.8281 38.8732 39.7098 38.9784C39.6572 39.031 39.5783 39.0573 39.4994 39.0573Z" fill="#E9E9E9"/>
<path d="M9.75255 38.9785C9.67364 38.9785 9.60789 38.9522 9.54214 38.8996C9.42378 38.7812 9.42378 38.5971 9.54214 38.4919L12.3169 35.7303C12.3695 35.6777 12.4484 35.6514 12.5273 35.6514C12.6062 35.6514 12.672 35.6777 12.7378 35.7303C12.8561 35.8486 12.8561 36.0327 12.7378 36.1379L9.96296 38.8996C9.89721 38.9522 9.8183 38.9785 9.75255 38.9785Z" fill="#E9E9E9"/>
<path d="M42.0901 35.9013C42.0375 35.9013 41.9849 35.8882 41.9455 35.8619L38.6841 33.692C38.5395 33.6 38.5132 33.4158 38.6052 33.2843C38.671 33.1923 38.763 33.1528 38.8682 33.1528C38.9208 33.1528 38.9734 33.166 39.0129 33.1923L42.2743 35.3621C42.4058 35.4542 42.4452 35.6252 42.3532 35.7698C42.2874 35.8487 42.1822 35.9013 42.0901 35.9013Z" fill="#E9E9E9"/>
<path d="M7.16185 35.8356C7.06979 35.8356 6.96459 35.783 6.91199 35.6909C6.81993 35.5594 6.85938 35.3753 6.99089 35.2833L10.2523 33.1134C10.3049 33.0739 10.3575 33.0608 10.4101 33.0608C10.5021 33.0608 10.6073 33.1134 10.6599 33.2054C10.752 33.337 10.7125 33.5211 10.581 33.6131L7.31966 35.783C7.2802 35.8224 7.2276 35.8356 7.16185 35.8356Z" fill="#E9E9E9"/>
<path d="M41.4853 33.3106C41.3407 33.258 41.2749 33.0608 41.3538 32.9161C41.4064 32.8109 41.5116 32.7583 41.6168 32.7583C41.6563 32.7583 41.7089 32.7714 41.7483 32.7978L43.3001 33.5868C43.4448 33.6657 43.5105 33.8367 43.4316 33.9813C43.379 34.0865 43.2738 34.1391 43.1686 34.1391C43.1292 34.1391 43.0766 34.126 43.0371 34.0997L41.4853 33.3106Z" fill="#E9E9E9"/>
<path d="M5.82056 33.784C5.82056 33.6788 5.86001 33.5867 5.95206 33.5341L7.46439 32.6662C7.50384 32.6399 7.55645 32.6267 7.5959 32.6267C7.7011 32.6267 7.80631 32.6793 7.85891 32.7714C7.93782 32.916 7.89836 33.087 7.76686 33.1659L6.25453 34.0338C6.21508 34.0601 6.16247 34.0733 6.12302 34.0733C6.12302 34.0733 6.12302 34.0733 6.10987 34.0733C6.10987 34.0733 6.10987 34.0733 6.09672 34.0733C6.00467 34.0733 5.89946 34.0207 5.84686 33.9286C5.83371 33.876 5.82056 33.8234 5.82056 33.784Z" fill="#E9E9E9"/>
<path d="M44.0103 32.298C43.9708 32.298 43.9445 32.298 43.9051 32.2848L40.2886 30.7725C40.144 30.6936 40.0782 30.5226 40.144 30.378C40.1834 30.2596 40.3018 30.1938 40.4201 30.1938C40.4596 30.1938 40.4859 30.1938 40.5253 30.207L44.1418 31.7062C44.2733 31.7588 44.3259 31.8771 44.3127 32.0218C44.3127 32.0481 44.2996 32.0744 44.2996 32.1007C44.2338 32.2322 44.1286 32.298 44.0103 32.298Z" fill="#E9E9E9"/>
<path d="M4.96582 31.9035C4.96582 31.7851 5.01842 31.6799 5.13678 31.6273L8.75322 30.1281C8.79267 30.115 8.81897 30.115 8.85842 30.115C8.97678 30.115 9.08198 30.1807 9.13459 30.2991C9.18719 30.4438 9.13459 30.6147 8.98993 30.6936L5.37349 32.1928C5.33404 32.2059 5.30774 32.2059 5.26829 32.2059C5.14993 32.2059 5.04472 32.1402 4.99212 32.0218C4.96582 31.9824 4.96582 31.9429 4.96582 31.9035Z" fill="#E9E9E9"/>
<path d="M44.7598 30.3386C44.7335 30.3386 44.7072 30.3386 44.6809 30.3255L42.9976 29.8521C42.8529 29.8126 42.7477 29.668 42.7872 29.497C42.8135 29.3786 42.9318 29.2734 43.0633 29.2734C43.0896 29.2734 43.1159 29.2734 43.1422 29.2866L44.8255 29.76C44.8781 29.7732 44.9176 29.7995 44.9439 29.8258C45.0228 29.8915 45.0491 30.0099 45.0228 30.1151C44.9965 30.2466 44.8781 30.3386 44.7598 30.3386Z" fill="#E9E9E9"/>
<path d="M4.55822 30.286C4.43986 30.286 4.3215 30.2071 4.2689 30.0755C4.2163 29.9309 4.28205 29.7599 4.45301 29.6942L6.09685 29.155C6.12315 29.155 6.14945 29.1418 6.17575 29.1418C6.30726 29.1418 6.42561 29.2207 6.47822 29.3391C6.53082 29.4838 6.46507 29.6547 6.29411 29.7205L4.65027 30.2597C4.62397 30.286 4.59767 30.286 4.55822 30.286Z" fill="#E9E9E9"/>
<path d="M45.2069 28.3791C45.1938 28.3791 45.1806 28.3791 45.1675 28.3791L41.3275 27.6164C41.1828 27.577 41.0776 27.4323 41.1039 27.2613C41.1433 27.1035 41.2617 27.0115 41.4064 27.0115C41.4195 27.0115 41.4327 27.0115 41.4458 27.0115L45.2858 27.7742C45.4305 27.8137 45.5488 27.9583 45.5094 28.1293C45.4699 28.2871 45.3384 28.3791 45.2069 28.3791Z" fill="#E9E9E9"/>
<path d="M3.9137 27.6821C3.94 27.6689 3.97945 27.6558 4.00576 27.6426L7.84576 26.893C7.85891 26.893 7.88521 26.8799 7.89836 26.8799C8.02987 26.8799 8.14822 26.9851 8.17452 27.1297C8.21397 27.3007 8.09562 27.4454 7.95096 27.4848L4.11096 28.2344C4.09781 28.2344 4.07151 28.2476 4.05836 28.2476C3.92685 28.2476 3.8085 28.1423 3.78219 27.9977C3.78219 27.9714 3.76904 27.9582 3.76904 27.9319C3.76904 27.8267 3.82165 27.7347 3.9137 27.6821Z" fill="#E9E9E9"/>
<path d="M45.5226 26.3407L43.7735 26.2092C43.6289 26.1961 43.5105 26.0383 43.5105 25.8936C43.5236 25.7226 43.6552 25.6174 43.813 25.6174L45.562 25.7489C45.7067 25.7621 45.8382 25.8936 45.825 26.0646C45.7987 26.2224 45.6672 26.3407 45.5226 26.3407Z" fill="#E9E9E9"/>
<path d="M3.76894 26.2487C3.62428 26.2487 3.50592 26.1435 3.47962 25.9857C3.46647 25.8147 3.57168 25.6701 3.72949 25.6438L5.45223 25.4333C5.46538 25.4333 5.47853 25.4333 5.47853 25.4333C5.62318 25.4333 5.74154 25.5386 5.76784 25.6964C5.78099 25.8673 5.67579 26.012 5.51798 26.0383L3.79524 26.2487C3.79524 26.2355 3.78209 26.2487 3.76894 26.2487Z" fill="#E9E9E9"/>
<path d="M41.7088 24.2893C41.5641 24.2893 41.4326 24.1577 41.4326 23.9868C41.4326 23.8158 41.5641 23.6843 41.7088 23.6843H45.6277C45.7723 23.6843 45.9038 23.8158 45.9038 23.9868C45.9038 24.1577 45.7723 24.2893 45.6277 24.2893H41.7088Z" fill="#E9E9E9"/>
<path d="M3.67704 24.184C3.53239 24.184 3.40088 24.0525 3.40088 23.8816C3.40088 23.7106 3.53239 23.5791 3.67704 23.5791H7.59595C7.74061 23.5791 7.87211 23.7106 7.87211 23.8816C7.87211 24.0525 7.74061 24.184 7.59595 24.184H3.67704Z" fill="#E9E9E9"/>
<path d="M43.8261 22.435C43.6814 22.435 43.5631 22.3298 43.5368 22.172C43.5236 22.001 43.6288 21.8563 43.7866 21.83L45.5094 21.6196C45.5225 21.6196 45.5357 21.6196 45.5357 21.6196C45.6803 21.6196 45.7987 21.7248 45.825 21.8826C45.8381 22.0536 45.7329 22.1983 45.5751 22.2246L43.8524 22.435C43.8392 22.435 43.8261 22.435 43.8261 22.435Z" fill="#E9E9E9"/>
<path d="M5.49172 22.2641L3.74268 22.1326C3.59803 22.1194 3.46652 21.9879 3.47967 21.8169C3.49282 21.646 3.62433 21.5408 3.78214 21.5408L5.53118 21.6723C5.67583 21.6854 5.79419 21.8432 5.79419 21.9879C5.76789 22.1589 5.63638 22.2641 5.49172 22.2641Z" fill="#E9E9E9"/>
<path d="M41.3932 20.9753C41.2617 20.9753 41.1434 20.8701 41.1171 20.7255C41.0776 20.5545 41.196 20.4099 41.3406 20.3704L45.1806 19.6208C45.1938 19.6208 45.2201 19.6077 45.2332 19.6077C45.3647 19.6077 45.4831 19.7129 45.5094 19.8575C45.5094 19.8838 45.5225 19.897 45.5225 19.9233C45.5357 20.0285 45.4699 20.1337 45.3779 20.1731C45.3516 20.1863 45.3121 20.1994 45.2858 20.2126L41.4458 20.9622C41.4327 20.9753 41.4195 20.9753 41.3932 20.9753Z" fill="#E9E9E9"/>
<path d="M7.91147 20.8569C7.89832 20.8569 7.88517 20.8569 7.87202 20.8569L4.03202 20.0942C3.88736 20.0547 3.76901 19.9101 3.80846 19.7391C3.84791 19.5813 3.96627 19.4893 4.11092 19.4893C4.12407 19.4893 4.13723 19.4893 4.15038 19.4893L7.99038 20.252C8.13503 20.2914 8.24024 20.4361 8.21394 20.6071C8.17448 20.7649 8.04298 20.8569 7.91147 20.8569Z" fill="#E9E9E9"/>
<path d="M44.6545 17.5954C44.6808 17.5823 44.7071 17.5823 44.7334 17.5823C44.7334 17.5823 44.7334 17.5823 44.7465 17.5823C44.8649 17.5823 44.9832 17.6612 45.0358 17.7927C45.0884 17.9373 45.0227 18.1083 44.8517 18.1741L43.2079 18.7132C43.1816 18.7132 43.1553 18.7264 43.129 18.7264C42.9975 18.7264 42.8791 18.6475 42.8265 18.5291C42.7739 18.3845 42.8397 18.2135 43.0106 18.1478L44.6545 17.5954Z" fill="#E9E9E9"/>
<path d="M4.36074 18.0295C4.28183 17.9637 4.25553 17.8454 4.28184 17.7402C4.30814 17.6218 4.42649 17.5166 4.558 17.5166C4.5843 17.5166 4.6106 17.5166 4.6369 17.5298L6.32019 18.0032C6.46485 18.0426 6.57005 18.1873 6.5306 18.3582C6.5043 18.4766 6.38594 18.5818 6.25444 18.5818C6.22814 18.5818 6.20184 18.5818 6.17553 18.5687L4.49225 18.0952C4.42649 18.0952 4.38704 18.0689 4.36074 18.0295Z" fill="#E9E9E9"/>
<path d="M40.4462 17.7665C40.3279 17.7665 40.2227 17.7007 40.1701 17.5824C40.1175 17.4377 40.1701 17.2668 40.3147 17.1879L43.9312 15.6887C43.9706 15.6755 43.9969 15.6755 44.0364 15.6755C44.1547 15.6755 44.2599 15.7413 44.3125 15.8596C44.3257 15.8991 44.3388 15.9386 44.3388 15.978C44.3388 16.0964 44.2862 16.2016 44.1679 16.2542L40.5515 17.7533C40.512 17.7533 40.4857 17.7665 40.4462 17.7665Z" fill="#E9E9E9"/>
<path d="M5.01825 15.7544C5.0577 15.6361 5.17606 15.5703 5.29442 15.5703C5.33387 15.5703 5.36017 15.5703 5.39962 15.5835L9.01606 17.0826C9.16072 17.1615 9.22647 17.3325 9.16072 17.4772C9.12126 17.5955 9.00291 17.6613 8.88455 17.6613C8.8451 17.6613 8.8188 17.6613 8.77935 17.6481L5.16291 16.1489C5.0314 16.0963 4.9788 15.978 4.99195 15.8333C5.0051 15.807 5.0051 15.7807 5.01825 15.7544Z" fill="#E9E9E9"/>
<path d="M43.1816 13.7949C43.1816 13.7949 43.1948 13.7949 43.1816 13.7949C43.2868 13.7949 43.3789 13.8475 43.4315 13.9396C43.4578 13.9922 43.4709 14.0448 43.4709 14.0842C43.4709 14.1894 43.4315 14.2815 43.3394 14.3341L41.8271 15.202C41.7876 15.2283 41.735 15.2415 41.6956 15.2415C41.5904 15.2415 41.4852 15.1889 41.4326 15.0968C41.3537 14.9522 41.3931 14.7812 41.5246 14.7023L43.037 13.8344C43.0896 13.8081 43.129 13.7949 43.1816 13.7949Z" fill="#E9E9E9"/>
<path d="M7.68791 15.1233C7.64845 15.1233 7.59585 15.1101 7.5564 15.0838L6.00462 14.2948C5.85996 14.2159 5.79421 14.0449 5.87311 13.9002C5.92571 13.795 6.03092 13.7424 6.13612 13.7424C6.17558 13.7424 6.22818 13.7556 6.26763 13.7819L7.81941 14.5709C7.96407 14.6235 8.02982 14.8208 7.95092 14.9654C7.89832 15.0575 7.79311 15.1233 7.68791 15.1233Z" fill="#E9E9E9"/>
<path d="M38.8945 14.8207C38.8025 14.8207 38.6973 14.7681 38.6447 14.676C38.5526 14.5445 38.592 14.3604 38.7236 14.2684L41.9849 12.0985C42.0375 12.059 42.0901 12.0459 42.1427 12.0459C42.2348 12.0459 42.34 12.0985 42.3926 12.1906C42.4847 12.3221 42.4452 12.5062 42.3137 12.5982L39.0523 14.7681C38.9997 14.7944 38.9471 14.8207 38.8945 14.8207Z" fill="#E9E9E9"/>
<path d="M10.4365 14.7287C10.3839 14.7287 10.3313 14.7156 10.2918 14.6893L7.04362 12.5194C6.91212 12.4273 6.87267 12.2564 6.96472 12.1117C7.03047 12.0197 7.12253 11.9802 7.22773 11.9802C7.28034 11.9802 7.33294 11.9934 7.37239 12.0197L10.6206 14.1895C10.7653 14.2816 10.7916 14.4657 10.6995 14.5972C10.6469 14.6893 10.5417 14.7287 10.4365 14.7287Z" fill="#E9E9E9"/>
<path d="M39.6178 12.0985C39.5389 12.0985 39.4469 12.059 39.3811 11.9933C39.2628 11.8618 39.2891 11.6777 39.3943 11.5856L40.7225 10.4546C40.7751 10.402 40.8409 10.3757 40.9066 10.3757C40.9855 10.3757 41.0776 10.4152 41.1433 10.4809C41.2617 10.6124 41.2354 10.7966 41.1302 10.8886L39.802 12.0196C39.7493 12.0722 39.6836 12.0985 39.6178 12.0985Z" fill="#E9E9E9"/>
<path d="M9.77897 11.9932C9.71322 11.9932 9.64746 11.9801 9.59486 11.9406L8.22719 10.8754C8.09568 10.7833 8.08253 10.5992 8.17459 10.4677C8.22719 10.3888 8.31924 10.3494 8.39815 10.3494C8.4639 10.3494 8.52966 10.3625 8.58226 10.402L9.94993 11.4672C10.0814 11.5592 10.0946 11.7433 10.0025 11.8748C9.94993 11.9537 9.87103 11.9932 9.77897 11.9932Z" fill="#E9E9E9"/>
<path d="M12.5801 12.1511C12.5012 12.1511 12.4354 12.1248 12.3697 12.0722L9.59487 9.31055C9.47651 9.19219 9.47651 9.00808 9.59487 8.90288C9.64747 8.85027 9.72638 8.82397 9.80528 8.82397C9.88419 8.82397 9.94994 8.85027 10.0157 8.90288L12.7905 11.6645C12.922 11.7829 12.922 11.967 12.7905 12.0722C12.7247 12.1248 12.659 12.1511 12.5801 12.1511Z" fill="#E9E9E9"/>
<path d="M36.9613 9.40257C36.8956 9.40257 36.8298 9.37626 36.7641 9.32366C36.6325 9.23161 36.6194 9.0475 36.7115 8.91599L37.803 7.54832C37.8556 7.46941 37.9345 7.44312 38.0265 7.44312C38.0923 7.44312 38.158 7.46942 38.2238 7.52202C38.3553 7.61407 38.3684 7.79818 38.2764 7.92969L37.1849 9.29736C37.1191 9.36311 37.0402 9.40257 36.9613 9.40257Z" fill="#E9E9E9"/>
<path d="M12.4354 9.32363C12.3565 9.32363 12.2776 9.28418 12.2119 9.23158L11.0678 7.91651C10.9494 7.79815 10.9757 7.61404 11.1072 7.50884C11.173 7.45623 11.2387 7.42993 11.3045 7.42993C11.3834 7.42993 11.4623 7.46938 11.528 7.52199L12.6722 8.83705C12.7642 8.96856 12.7642 9.15267 12.6327 9.24473C12.5669 9.31048 12.5012 9.32363 12.4354 9.32363Z" fill="#E9E9E9"/>
<path d="M34.2129 10.0734C34.1603 10.0734 34.0946 10.0602 34.042 10.0208C33.9105 9.92874 33.871 9.74463 33.9499 9.61313L36.1198 6.36491C36.1724 6.286 36.2644 6.2334 36.3565 6.2334C36.4091 6.2334 36.4748 6.24655 36.5274 6.286C36.659 6.37806 36.6984 6.56217 36.6195 6.69367L34.4496 9.94189C34.397 10.0339 34.305 10.0734 34.2129 10.0734Z" fill="#E9E9E9"/>
<path d="M15.1443 10.0338C15.0522 10.0338 14.9602 9.9944 14.8944 9.90234L12.7246 6.65412C12.6325 6.52261 12.672 6.3385 12.8166 6.24645C12.8692 6.207 12.9218 6.19385 12.9876 6.19385C13.0796 6.19385 13.1717 6.2333 13.2374 6.32535L15.4073 9.57357C15.4994 9.71823 15.4599 9.88919 15.3153 9.98124C15.2627 10.0207 15.21 10.0338 15.1443 10.0338Z" fill="#E9E9E9"/>
<path d="M14.7236 5.16821C14.8156 5.16821 14.9077 5.20766 14.9603 5.29972L15.8282 6.81205C15.9071 6.94356 15.8677 7.11451 15.7099 7.20657C15.6573 7.23287 15.6047 7.24602 15.5521 7.24602C15.46 7.24602 15.368 7.20657 15.3154 7.11451L14.4474 5.60219C14.3685 5.47068 14.408 5.28657 14.5658 5.20767C14.6184 5.18136 14.671 5.16821 14.7236 5.16821Z" fill="#E9E9E9"/>
<path d="M33.8053 7.28541C33.7659 7.28541 33.7133 7.27226 33.6738 7.24596C33.5291 7.16705 33.4634 6.99609 33.5423 6.85143L34.3313 5.29965C34.3839 5.19445 34.4891 5.14185 34.5944 5.14185C34.6338 5.14185 34.6864 5.15499 34.7259 5.1813C34.8705 5.2602 34.9363 5.43116 34.8574 5.57582L34.0683 7.1276C34.0157 7.21965 33.9105 7.28541 33.8053 7.28541Z" fill="#E9E9E9"/>
<path d="M18.0903 8.46899C17.9719 8.46899 17.8667 8.40324 17.8141 8.29804L16.3018 4.6816C16.2492 4.53694 16.3149 4.36598 16.4727 4.30023C16.5122 4.28708 16.5516 4.27393 16.5911 4.27393C16.7094 4.27393 16.8146 4.33968 16.8672 4.44489L18.3796 8.06132C18.4322 8.19283 18.3664 8.36379 18.2086 8.44269C18.1692 8.45584 18.1297 8.46899 18.0903 8.46899Z" fill="#E9E9E9"/>
<path d="M31.2671 8.48218C31.2276 8.48218 31.1882 8.46903 31.1487 8.45588C31.0041 8.40327 30.9252 8.23231 30.9778 8.0745L32.477 4.45807C32.5164 4.35286 32.6216 4.28711 32.74 4.28711C32.7794 4.28711 32.8189 4.30026 32.8715 4.31341C33.0161 4.36601 33.095 4.53697 33.0424 4.69478L31.5433 8.31122C31.4775 8.40327 31.3723 8.48218 31.2671 8.48218Z" fill="#E9E9E9"/>
<path d="M18.3006 3.65581C18.3269 3.62951 18.3664 3.60321 18.4058 3.59006C18.4453 3.57691 18.4716 3.5769 18.511 3.5769C18.6294 3.5769 18.7346 3.64266 18.7872 3.76101L19.3264 5.40485C19.3658 5.54951 19.2869 5.72047 19.1423 5.78622C19.1028 5.79937 19.0765 5.79937 19.0371 5.79937C18.9187 5.79937 18.8135 5.73362 18.7609 5.61526L18.2217 3.97142C18.2086 3.94512 18.2086 3.90567 18.2086 3.87937C18.1954 3.80047 18.2349 3.70841 18.3006 3.65581Z" fill="#E9E9E9"/>
<path d="M30.557 3.64259C30.6096 3.58999 30.6885 3.55054 30.7806 3.55054C30.8069 3.55054 30.82 3.55054 30.8463 3.56369C30.991 3.60314 31.1094 3.7741 31.0568 3.91876L30.5833 5.60204C30.557 5.73355 30.4387 5.81245 30.3072 5.81245C30.2809 5.81245 30.2546 5.81246 30.2283 5.7993C30.0836 5.75985 29.9652 5.58889 30.0179 5.44423L30.4913 3.76095C30.4913 3.70835 30.5176 3.66889 30.557 3.64259Z" fill="#E9E9E9"/>
<path d="M21.2726 7.49575C21.1279 7.49575 21.0095 7.39054 20.9832 7.25903L20.1942 3.41903C20.1547 3.27438 20.2731 3.10342 20.4178 3.07712C20.4441 3.07712 20.4572 3.06396 20.4835 3.06396C20.5361 3.06396 20.5887 3.07711 20.6282 3.10342C20.7071 3.14287 20.7597 3.20862 20.7728 3.28753L21.5619 7.12753C21.6013 7.27218 21.5093 7.42999 21.3383 7.46944C21.312 7.49575 21.2857 7.49575 21.2726 7.49575Z" fill="#E9E9E9"/>
<path d="M28.0188 7.49578C28.0057 7.49578 27.9925 7.49578 27.9794 7.49578C27.8084 7.45633 27.7164 7.31167 27.7295 7.15386L28.4923 3.31386C28.5186 3.18235 28.6369 3.07715 28.7816 3.07715C28.8079 3.07715 28.821 3.07715 28.8473 3.0903C29.0183 3.12975 29.1103 3.27441 29.0972 3.43222L28.3344 7.27222C28.295 7.40372 28.1635 7.49578 28.0188 7.49578Z" fill="#E9E9E9"/>
<path d="M22.7193 5.04969C22.5615 5.04969 22.43 4.94449 22.4168 4.79983L22.1932 3.07709C22.1801 2.93243 22.2853 2.77463 22.4563 2.76147C22.4694 2.76147 22.4826 2.76147 22.4957 2.76147C22.6535 2.76147 22.785 2.86668 22.7982 3.01134L23.0217 4.73408C23.0349 4.87874 22.9297 5.03654 22.7587 5.04969C22.7456 5.04969 22.7324 5.04969 22.7193 5.04969Z" fill="#E9E9E9"/>
<path d="M26.5986 5.04987C26.5854 5.04987 26.5723 5.04987 26.5591 5.04987C26.3882 5.03672 26.283 4.90521 26.283 4.74741L26.4145 2.99837C26.4276 2.85371 26.546 2.73535 26.7038 2.73535C26.7169 2.73535 26.7301 2.73535 26.7301 2.73535C26.901 2.7485 27.0062 2.88001 27.0062 3.03782L26.8747 4.78686C26.8616 4.94467 26.7564 5.04987 26.5986 5.04987Z" fill="#E9E9E9"/>
<path d="M24.6919 7.15385C24.5209 7.15385 24.3894 7.02234 24.3894 6.87769V2.95878C24.3894 2.81412 24.5209 2.68262 24.6919 2.68262C24.8628 2.68262 24.9943 2.81412 24.9943 2.95878V6.87769C24.9943 7.02234 24.8365 7.15385 24.6919 7.15385Z" fill="#E9E9E9"/>
</g>
<defs>
<linearGradient id="paint0_linear_2358_4166" x1="24.6523" y1="47.9341" x2="24.6523" y2="-0.065918" gradientUnits="userSpaceOnUse">
<stop stop-color="#DBDBDA"/>
<stop offset="0.25" stop-color="#DBDBDA"/>
<stop offset="1" stop-color="white"/>
</linearGradient>
<radialGradient id="paint1_radial_2358_4166" cx="0" cy="0" r="1" gradientUnits="userSpaceOnUse" gradientTransform="translate(28.9256 19.9802) scale(28.2413 28.2413)">
<stop stop-color="#69BEFF"/>
<stop offset="1" stop-color="#0072C4"/>
</radialGradient>
<clipPath id="clip0_2358_4166">
<rect width="48" height="48" fill="white" transform="translate(0.718018)"/>
</clipPath>
</defs>
</svg>
