<svg width="174" height="174" viewBox="0 0 174 174" fill="none" xmlns="http://www.w3.org/2000/svg">
<g clip-path="url(#clip0_2358_4305)">
<rect width="174" height="174" fill="#FFCD2C"/>
<path d="M86.892 -31.3416C16.8164 -31.3416 -39.9875 25.4624 -39.9875 95.538C-39.9875 165.613 16.8164 222.417 86.892 222.417C156.967 222.417 213.771 165.613 213.771 95.538C213.771 25.4624 156.957 -31.3416 86.892 -31.3416Z" fill="#FFCD2C"/>
<path d="M111.674 79.5103H104.562C98.9099 82.4391 92.5011 84.1142 85.714 84.1142C78.9269 84.1142 72.5181 82.4499 66.8658 79.5103H59.7653C42.3329 79.5103 28.1643 93.6896 28.1643 111.111V152.082H143.285V111.111C143.285 93.6896 129.106 79.5103 111.684 79.5103H111.674Z" fill="white"/>
<path d="M118.947 43.0461C118.947 24.7274 104.043 9.82397 85.7248 9.82397C67.4062 9.82397 52.5027 24.7274 52.5027 43.0461C52.5027 61.3647 67.4062 76.2682 85.7248 76.2682C104.043 76.2682 118.947 61.3647 118.947 43.0461Z" fill="white"/>
<path d="M231.042 185.823C230.934 185.715 230.826 185.607 230.717 185.499C230.609 185.391 230.501 185.283 230.393 185.175C230.285 185.067 230.177 184.959 230.069 184.851C229.961 184.743 229.853 184.635 229.745 184.527C229.637 184.418 229.529 184.31 229.421 184.202C229.313 184.094 229.204 183.986 229.096 183.878C228.988 183.77 228.88 183.662 228.772 183.554C228.664 183.446 228.556 183.338 228.448 183.23C228.34 183.122 228.232 183.014 228.124 182.905C228.016 182.797 227.908 182.689 227.799 182.581C227.691 182.473 227.583 182.365 227.475 182.257C227.367 182.149 227.259 182.041 227.151 181.933C227.043 181.825 226.935 181.717 226.827 181.609C226.719 181.5 226.611 181.392 226.503 181.284C226.395 181.176 226.286 181.068 226.178 180.96C226.07 180.852 225.962 180.744 225.854 180.636C225.746 180.528 225.638 180.42 225.53 180.312C225.422 180.204 225.314 180.096 225.206 179.987C225.098 179.879 224.99 179.771 224.881 179.663C224.773 179.555 224.665 179.447 224.557 179.339C224.449 179.231 224.341 179.123 224.233 179.015C224.125 178.907 224.017 178.799 223.909 178.691C223.801 178.582 223.693 178.474 223.585 178.366C223.477 178.258 223.368 178.15 223.26 178.042C223.152 177.934 223.044 177.826 222.936 177.718C222.828 177.61 222.72 177.502 222.612 177.394C222.504 177.286 222.396 177.178 222.288 177.069C222.18 176.961 222.072 176.853 221.963 176.745C221.855 176.637 221.747 176.529 221.639 176.421C221.531 176.313 221.423 176.205 221.315 176.097C221.207 175.989 221.099 175.881 220.991 175.773C220.883 175.664 220.775 175.556 220.667 175.448C220.558 175.34 220.45 175.232 220.342 175.124C220.234 175.016 220.126 174.908 220.018 174.8C219.91 174.692 219.802 174.584 219.694 174.476C219.586 174.368 219.478 174.259 219.37 174.151C219.262 174.043 219.154 173.935 219.045 173.827C218.937 173.719 218.829 173.611 218.721 173.503C218.613 173.395 218.505 173.287 218.397 173.179C218.289 173.071 218.181 172.963 218.073 172.855C217.965 172.746 217.857 172.638 217.749 172.53C217.64 172.422 217.532 172.314 217.424 172.206C217.316 172.098 217.208 171.99 217.1 171.882C216.992 171.774 216.884 171.666 216.776 171.558C216.668 171.45 216.56 171.341 216.452 171.233C216.344 171.125 216.236 171.017 216.127 170.909C216.019 170.801 215.911 170.693 215.803 170.585C215.695 170.477 215.587 170.369 215.479 170.261C215.371 170.153 215.263 170.045 215.155 169.937C215.047 169.828 214.939 169.72 214.831 169.612C214.722 169.504 214.614 169.396 214.506 169.288C214.398 169.18 214.29 169.072 214.182 168.964C214.074 168.856 213.966 168.748 213.858 168.64C213.75 168.532 213.642 168.423 213.534 168.315C213.426 168.207 213.318 168.099 213.209 167.991C213.101 167.883 212.993 167.775 212.885 167.667C212.777 167.559 212.669 167.451 212.561 167.343C212.453 167.235 212.345 167.127 212.237 167.018C212.129 166.91 212.021 166.802 211.913 166.694C211.804 166.586 211.696 166.478 211.588 166.37C211.48 166.262 211.372 166.154 211.264 166.046C211.156 165.938 211.048 165.83 210.94 165.722C210.832 165.614 210.724 165.505 210.616 165.397C210.508 165.289 210.399 165.181 210.291 165.073C210.183 164.965 210.075 164.857 209.967 164.749C209.859 164.641 209.751 164.533 209.643 164.425C209.535 164.317 209.427 164.209 209.319 164.1C209.211 163.992 209.103 163.884 208.995 163.776C208.886 163.668 208.778 163.56 208.67 163.452C208.562 163.344 208.454 163.236 208.346 163.128C208.238 163.02 208.13 162.912 208.022 162.804C207.914 162.696 207.806 162.587 207.698 162.479C207.676 162.447 207.644 162.425 207.622 162.393C212.907 156.503 216.127 148.732 216.127 140.216C216.127 130.976 212.334 122.6 206.217 116.58C206.109 116.472 206.001 116.364 205.893 116.256C205.785 116.148 205.677 116.04 205.569 115.932C205.46 115.824 205.352 115.716 205.244 115.607C205.136 115.499 205.028 115.391 204.92 115.283C204.812 115.175 204.704 115.067 204.596 114.959C204.488 114.851 204.38 114.743 204.272 114.635C204.164 114.527 204.056 114.419 203.947 114.311C203.839 114.202 203.731 114.094 203.623 113.986C203.515 113.878 203.407 113.77 203.299 113.662C203.191 113.554 203.083 113.446 202.975 113.338C202.867 113.23 202.759 113.122 202.651 113.014C202.542 112.906 202.434 112.797 202.326 112.689C202.218 112.581 202.11 112.473 202.002 112.365C201.894 112.257 201.786 112.149 201.678 112.041C201.57 111.933 201.462 111.825 201.354 111.717C201.246 111.609 201.137 111.501 201.029 111.393C200.921 111.284 200.813 111.176 200.705 111.068C200.597 110.96 200.489 110.852 200.381 110.744C200.273 110.636 200.165 110.528 200.057 110.42C199.949 110.312 199.841 110.204 199.733 110.096C199.624 109.988 199.516 109.879 199.408 109.771C199.3 109.663 199.192 109.555 199.084 109.447C198.976 109.339 198.868 109.231 198.76 109.123C198.652 109.015 198.544 108.907 198.436 108.799C198.328 108.691 198.219 108.583 198.111 108.475C198.003 108.366 197.895 108.258 197.787 108.15C197.679 108.042 197.571 107.934 197.463 107.826C197.355 107.718 197.247 107.61 197.139 107.502C197.031 107.394 196.923 107.286 196.815 107.178C196.706 107.07 196.598 106.961 196.49 106.853C196.382 106.745 196.274 106.637 196.166 106.529C196.058 106.421 195.95 106.313 195.842 106.205C195.734 106.097 195.626 105.989 195.518 105.881C195.41 105.773 195.301 105.665 195.193 105.557C195.085 105.448 194.977 105.34 194.869 105.232C194.761 105.124 194.653 105.016 194.545 104.908C194.437 104.8 194.329 104.692 194.221 104.584C194.113 104.476 194.005 104.368 193.897 104.26C193.788 104.152 193.68 104.043 193.572 103.935C193.464 103.827 193.356 103.719 193.248 103.611C193.14 103.503 193.032 103.395 192.924 103.287C192.816 103.179 192.708 103.071 192.6 102.963C192.492 102.855 192.383 102.747 192.275 102.638C192.167 102.53 192.059 102.422 191.951 102.314C191.843 102.206 191.735 102.098 191.627 101.99C191.519 101.882 191.411 101.774 191.303 101.666C191.195 101.558 191.087 101.45 190.978 101.342C190.87 101.234 190.762 101.125 190.654 101.017C190.546 100.909 190.438 100.801 190.33 100.693C190.222 100.585 190.114 100.477 190.006 100.369C189.898 100.261 189.79 100.153 189.682 100.045C189.574 99.9366 189.465 99.8285 189.357 99.7205C189.249 99.6124 189.141 99.5043 189.033 99.3963C188.925 99.2882 188.817 99.1801 188.709 99.072C188.601 98.964 188.493 98.8559 188.385 98.7478C188.277 98.6397 188.169 98.5317 188.06 98.4236C187.952 98.3155 187.844 98.2074 187.736 98.0994C187.628 97.9913 187.52 97.8832 187.412 97.7751C187.304 97.6671 187.196 97.559 187.088 97.4509C186.98 97.3428 186.872 97.2348 186.764 97.1267C186.656 97.0186 186.547 96.9105 186.439 96.8025C186.331 96.6944 186.223 96.5863 186.115 96.4782C186.007 96.3702 185.899 96.2621 185.791 96.154C185.683 96.0459 185.575 95.9379 185.467 95.8298C185.359 95.7217 185.251 95.6136 185.142 95.5056C185.034 95.3975 184.926 95.2894 184.818 95.1813C184.71 95.0733 184.602 94.9652 184.494 94.8571C184.386 94.7491 184.278 94.641 184.17 94.5329C184.062 94.4248 183.954 94.3168 183.846 94.2087C183.738 94.1006 183.629 93.9925 183.521 93.8845C183.413 93.7764 183.305 93.6683 183.197 93.5602C183.089 93.4521 182.981 93.3441 182.873 93.236C182.765 93.1279 182.657 93.0199 182.549 92.9118C182.441 92.8037 182.333 92.6956 182.224 92.5876C182.116 92.4795 182.008 92.3714 181.9 92.2633C181.792 92.1553 181.684 92.0472 181.576 91.9391C181.468 91.831 181.36 91.723 181.252 91.6149C181.144 91.5068 181.036 91.3987 180.928 91.2907C180.819 91.1826 180.711 91.0745 180.603 90.9664C180.495 90.8584 180.387 90.7503 180.279 90.6422C180.171 90.5341 180.063 90.4261 179.955 90.318C179.847 90.2099 179.739 90.1019 179.631 89.9938C179.523 89.8857 179.415 89.7776 179.306 89.6695C179.198 89.5615 179.09 89.4534 178.982 89.3453C178.874 89.2372 178.766 89.1292 178.658 89.0211C178.55 88.913 178.442 88.8049 178.334 88.6969C178.226 88.5888 178.118 88.4807 178.01 88.3727C177.901 88.2646 177.793 88.1565 177.685 88.0484C177.577 87.9404 177.469 87.8323 177.361 87.7242C177.253 87.6161 177.145 87.5081 177.037 87.4C176.929 87.2919 176.821 87.1838 176.713 87.0758C176.605 86.9677 176.496 86.8596 176.388 86.7515C176.28 86.6435 176.172 86.5354 176.064 86.4273C175.956 86.3192 175.848 86.2112 175.74 86.1031C175.632 85.995 175.524 85.8869 175.416 85.7789C175.308 85.6708 175.2 85.5627 175.092 85.4546C174.983 85.3466 174.875 85.2385 174.767 85.1304C174.659 85.0223 174.551 84.9143 174.443 84.8062C174.335 84.6981 174.227 84.59 174.119 84.482C174.011 84.3739 173.903 84.2658 173.795 84.1577C173.687 84.0497 173.578 83.9416 173.47 83.8335C173.362 83.7254 173.254 83.6174 173.146 83.5093C173.038 83.4012 172.93 83.2932 172.822 83.1851C172.714 83.077 172.606 82.9689 172.498 82.8608C172.39 82.7528 172.282 82.6447 172.174 82.5366C172.065 82.4285 171.957 82.3205 171.849 82.2124C171.741 82.1043 171.633 81.9963 171.525 81.8882C171.417 81.7801 171.309 81.672 171.201 81.564C171.093 81.4559 170.985 81.3478 170.877 81.2397C170.769 81.1317 170.66 81.0236 170.552 80.9155C170.444 80.8074 170.336 80.6994 170.228 80.5913C170.12 80.4832 170.012 80.3751 169.904 80.2671C169.796 80.159 169.688 80.0509 169.58 79.9428C169.472 79.8348 169.364 79.7267 169.256 79.6186C169.147 79.5105 169.039 79.4025 168.931 79.2944C168.823 79.1863 168.715 79.0782 168.607 78.9702C168.499 78.8621 168.391 78.754 168.283 78.6459C168.175 78.5379 168.067 78.4298 167.959 78.3217C167.851 78.2136 167.742 78.1056 167.634 77.9975C167.526 77.8894 167.418 77.7813 167.31 77.6733C167.202 77.5652 167.094 77.4571 166.986 77.349C166.878 77.241 166.77 77.1329 166.662 77.0248C166.554 76.9168 166.446 76.8087 166.338 76.7006C166.229 76.5925 166.121 76.4845 166.013 76.3764C165.905 76.2683 165.797 76.1602 165.689 76.0522C165.581 75.9441 165.473 75.836 165.365 75.7279C165.257 75.6199 165.149 75.5118 165.041 75.4037C164.933 75.2956 164.824 75.1876 164.716 75.0795C164.608 74.9714 164.5 74.8633 164.392 74.7553C164.284 74.6472 164.176 74.5391 164.068 74.431C163.96 74.323 163.852 74.2149 163.744 74.1068C163.636 73.9987 163.528 73.8907 163.419 73.7826C163.311 73.6745 163.203 73.5664 163.095 73.4584C162.987 73.3503 162.879 73.2422 162.771 73.1341C162.663 73.0261 162.555 72.918 162.447 72.8099C162.339 72.7018 162.231 72.5938 162.123 72.4857C162.015 72.3776 161.906 72.2695 161.798 72.1615C161.69 72.0534 161.582 71.9453 161.474 71.8372C161.366 71.7292 161.258 71.6211 161.15 71.513C161.042 71.405 160.934 71.2969 160.826 71.1888C160.718 71.0807 160.61 70.9726 160.501 70.8646C160.393 70.7565 160.285 70.6484 160.177 70.5404C160.069 70.4323 159.961 70.3242 159.853 70.2161C159.745 70.1081 159.637 70 159.529 69.8919C159.421 69.7838 159.313 69.6758 159.205 69.5677C159.097 69.4596 158.988 69.3515 158.88 69.2435C158.772 69.1354 158.664 69.0273 158.556 68.9192C158.448 68.8112 158.34 68.7031 158.232 68.595C158.124 68.4869 158.016 68.3789 157.908 68.2708C157.8 68.1627 157.692 68.0546 157.583 67.9466C157.475 67.8385 157.367 67.7304 157.259 67.6223C157.151 67.5143 157.043 67.4062 156.935 67.2981C156.827 67.19 156.719 67.082 156.611 66.9739C156.503 66.8658 156.395 66.7577 156.287 66.6497C156.178 66.5416 156.07 66.4335 155.962 66.3254C155.854 66.2174 155.746 66.1093 155.638 66.0012C155.53 65.8931 155.422 65.7851 155.314 65.677C155.206 65.5689 155.098 65.4608 154.99 65.3528C154.882 65.2447 154.774 65.1366 154.665 65.0286C154.557 64.9205 154.449 64.8124 154.341 64.7043C154.233 64.5963 154.125 64.4882 154.017 64.3801C153.909 64.272 153.801 64.164 153.693 64.0559C153.585 63.9478 153.477 63.8397 153.369 63.7317C153.26 63.6236 153.152 63.5155 153.044 63.4074C152.936 63.2994 152.828 63.1913 152.72 63.0832C152.612 62.9751 152.504 62.8671 152.396 62.759C152.288 62.6509 152.18 62.5428 152.072 62.4348C151.964 62.3267 151.856 62.2186 151.747 62.1105C151.639 62.0025 151.531 61.8944 151.423 61.7863C151.315 61.6782 151.207 61.5702 151.099 61.4621C150.991 61.354 150.883 61.2459 150.775 61.1379C150.667 61.0298 150.559 60.9217 150.451 60.8136C150.342 60.7056 150.234 60.5975 150.126 60.4894C150.018 60.3813 149.91 60.2733 149.802 60.1652C149.694 60.0571 149.586 59.949 149.478 59.841C149.37 59.7329 149.262 59.6248 149.154 59.5167C149.046 59.4087 148.937 59.3006 148.829 59.1925C148.721 59.0845 148.613 58.9764 148.505 58.8683C148.397 58.7602 148.289 58.6522 148.181 58.5441C148.073 58.436 147.965 58.3279 147.857 58.2199C147.749 58.1118 147.641 58.0037 147.533 57.8956C147.424 57.7876 147.316 57.6795 147.208 57.5714C147.1 57.4633 146.992 57.3553 146.884 57.2472C146.776 57.1391 146.668 57.031 146.56 56.923C146.452 56.8149 146.344 56.7068 146.236 56.5987C146.128 56.4907 146.019 56.3826 145.911 56.2745C145.803 56.1664 145.695 56.0584 145.587 55.9503C145.479 55.8422 145.371 55.7341 145.263 55.6261C145.155 55.518 145.047 55.4099 144.939 55.3018C144.831 55.1938 144.723 55.0857 144.615 54.9776C144.506 54.8695 144.398 54.7615 144.29 54.6534C144.182 54.5453 144.074 54.4372 143.966 54.3292C143.858 54.2211 143.75 54.113 143.642 54.0049C143.534 53.8969 143.426 53.7888 143.318 53.6807C143.21 53.5727 143.101 53.4646 142.993 53.3565C142.885 53.2484 142.777 53.1403 142.669 53.0323C142.561 52.9242 142.453 52.8161 142.345 52.7081C142.237 52.6 142.129 52.4919 142.021 52.3838C141.913 52.2758 141.805 52.1677 141.697 52.0596C141.588 51.9515 141.48 51.8435 141.372 51.7354C141.264 51.6273 141.156 51.5192 141.048 51.4112C140.94 51.3031 140.832 51.195 140.724 51.0869C140.616 50.9789 140.508 50.8708 140.4 50.7627C140.292 50.6546 140.183 50.5466 140.075 50.4385C139.967 50.3304 139.859 50.2223 139.751 50.1143C139.643 50.0062 139.535 49.8981 139.427 49.79C139.319 49.682 139.211 49.5739 139.103 49.4658C138.995 49.3577 138.887 49.2497 138.778 49.1416C138.67 49.0335 138.562 48.9254 138.454 48.8174C138.346 48.7093 138.238 48.6012 138.13 48.4931C138.022 48.3851 137.914 48.277 137.806 48.1689C137.698 48.0608 137.59 47.9528 137.482 47.8447C137.374 47.7366 137.265 47.6285 137.157 47.5205C137.049 47.4124 136.941 47.3043 136.833 47.1963C136.725 47.0882 136.617 46.9801 136.509 46.872C136.401 46.764 136.293 46.6559 136.185 46.5478C136.077 46.4397 135.969 46.3317 135.86 46.2236C135.752 46.1155 135.644 46.0074 135.536 45.8994C135.428 45.7913 135.32 45.6832 135.212 45.5751C135.104 45.4671 134.996 45.359 134.888 45.2509C134.78 45.1428 134.672 45.0348 134.564 44.9267C134.456 44.8186 134.347 44.7105 134.239 44.6025C134.131 44.4944 134.023 44.3863 133.915 44.2782C133.807 44.1702 133.699 44.0621 133.591 43.954C133.483 43.8459 133.375 43.7379 133.267 43.6298C133.159 43.5217 133.051 43.4136 132.942 43.3056C132.834 43.1975 132.726 43.0894 132.618 42.9813C132.51 42.8733 132.402 42.7652 132.294 42.6571C132.186 42.549 132.078 42.441 131.97 42.3329C131.862 42.2248 131.754 42.1167 131.646 42.0087C131.537 41.9006 131.429 41.7925 131.321 41.6844C131.213 41.5764 131.105 41.4683 130.997 41.3602C130.889 41.2522 130.781 41.1441 130.673 41.036C130.565 40.9279 130.457 40.8199 130.349 40.7118C130.241 40.6037 130.133 40.4956 130.024 40.3876C129.916 40.2795 129.808 40.1714 129.7 40.0633C129.592 39.9553 129.484 39.8472 129.376 39.7391C129.268 39.631 129.16 39.523 129.052 39.4149C128.944 39.3068 128.836 39.1987 128.728 39.0907C128.619 38.9826 128.511 38.8745 128.403 38.7664C128.295 38.6584 128.187 38.5503 128.079 38.4422C127.971 38.3341 127.863 38.2261 127.755 38.118C127.647 38.0099 127.539 37.9018 127.431 37.7938C127.323 37.6857 127.215 37.5776 127.106 37.4695C126.998 37.3615 126.89 37.2534 126.782 37.1453C126.674 37.0372 126.566 36.9292 126.458 36.8211C126.35 36.713 126.242 36.6049 126.134 36.4969C126.026 36.3888 125.918 36.2807 125.81 36.1726C125.701 36.0646 125.593 35.9565 125.485 35.8484C125.377 35.7404 125.269 35.6323 125.161 35.5242C125.053 35.4161 124.945 35.308 124.837 35.2C124.729 35.0919 124.621 34.9838 124.513 34.8758C124.405 34.7677 124.297 34.6596 124.188 34.5515C124.08 34.4435 123.972 34.3354 123.864 34.2273C123.756 34.1192 123.648 34.0112 123.54 33.9031C123.432 33.795 123.324 33.6869 123.216 33.5789C123.108 33.4708 123 33.3627 122.892 33.2546C122.783 33.1466 122.675 33.0385 122.567 32.9304C122.459 32.8223 122.351 32.7143 122.243 32.6062C122.135 32.4981 122.027 32.39 121.919 32.282C121.811 32.1739 121.703 32.0658 121.595 31.9577C121.487 31.8497 121.378 31.7416 121.27 31.6335C121.162 31.5254 121.054 31.4174 120.946 31.3093C120.838 31.2012 120.73 31.0931 120.622 30.9851C120.514 30.877 120.406 30.7689 120.298 30.6608C120.19 30.5528 120.082 30.4447 119.974 30.3366C119.865 30.2285 119.757 30.1205 119.649 30.0124C119.541 29.9043 119.433 29.7962 119.325 29.6882C119.217 29.5801 119.109 29.472 119.001 29.364C118.893 29.2559 118.785 29.1478 118.677 29.0397C118.569 28.9317 118.46 28.8236 118.352 28.7155C118.244 28.6074 118.136 28.4994 118.028 28.3913C117.92 28.2832 117.812 28.1751 117.704 28.0671C117.596 27.959 117.488 27.8509 117.38 27.7428C117.272 27.6348 117.164 27.5267 117.056 27.4186C116.947 27.3105 116.839 27.2025 116.731 27.0944C116.623 26.9863 116.515 26.8782 116.407 26.7702C116.299 26.6621 116.191 26.554 116.083 26.4459C115.975 26.3379 115.867 26.2298 115.759 26.1217C115.651 26.0136 115.542 25.9056 115.434 25.7975C115.326 25.6894 115.218 25.5813 115.11 25.4733C115.002 25.3652 114.894 25.2571 114.786 25.149C114.678 25.041 114.57 24.9329 114.462 24.8248C114.354 24.7167 114.246 24.6087 114.138 24.5006C114.029 24.3925 113.921 24.2844 113.813 24.1764C113.705 24.0683 113.597 23.9602 113.489 23.8521C113.381 23.7441 113.273 23.636 113.165 23.5279C113.057 23.4199 112.949 23.3118 112.841 23.2037C112.733 23.0956 112.624 22.9876 112.516 22.8795C112.408 22.7714 112.3 22.6633 112.192 22.5553C112.084 22.4472 111.976 22.3391 111.868 22.231C111.76 22.123 111.652 22.0149 111.544 21.9068C111.436 21.7987 111.328 21.6907 111.219 21.5826C111.111 21.4745 111.003 21.3664 110.895 21.2584C110.787 21.1503 110.679 21.0422 110.571 20.9341C110.463 20.8261 110.355 20.718 110.247 20.6099C110.139 20.5018 110.031 20.3938 109.923 20.2857C109.815 20.1776 109.706 20.0695 109.598 19.9615C109.49 19.8534 109.382 19.7453 109.274 19.6372C103.244 13.531 94.8786 9.72681 85.6382 9.72681C67.3196 9.72681 52.4161 24.6303 52.4161 42.9489C52.4161 52.1893 56.2095 60.5651 62.3266 66.5956C62.4346 66.7037 62.5427 66.8118 62.6508 66.9199C62.7589 67.0279 62.8669 67.136 62.975 67.2441C63.0831 67.3522 63.1912 67.4602 63.2992 67.5683C63.4073 67.6764 63.5154 67.7844 63.6235 67.8925C63.7315 68.0006 63.8396 68.1087 63.9477 68.2167C64.0558 68.3248 64.1638 68.4329 64.2719 68.541C64.38 68.6491 64.4881 68.7571 64.5961 68.8652C64.7042 68.9733 64.8123 69.0813 64.9204 69.1894C65.0284 69.2975 65.1365 69.4056 65.2446 69.5136C65.3527 69.6217 65.4607 69.7298 65.5688 69.8379C65.6769 69.9459 65.785 70.054 65.893 70.1621C66.0011 70.2702 66.1092 70.3782 66.2172 70.4863C66.3253 70.5944 66.4334 70.7025 66.5415 70.8105C66.6496 70.9186 66.7576 71.0267 66.8657 71.1348C66.9738 71.2428 67.0818 71.3509 67.1899 71.459C67.298 71.5671 67.4061 71.6751 67.5141 71.7832C67.6222 71.8913 67.7303 71.9994 67.8384 72.1074C67.9464 72.2155 68.0545 72.3236 68.1626 72.4317C68.2707 72.5397 68.3787 72.6478 68.4868 72.7559C68.5949 72.864 68.703 72.972 68.811 73.0801C68.9191 73.1882 69.0272 73.2963 69.1353 73.4043C69.2433 73.5124 69.3514 73.6205 69.4595 73.7285C69.5676 73.8366 69.6756 73.9447 69.7837 74.0528C69.8918 74.1609 69.9999 74.2689 70.1079 74.377C70.216 74.4851 70.3241 74.5931 70.4322 74.7012C70.5402 74.8093 70.6483 74.9174 70.7564 75.0254C70.8645 75.1335 70.9725 75.2416 71.0806 75.3497C71.1887 75.4577 71.2968 75.5658 71.4048 75.6739C71.5129 75.782 71.621 75.89 71.729 75.9981C71.8371 76.1062 71.9452 76.2143 72.0533 76.3223C72.1614 76.4304 72.2694 76.5385 72.3775 76.6466C72.4856 76.7546 72.5936 76.8627 72.7017 76.9708C72.8098 77.0789 72.9179 77.1869 73.0259 77.295C73.134 77.4031 73.2421 77.5112 73.3502 77.6192C73.4582 77.7273 73.5663 77.8354 73.6744 77.9435C73.7825 78.0515 73.8905 78.1596 73.9986 78.2677C74.1067 78.3758 74.2148 78.4838 74.3228 78.5919C74.4309 78.7 74.539 78.8081 74.6471 78.9161C74.7551 79.0242 74.8632 79.1323 74.9713 79.2403C75.0794 79.3484 75.1874 79.4565 75.2955 79.5646C75.4036 79.6726 75.5117 79.7807 75.6197 79.8888C75.7278 79.9969 75.8359 80.105 75.944 80.213C76.052 80.3211 76.1601 80.4292 76.2682 80.5373C76.3763 80.6453 76.4843 80.7534 76.5924 80.8615C76.7005 80.9695 76.8086 81.0776 76.9166 81.1857C77.0247 81.2938 77.1328 81.4018 77.2409 81.5099C77.3489 81.618 77.457 81.7261 77.5651 81.8341C77.6732 81.9422 77.7812 82.0503 77.8893 82.1584C77.9974 82.2664 78.1054 82.3745 78.2135 82.4826C78.3216 82.5907 78.4297 82.6987 78.5377 82.8068C78.6458 82.9149 78.7539 83.023 78.862 83.131C78.97 83.2391 79.0781 83.3472 79.1862 83.4553C79.2078 83.4769 79.2294 83.4985 79.2402 83.5201C74.82 82.8176 70.6375 81.4343 66.8009 79.4457H59.7004C42.2679 79.4457 28.0994 93.6251 28.0994 111.047V152.018H28.4236V152.342H28.7478V152.666H29.072V152.99H29.3963V153.315H29.7205V153.639H30.0447V153.963H30.3689V154.287H30.6932V154.612H31.0174V154.936H31.3416V155.26H31.6658V155.584H31.99V155.908H32.3143V156.233H32.6385V156.557H32.9627V156.881H33.2869V157.205H33.6112V157.53H33.9354V157.854H34.2596V158.178H34.5838V158.502H34.9081V158.826H35.2323V159.151H35.5565V159.475H35.8807V159.799H36.205V160.123H36.5292V160.448H36.8534V160.772H37.1776V161.096H37.5018V161.42H37.8261V161.744H38.1503V162.069H38.4745V162.393H38.7987V162.717H39.123V163.041H39.4472V163.366H39.7714V163.69H40.0956V164.014H40.4199V164.338H40.7441V164.662H41.0683V164.987H41.3925V165.311H41.7168V165.635H42.041V165.959H42.3652V166.284H42.6894V166.608H43.0136V166.932H43.3379V167.256H43.6621V167.58H43.9863V167.905H44.3105V168.229H44.6348V168.553H44.959V168.877H45.2832V169.202H45.6074V169.526H45.9317V169.85H46.2559V170.174H46.5801V170.498H46.9043V170.823H47.2286V171.147H47.5528V171.471H47.877V171.795H48.2012V172.12H48.5255V172.444H48.8497V172.768H49.1739V173.092H49.4981V173.417H49.8223V173.741H50.1466V174.065H50.4708V174.389H50.795V174.713H51.1192V175.038H51.4435V175.362H51.7677V175.686H52.0919V176.01H52.4161V176.335H52.7404V176.659H53.0646V176.983H53.3888V177.307H53.713V177.631H54.0373V177.956H54.3615V178.28H54.6857V178.604H55.0099V178.928H55.3341V179.253H55.6584V179.577H55.9826V179.901H56.3068V180.225H56.631V180.549H56.9553V180.874H57.2795V181.198H57.6037V181.522H57.9279V181.846H58.2522V182.171H58.5764V182.495H58.9006V182.819H59.2248V183.143H59.5491V183.467H59.8733V183.792H60.1975V184.116H60.5217V184.44H60.8459V184.764H61.1702V185.089H61.4944V185.413H61.8186V185.737H62.1428V186.061H62.4671V186.385H62.7913V186.71H63.1155V187.034H63.4397V187.358H63.764V187.682H64.0882V188.007H64.4124V188.331H64.7366V188.655H65.0609V188.979H65.3851V189.303H65.7093V189.628H66.0335V189.952H66.3578V190.276H66.682V190.6H67.0062V190.925H67.3304V191.249H67.6546V191.573H67.9789V191.897H68.3031V192.221H68.6273V192.546H68.9515V192.87H69.2758V193.194H69.6V193.518H69.9242V193.843H70.2484V194.167H70.5727V194.491H70.8969V194.815H71.2211V195.139H71.5453V195.464H71.8696V195.788H72.1938V196.112H72.518V196.436H72.8422V196.761H73.1664V197.085H73.4907V197.409H73.8149V197.733H74.1391V198.058H74.4633V198.382H74.7876V198.706H75.1118V199.03H75.436V199.354H75.7602V199.679H76.0845V200.003H76.4087V200.327H76.7329V200.651H77.0571V200.976H77.3814V201.3H77.7056V201.624H78.0298V201.948H78.354V202.272H78.6782V202.597H79.0025V202.921H79.3267V203.245H79.6509V203.569H79.9751V203.894H80.2994V204.218H80.6236V204.542H80.9478V204.866H81.272V205.19H81.5963V205.515H81.9205V205.839H82.2447V206.163H82.5689V206.487H82.8932V206.812H83.2174V207.136H83.5416V207.46H83.8658V207.784H84.19V208.108H84.5143V208.433H84.8385V208.757H85.1627V209.081H85.4869V209.405H85.8112V209.73H86.1354V210.054H86.4596V210.378H86.7838V210.702H87.1081V211.026H87.4323V211.351H87.7565V211.675H88.0807V211.999H88.405V212.323H88.7292V212.648H89.0534V212.972H89.3776V213.296H89.7018V213.62H90.0261V213.944H90.3503V214.269H90.6745V214.593H90.9987V214.917H91.323V215.241H91.6472V215.566H91.9714V215.89H92.2956V216.214H92.6199V216.538H92.9441V216.862H93.2683V217.187H93.5925V217.511H93.9168V217.835H94.241V218.159H94.5652V218.484H94.8894V218.808H95.2136V219.132H95.5379V219.456H95.8621V219.78H96.1863V220.105H96.5105V220.429H96.8348V220.753H97.159V221.077H97.4832V221.402H97.8074V221.726H98.1317V222.05H98.4559V222.374H98.7801V222.699H99.1043V223.023H99.4286V223.347H99.7528V223.671H100.077V223.995H100.401V224.32H100.725V224.644H101.05V224.968H101.374V225.292H101.698V225.617H102.022V225.941H102.347V226.265H102.671V226.589H102.995V226.913H103.319V227.238H103.643V227.562H103.968V227.886H104.292V228.21H104.616V228.535H104.94V228.859H105.265V229.183H105.589V229.507H105.913V229.831H106.237V230.156H106.561V230.48H106.886V230.804H107.21V231.128H107.534V231.453H107.858V231.777H108.183V232.101H108.507V232.425H108.831V232.749H109.155V233.074H109.479V233.398H109.804V233.722H110.128V234.046H110.452V234.371H110.776V234.695H111.101V235.019H111.425V235.343H111.749V235.667H112.073V235.992H112.398V236.316H112.722V236.64H113.046V236.964H113.37V237.289H113.694V237.613H114.019V237.937H114.343V238.261H114.667V238.585H114.991V238.91H115.316V239.234H115.64V239.558H115.964V239.882H116.288V240.207H116.612V240.531H116.937V240.855H117.261V241.179H117.585V241.503H117.909V241.828H118.234V242.152H118.558V242.476H118.882V242.8H119.206V243.125H119.53V243.449H119.855V243.773H120.179V244.097H120.503V244.421H120.827V244.746H121.152V245.07H121.476V245.394H121.8V245.718H122.124V246.043H122.448V246.367H122.773V246.691H123.097V247.015H123.421V247.34H123.745V247.664H124.07V247.988H124.394V248.312H124.718V248.636H125.042V248.961H125.366V249.285H240.487V208.314C240.487 199.517 236.878 191.551 231.053 185.823H231.042Z" fill="#0B1A33" fill-opacity="0.1"/>
<path d="M111.674 79.5103H104.562C98.9099 82.4391 92.5011 84.1142 85.714 84.1142C78.9269 84.1142 72.5181 82.4499 66.8658 79.5103H59.7653C42.3329 79.5103 28.1643 93.6896 28.1643 111.111V152.082H143.285V111.111C143.285 93.6896 129.106 79.5103 111.684 79.5103H111.674Z" fill="#FFE798"/>
<path d="M118.947 43.0461C118.947 24.7274 104.043 9.82397 85.7248 9.82397C67.4062 9.82397 52.5027 24.7274 52.5027 43.0461C52.5027 61.3647 67.4062 76.2682 85.7248 76.2682C104.043 76.2682 118.947 61.3647 118.947 43.0461Z" fill="#FFE798"/>
</g>
<defs>
<clipPath id="clip0_2358_4305">
<rect width="174" height="174" fill="white"/>
</clipPath>
</defs>
</svg>
