<svg width="20" height="20" viewBox="0 0 12 12" fill="none" xmlns="http://www.w3.org/2000/svg">
<path fill-rule="evenodd" clip-rule="evenodd" d="M4.9385 7.60156C3.0165 7.60156 1.375 7.89206 1.375 9.05606C1.375 10.2201 3.0065 10.5211 4.9385 10.5211C6.861 10.5211 8.502 10.2301 8.502 9.06656C8.502 7.90306 6.871 7.60156 4.9385 7.60156Z" stroke="#141C4C" stroke-linecap="round" stroke-linejoin="round"/>
<path fill-rule="evenodd" clip-rule="evenodd" d="M4.93879 5.943C6.20029 5.943 7.22279 4.9205 7.22279 3.659C7.22279 2.3975 6.20029 1.375 4.93879 1.375C3.67779 1.375 2.65529 2.3975 2.65529 3.659C2.65079 4.916 3.66579 5.9385 4.92329 5.943H4.93879Z" stroke="#141C4C" stroke-linecap="round" stroke-linejoin="round"/>
<path d="M9.60156 4.33594V6.34094" stroke="#141C4C" stroke-linecap="round" stroke-linejoin="round"/>
<path d="M10.6251 5.33594H8.58008" stroke="#141C4C" stroke-linecap="round" stroke-linejoin="round"/>
</svg>
