<svg width="14" height="14" viewBox="0 0 14 14" fill="none" xmlns="http://www.w3.org/2000/svg">
    <path
        d="M2.19618 3.70669C2.19618 2.87403 2.87085 2.19936 3.70352 2.19869H4.38952C4.78752 2.19869 5.16885 2.04069 5.45152 1.76069L5.93085 1.28069C6.51818 0.690027 7.47285 0.68736 8.06352 1.27469L8.06418 1.27536L8.07018 1.28069L8.55018 1.76069C8.83285 2.04136 9.21418 2.19869 9.61218 2.19869H10.2975C11.1302 2.19869 11.8055 2.87336 11.8055 3.70669V4.39136C11.8055 4.78936 11.9628 5.17136 12.2435 5.45403L12.7235 5.93403C13.3142 6.52136 13.3175 7.47603 12.7302 8.06669L12.7295 8.06736L12.7235 8.07336L12.2435 8.55336C11.9628 8.83536 11.8055 9.21669 11.8055 9.61469V10.3007C11.8055 11.1334 11.1309 11.808 10.2982 11.808H10.2975H9.61085C9.21285 11.808 8.83085 11.966 8.54885 12.2467L8.06885 12.726C7.48218 13.3167 6.52818 13.32 5.93752 12.734C5.93685 12.7334 5.93618 12.7327 5.93552 12.732L5.92952 12.726L5.45018 12.2467C5.16818 11.966 4.78618 11.8087 4.38818 11.808H3.70352C2.87085 11.808 2.19618 11.1334 2.19618 10.3007V9.61336C2.19618 9.21536 2.03818 8.83403 1.75752 8.55203L1.27818 8.07203C0.687517 7.48536 0.684184 6.53136 1.27085 5.94069C1.27085 5.94003 1.27152 5.93936 1.27218 5.93869L1.27818 5.93269L1.75752 5.45269C2.03818 5.17003 2.19618 4.78869 2.19618 4.39003V3.70669"
        stroke="white" stroke-width="1.5" stroke-linecap="round" stroke-linejoin="round" />
    <path d="M5.28711 8.71573L8.71378 5.28906" stroke="white" stroke-width="1.5"
        stroke-linecap="round" stroke-linejoin="round" />
    <path d="M8.66334 8.66927H8.66934" stroke="white" stroke-width="2" stroke-linecap="round"
        stroke-linejoin="round" />
    <path d="M5.33033 5.33333H5.33633" stroke="white" stroke-width="2" stroke-linecap="round"
        stroke-linejoin="round" />
</svg>
    