<svg width="20" height="20" viewBox="0 0 20 20" fill="none" xmlns="http://www.w3.org/2000/svg">
<path fill-rule="evenodd" clip-rule="evenodd" d="M13.8871 1.67463C15.0859 1.59971 16.268 2.01594 17.1587 2.83176C17.9746 3.72251 18.3908 4.90462 18.3242 6.1117V13.887C18.3991 15.0941 17.9746 16.2762 17.1671 17.1669C16.2763 17.9828 15.0859 18.399 13.8871 18.3241H6.11174C4.90465 18.399 3.72253 17.9828 2.83177 17.1669C2.01594 16.2762 1.59971 15.0941 1.67463 13.887V6.1117C1.59971 4.90462 2.01594 3.72251 2.83177 2.83176C3.72253 2.01594 4.90465 1.59971 6.11174 1.67463H13.8871ZM9.15 14.0368L14.7526 8.41764C15.2604 7.90151 15.2604 7.06904 14.7526 6.56123L13.6704 5.47902C13.1542 4.96289 12.3217 4.96289 11.8056 5.47902L11.2478 6.0451C11.1646 6.12835 11.1646 6.26987 11.2478 6.35311C11.2478 6.35311 12.5715 7.66842 12.5965 7.70172C12.688 7.80162 12.7463 7.93481 12.7463 8.08466C12.7463 8.38435 12.5049 8.63409 12.1969 8.63409C12.0554 8.63409 11.9222 8.57581 11.8306 8.48424L10.4403 7.10234C10.3737 7.03574 10.2572 7.03574 10.1906 7.10234L6.21968 11.0732C5.94496 11.3479 5.78679 11.7142 5.77846 12.1055L5.72852 14.0785C5.72852 14.1867 5.76181 14.2866 5.83674 14.3615C5.91166 14.4364 6.01156 14.478 6.11978 14.478H8.07611C8.4757 14.478 8.85864 14.3199 9.15 14.0368Z" fill="#F9AF2F"/>
</svg>


