<svg width="78" height="18" viewBox="0 0 78 18" fill="none" xmlns="http://www.w3.org/2000/svg">
<path d="M67.7839 2.8526V2.35464H71.2606V2.8526H69.8029V6.99023H69.2416V2.8526H67.7839ZM72.1269 2.35464H72.7969L74.3723 6.20255H74.4266L76.002 2.35464H76.672V6.99023H76.1469V3.46827H76.1016L74.653 6.99023H74.146L72.6973 3.46827H72.6521V6.99023H72.1269V2.35464Z" fill="#141C4C"/>
<path d="M5.79224 7.86704C5.02335 7.74324 4.72977 7.44922 3.42965 7.44922C2.78657 7.44922 1.96176 7.68134 1.38859 8.19201C0.857353 8.65626 0.479898 9.38358 0.479898 10.1264C0.479898 10.7299 0.619696 11.4572 0.941232 11.9215C1.58431 12.8809 2.74463 13.4225 3.34577 13.8713C3.98884 14.3665 4.61793 14.9855 4.61793 15.8521C4.61793 16.6258 4.0168 17.1365 3.16403 17.1365C2.22738 17.1365 1.26277 16.2854 0.983172 14.8772C0.745515 14.7843 0.507857 14.8617 0.28418 14.9236C0.28418 16.0842 0.396018 16.9044 0.549797 17.4769C1.34665 17.4769 1.37461 17.7864 3.31781 17.7864C4.17058 17.7864 4.84161 17.5234 5.42876 16.9508C5.91806 16.4556 6.37939 15.7438 6.37939 14.7843C6.37939 13.9796 6.05786 13.438 5.65244 12.9273C5.10723 12.2619 4.32436 11.7822 3.77914 11.4727C3.21995 11.1632 2.22738 10.3585 2.22738 9.47643C2.22738 8.60984 2.68871 8.08369 3.41567 8.08369C4.60395 8.08369 4.99539 9.27526 5.24703 10.2966C5.44274 10.3585 5.79224 10.3585 5.94602 10.2192C5.94602 9.39906 5.8901 8.76459 5.79224 7.86704Z" fill="#141C4C"/>
<path d="M18.3262 17.7864C19.6822 17.7864 20.9264 17.0746 21.8771 15.6973C21.8072 15.5581 21.5695 15.3724 21.4157 15.3724C20.4232 16.5794 19.2908 16.9818 18.3122 16.9818C16.6905 16.9818 15.4044 14.8772 15.4044 12.4631C15.4044 10.0645 16.5228 8.08369 18.1864 8.08369C20.1156 8.08369 20.7447 9.29073 21.1082 10.6216C21.2759 10.6835 21.5416 10.637 21.7093 10.5442C21.6394 9.7395 21.5276 8.99671 21.4018 8.14559C20.6888 8.06821 20.0597 7.44922 18.3402 7.44922C15.6001 7.44922 13.2934 9.35263 13.2934 12.7571C13.2934 14.2117 13.8526 15.9295 14.985 16.8115C15.8797 17.5234 16.9701 17.7864 18.3262 17.7864Z" fill="#141C4C"/>
<path d="M31.6451 9.5538C31.6451 8.26939 31.8548 8.19201 32.9312 8.14559C33.0151 8.05274 33.0151 7.71229 32.9312 7.61944C32.2462 7.63492 31.3096 7.65039 30.6525 7.65039C30.0094 7.65039 29.3105 7.63492 28.6115 7.61944C28.5276 7.71229 28.5276 8.05274 28.6115 8.14559C29.4503 8.19201 29.6879 8.26939 29.6879 9.5538V13.9796C29.6879 15.4807 30.1073 16.5794 30.9042 17.1365C31.7709 17.771 33.0571 17.7864 33.7281 17.7864C36.594 17.7864 37.5026 15.8211 37.5026 13.0666V9.5538C37.5026 8.26939 37.7543 8.23844 38.5791 8.14559C38.663 8.05274 38.663 7.71229 38.5791 7.61944C38.0339 7.63492 37.4607 7.65039 37.0832 7.65039C36.6639 7.65039 35.9369 7.63492 35.3078 7.61944C35.2239 7.71229 35.2239 8.05274 35.3078 8.14559C36.3563 8.25391 36.594 8.26939 36.594 9.5538V13.3452C36.594 15.0783 36.3843 17.1365 34.0217 17.1365C33.3506 17.1365 32.7775 16.8115 32.3581 16.3628C31.6731 15.6354 31.6451 14.4748 31.6451 13.469V9.5538Z" fill="#141C4C"/>
<path d="M47.9189 8.93481C47.9189 8.48604 47.9888 8.26939 48.8975 8.26939C49.5405 8.26939 50.3234 8.54794 50.3234 10.0645C50.3234 11.3025 49.6943 11.8131 48.7017 11.8131H47.9189V8.93481ZM47.9189 12.4631H48.9114C50.3514 12.4631 50.9805 13.4071 50.9805 14.7379C50.9805 15.6664 50.6869 17.0127 48.8415 17.0127C48.0027 17.0127 47.9189 16.7806 47.9189 16.3318V12.4631ZM46.9543 7.65039C46.3951 7.65039 44.8014 7.61944 44.8014 7.61944C44.6616 7.71229 44.6616 8.05274 44.8014 8.14559C45.5703 8.19201 45.9617 8.25391 45.9617 9.53833V15.7438C45.9617 17.0282 45.5703 17.0901 44.8014 17.1365C44.6616 17.2294 44.6616 17.5698 44.8014 17.6626C44.8014 17.6626 46.3951 17.6317 46.9543 17.6317C47.5135 17.6317 48.4082 17.6626 49.247 17.6626C52.1128 17.6626 53.0355 16.3318 53.0355 14.7534C53.0355 13.3916 52.4204 12.5095 50.9385 12.0762V12.0453C51.6934 11.6739 52.2806 10.8227 52.2806 10.0335C52.2806 8.96576 51.7493 7.61944 48.9394 7.61944C48.2404 7.61944 47.3876 7.65039 46.9543 7.65039Z" fill="#141C4C"/>
<path d="M64.0231 11.9834H62.8908V9.05861C62.8908 8.68721 63.1284 8.30034 63.4639 8.30034H64.6522C65.7007 8.30034 65.9943 8.88838 66.3019 9.95615C66.4696 9.9871 66.7632 9.95615 66.903 9.87878C66.8331 9.24431 66.7632 7.75872 66.7352 7.63492C66.7352 7.60397 66.7213 7.58849 66.6793 7.58849C66.4417 7.63492 66.3298 7.65039 65.9943 7.65039H61.8702C61.8702 7.65039 60.4163 7.63492 59.7174 7.61944C59.6335 7.71229 59.6335 8.05274 59.7174 8.14559C60.6959 8.19201 60.9336 8.26939 60.9336 9.5538V15.7438C60.9336 17.0282 60.6959 17.0901 59.7174 17.1365C59.6335 17.2294 59.6335 17.5698 59.7174 17.6626C60.4024 17.6472 61.8842 17.6317 61.8842 17.6317H65.1695C65.8405 17.6317 67.0987 17.6626 67.0987 17.6626C67.2944 16.8889 67.3643 15.8676 67.4762 15.0783C67.3224 15.001 67.0288 14.9545 66.8471 15.001C66.5675 16.1152 65.9384 16.9818 64.8759 16.9818H63.4639C63.1564 16.9818 62.8908 16.6568 62.8908 16.239V12.6952H64.0231C64.9878 12.6952 65.2534 12.9892 65.2953 13.6856C65.3792 13.7784 65.8126 13.7784 65.8964 13.6856C65.8825 13.144 65.8685 12.8654 65.8685 12.3238C65.8685 11.8131 65.8825 11.4572 65.8964 10.993C65.8126 10.9001 65.3792 10.9001 65.2953 10.993C65.2534 11.8441 64.9598 11.9834 64.0231 11.9834Z" fill="#141C4C"/>
</svg>
