<svg width="54" height="12" viewBox="0 0 54 12" fill="none" xmlns="http://www.w3.org/2000/svg">
<path d="M47.0309 1.11708V0.770126H49.4533V1.11708H48.4377V4H48.0465V1.11708H47.0309ZM50.0569 0.770126H50.5237L51.6214 3.45117H51.6592L52.7569 0.770126H53.2237V4H52.8578V1.54605H52.8263L51.817 4H51.4637L50.4544 1.54605H50.4228V4H50.0569V0.770126Z" fill="white"/>
<path d="M3.83777 4.79307C3.30204 4.70682 3.09749 4.50195 2.19162 4.50195C1.74355 4.50195 1.16886 4.66369 0.769502 5.0195C0.399362 5.34297 0.136367 5.84973 0.136367 6.36728C0.136367 6.78778 0.233773 7.29455 0.457805 7.61801C0.905869 8.28651 1.71433 8.66389 2.13318 8.97657C2.58124 9.3216 3.01956 9.75289 3.01956 10.3567C3.01956 10.8958 2.60072 11.2516 2.00655 11.2516C1.35393 11.2516 0.681837 10.6586 0.487026 9.67741C0.321437 9.61272 0.155848 9.66663 0 9.70976C0 10.5184 0.0779242 11.0899 0.18507 11.4888C0.74028 11.4888 0.759761 11.7045 2.11369 11.7045C2.70787 11.7045 3.17541 11.5212 3.58451 11.1222C3.92543 10.7772 4.24687 10.2812 4.24687 9.61272C4.24687 9.05205 4.02284 8.67467 3.74036 8.31885C3.36048 7.85522 2.81501 7.52097 2.43513 7.30533C2.04551 7.08968 1.35393 6.52901 1.35393 5.91442C1.35393 5.31062 1.67537 4.94402 2.18188 4.94402C3.00982 4.94402 3.28256 5.77425 3.45789 6.48588C3.59426 6.52901 3.83777 6.52901 3.94491 6.43197C3.94491 5.86051 3.90595 5.41844 3.83777 4.79307Z" fill="white"/>
<path d="M12.5709 11.7045C13.5157 11.7045 14.3826 11.2085 15.045 10.2489C14.9963 10.1518 14.8307 10.0224 14.7235 10.0224C14.0319 10.8635 13.243 11.1438 12.5611 11.1438C11.4312 11.1438 10.5351 9.67741 10.5351 7.99539C10.5351 6.32415 11.3143 4.94402 12.4735 4.94402C13.8177 4.94402 14.256 5.78504 14.5092 6.71231C14.6261 6.75543 14.8112 6.72309 14.9281 6.65839C14.8794 6.09772 14.8014 5.58017 14.7138 4.98715C14.217 4.93324 13.7787 4.50195 12.5806 4.50195C10.6715 4.50195 9.06427 5.82817 9.06427 8.20025C9.06427 9.21378 9.45389 10.4106 10.2429 11.0252C10.8663 11.5212 11.626 11.7045 12.5709 11.7045Z" fill="white"/>
<path d="M21.8509 5.96833C21.8509 5.07341 21.997 5.0195 22.747 4.98715C22.8054 4.92246 22.8054 4.68525 22.747 4.62056C22.2697 4.63134 21.6171 4.64212 21.1593 4.64212C20.7112 4.64212 20.2242 4.63134 19.7372 4.62056C19.6787 4.68525 19.6787 4.92246 19.7372 4.98715C20.3216 5.0195 20.4872 5.07341 20.4872 5.96833V9.05205C20.4872 10.0979 20.7794 10.8635 21.3346 11.2516C21.9385 11.6937 22.8347 11.7045 23.3022 11.7045C25.299 11.7045 25.9322 10.3351 25.9322 8.41589V5.96833C25.9322 5.07341 26.1075 5.05185 26.6822 4.98715C26.7406 4.92246 26.7406 4.68525 26.6822 4.62056C26.3023 4.63134 25.9029 4.64212 25.6399 4.64212C25.3477 4.64212 24.8412 4.63134 24.4029 4.62056C24.3444 4.68525 24.3444 4.92246 24.4029 4.98715C25.1334 5.06263 25.299 5.07341 25.299 5.96833V8.60997C25.299 9.81758 25.1529 11.2516 23.5068 11.2516C23.0392 11.2516 22.6399 11.0252 22.3476 10.7125C21.8704 10.2057 21.8509 9.39708 21.8509 8.69623V5.96833Z" fill="white"/>
<path d="M33.1897 5.53705C33.1897 5.22436 33.2384 5.07341 33.8715 5.07341C34.3196 5.07341 34.8651 5.26749 34.8651 6.32415C34.8651 7.18672 34.4268 7.54254 33.7352 7.54254H33.1897V5.53705ZM33.1897 7.99539H33.8813C34.8846 7.99539 35.3229 8.6531 35.3229 9.58037C35.3229 10.2273 35.1183 11.1654 33.8326 11.1654C33.2482 11.1654 33.1897 11.0036 33.1897 10.6909V7.99539ZM32.5176 4.64212C32.128 4.64212 31.0176 4.62056 31.0176 4.62056C30.9202 4.68525 30.9202 4.92246 31.0176 4.98715C31.5533 5.0195 31.826 5.06263 31.826 5.95755V10.2812C31.826 11.1761 31.5533 11.2193 31.0176 11.2516C30.9202 11.3163 30.9202 11.5535 31.0176 11.6182C31.0176 11.6182 32.128 11.5966 32.5176 11.5966C32.9072 11.5966 33.5306 11.6182 34.1151 11.6182C36.1119 11.6182 36.7547 10.6909 36.7547 9.59116C36.7547 8.64232 36.3262 8.02774 35.2937 7.72583V7.70427C35.8197 7.4455 36.2288 6.85247 36.2288 6.30258C36.2288 5.55861 35.8586 4.62056 33.9008 4.62056C33.4137 4.62056 32.8196 4.64212 32.5176 4.64212Z" fill="white"/>
<path d="M44.4104 7.66114H43.6215V5.6233C43.6215 5.36453 43.787 5.09497 44.0208 5.09497H44.8488C45.5793 5.09497 45.7839 5.5047 45.9981 6.24867C46.115 6.27024 46.3196 6.24867 46.417 6.19476C46.3683 5.75269 46.3196 4.7176 46.3001 4.63134C46.3001 4.60978 46.2904 4.59899 46.2611 4.59899C46.0956 4.63134 46.0176 4.64212 45.7839 4.64212H42.9104C42.9104 4.64212 41.8974 4.63134 41.4104 4.62056C41.3519 4.68525 41.3519 4.92246 41.4104 4.98715C42.0922 5.0195 42.2578 5.07341 42.2578 5.96833V10.2812C42.2578 11.1761 42.0922 11.2193 41.4104 11.2516C41.3519 11.3163 41.3519 11.5535 41.4104 11.6182C41.8876 11.6074 42.9201 11.5966 42.9201 11.5966H45.2092C45.6767 11.5966 46.5534 11.6182 46.5534 11.6182C46.6897 11.0791 46.7384 10.3675 46.8164 9.81758C46.7092 9.76367 46.5047 9.73132 46.378 9.76367C46.1832 10.54 45.7449 11.1438 45.0046 11.1438H44.0208C43.8065 11.1438 43.6215 10.9174 43.6215 10.6262V8.15712H44.4104C45.0825 8.15712 45.2676 8.36198 45.2968 8.84718C45.3553 8.91188 45.6572 8.91188 45.7157 8.84718C45.7059 8.46981 45.6962 8.27573 45.6962 7.89835C45.6962 7.54254 45.7059 7.29455 45.7157 6.97108C45.6572 6.90639 45.3553 6.90639 45.2968 6.97108C45.2676 7.5641 45.0631 7.66114 44.4104 7.66114Z" fill="white"/>
</svg>
