<svg width="48" height="48" viewBox="0 0 48 48" fill="none" xmlns="http://www.w3.org/2000/svg">
<circle cx="24" cy="24" r="24" fill="#07283B"/>
<path d="M29.5291 19.77C29.4591 19.76 29.3891 19.76 29.3191 19.77C27.7691 19.72 26.5391 18.45 26.5391 16.89C26.5391 15.3 27.8291 14 29.4291 14C31.0191 14 32.3191 15.29 32.3191 16.89C32.3091 18.45 31.0791 19.72 29.5291 19.77Z" fill="white"/>
<path d="M32.7916 26.7004C31.6716 27.4504 30.1016 27.7304 28.6516 27.5404C29.0316 26.7204 29.2316 25.8104 29.2416 24.8504C29.2416 23.8504 29.0216 22.9004 28.6016 22.0704C30.0816 21.8704 31.6516 22.1504 32.7816 22.9004C34.3616 23.9404 34.3616 25.6504 32.7916 26.7004Z" fill="white"/>
<path d="M18.4402 19.77C18.5102 19.76 18.5802 19.76 18.6502 19.77C20.2002 19.72 21.4302 18.45 21.4302 16.89C21.4302 15.29 20.1402 14 18.5402 14C16.9502 14 15.6602 15.29 15.6602 16.89C15.6602 18.45 16.8902 19.72 18.4402 19.77Z" fill="white"/>
<path d="M18.5511 24.8496C18.5511 25.8196 18.7611 26.7396 19.1411 27.5696C17.7311 27.7196 16.2611 27.4196 15.1811 26.7096C13.6011 25.6596 13.6011 23.9496 15.1811 22.8996C16.2511 22.1796 17.7611 21.8896 19.1811 22.0496C18.7711 22.8896 18.5511 23.8396 18.5511 24.8496Z" fill="white"/>
<path d="M24.1208 27.87C24.0408 27.86 23.9508 27.86 23.8608 27.87C22.0208 27.81 20.5508 26.3 20.5508 24.44C20.5608 22.54 22.0908 21 24.0008 21C25.9008 21 27.4408 22.54 27.4408 24.44C27.4308 26.3 25.9708 27.81 24.1208 27.87Z" fill="white"/>
<path d="M20.8708 29.9396C19.3608 30.9496 19.3608 32.6096 20.8708 33.6096C22.5908 34.7596 25.4108 34.7596 27.1308 33.6096C28.6408 32.5996 28.6408 30.9396 27.1308 29.9396C25.4208 28.7896 22.6008 28.7896 20.8708 29.9396Z" fill="white"/>
</svg>
