<svg width="48" height="48" viewBox="0 0 48 48" fill="none" xmlns="http://www.w3.org/2000/svg">
<circle cx="24" cy="24" r="24" fill="#FF9696"/>
<path d="M24 14C21.38 14 19.25 16.13 19.25 18.75C19.25 21.32 21.26 23.4 23.88 23.49C23.96 23.48 24.04 23.48 24.1 23.49C24.12 23.49 24.13 23.49 24.15 23.49C24.16 23.49 24.16 23.49 24.17 23.49C26.73 23.4 28.74 21.32 28.75 18.75C28.75 16.13 26.62 14 24 14Z" fill="white"/>
<path d="M29.0809 26.1499C26.2909 24.2899 21.7409 24.2899 18.9309 26.1499C17.6609 26.9999 16.9609 28.1499 16.9609 29.3799C16.9609 30.6099 17.6609 31.7499 18.9209 32.5899C20.3209 33.5299 22.1609 33.9999 24.0009 33.9999C25.8409 33.9999 27.6809 33.5299 29.0809 32.5899C30.3409 31.7399 31.0409 30.5999 31.0409 29.3599C31.0309 28.1299 30.3409 26.9899 29.0809 26.1499ZM25.9409 30.2599C26.2309 30.5499 26.2309 31.0299 25.9409 31.3199C25.7909 31.4699 25.6009 31.5399 25.4109 31.5399C25.2209 31.5399 25.0309 31.4699 24.8809 31.3199L24.0009 30.4399L23.1209 31.3199C22.9709 31.4699 22.7809 31.5399 22.5909 31.5399C22.4009 31.5399 22.2109 31.4699 22.0609 31.3199C21.7709 31.0299 21.7709 30.5499 22.0609 30.2599L22.9409 29.3799L22.0609 28.4999C21.7709 28.2099 21.7709 27.7299 22.0609 27.4399C22.3509 27.1499 22.8309 27.1499 23.1209 27.4399L24.0009 28.3199L24.8809 27.4399C25.1709 27.1499 25.6509 27.1499 25.9409 27.4399C26.2309 27.7299 26.2309 28.2099 25.9409 28.4999L25.0609 29.3799L25.9409 30.2599Z" fill="white"/>
</svg>
