<svg width="48" height="48" viewBox="0 0 48 48" fill="none" xmlns="http://www.w3.org/2000/svg">
<circle cx="24" cy="24" r="24" fill="#40C79E"/>
<path d="M24 14C21.38 14 19.25 16.13 19.25 18.75C19.25 21.32 21.26 23.4 23.88 23.49C23.96 23.48 24.04 23.48 24.1 23.49C24.12 23.49 24.13 23.49 24.15 23.49C24.16 23.49 24.16 23.49 24.17 23.49C26.73 23.4 28.74 21.32 28.75 18.75C28.75 16.13 26.62 14 24 14Z" fill="white"/>
<path d="M29.0809 26.1596C26.2909 24.2996 21.7409 24.2996 18.9309 26.1596C17.6609 26.9996 16.9609 28.1496 16.9609 29.3796C16.9609 30.6096 17.6609 31.7496 18.9209 32.5896C20.3209 33.5296 22.1609 33.9996 24.0009 33.9996C25.8409 33.9996 27.6809 33.5296 29.0809 32.5896C30.3409 31.7396 31.0409 30.5996 31.0409 29.3596C31.0309 28.1396 30.3409 26.9896 29.0809 26.1596ZM26.3309 28.5596L23.8109 31.0796C23.6909 31.1996 23.5309 31.2596 23.3709 31.2596C23.2109 31.2596 23.0509 31.1896 22.9309 31.0796L21.6709 29.8196C21.4309 29.5796 21.4309 29.1796 21.6709 28.9396C21.9109 28.6996 22.3109 28.6996 22.5509 28.9396L23.3709 29.7596L25.4509 27.6796C25.6909 27.4396 26.0909 27.4396 26.3309 27.6796C26.5809 27.9196 26.5809 28.3196 26.3309 28.5596Z" fill="white"/>
</svg>
