<svg width="100" height="100" viewBox="0 0 100 100" fill="none" xmlns="http://www.w3.org/2000/svg">
<g clip-path="url(#clip0_58_813)">
<path d="M92.4352 26.7738H84.7659V26.058C84.7659 15.9973 76.5809 7.8125 66.5204 7.8125H54.1669V13.6719H55.5821C62.4118 13.6719 67.9682 19.2283 67.9682 26.058V26.7738H60.2991L76.3673 41.1481L92.4352 26.7738Z" fill="#CDD4D8"/>
<path d="M89.033 37.6797L76.3673 49.0102L63.7015 37.6797H52.7346V99.9996H100V37.6797H89.033ZM88.6402 83.4888H64.0942V77.6295H88.6402V83.4888ZM88.6402 71.7695H64.0942V65.9101H88.6402V71.7695ZM88.6402 60.0499H64.0942V54.1905H88.6402V60.0499Z" fill="#40C79E"/>
<path d="M0 62.32H10.967L23.6327 50.9895L36.2986 62.32H47.2656V0H0L0 62.32ZM11.3598 16.5108H35.9058V22.3702H11.3598V16.5108ZM11.3598 28.2302H35.9058V34.0896H11.3598V28.2302ZM11.3598 39.9498H35.9058V45.8092H11.3598V39.9498Z" fill="#CDD4D8"/>
<path d="M7.5647 73.2258H15.234V73.9416C15.234 84.0023 23.419 92.1871 33.4795 92.1871H45.8331V86.3277H44.4178C37.5881 86.3277 32.0317 80.7713 32.0317 73.9416V73.2258H39.701L23.6329 58.8516L7.5647 73.2258Z" fill="#CDD4D8"/>
</g>
<defs>
<clipPath id="clip0_58_813">
<rect width="100" height="100" fill="white"/>
</clipPath>
</defs>
</svg>
