<svg width="100" height="100" viewBox="0 0 100 100" fill="none" xmlns="http://www.w3.org/2000/svg">
<g clip-path="url(#clip0_58_894)">
<path d="M78.4996 29.2032C75.0231 12.3081 58.5085 1.43038 41.6135 4.90691C27.1466 7.88391 16.7432 20.5882 16.6768 35.3578C16.6768 36.0615 16.7059 36.782 16.7684 37.5441C6.47641 38.6335 -0.983775 47.8599 0.105641 58.1518C1.11541 67.6913 9.16608 74.928 18.7588 74.9186H20.9451C20.8951 74.2274 20.841 73.5403 20.841 72.8364C20.841 57.8873 32.9597 45.7685 47.9089 45.7685C62.8582 45.7685 74.9767 57.8873 74.9767 72.8364C74.9767 73.5401 74.9226 74.2272 74.8726 74.9186H77.0589C89.6942 74.9532 99.9653 64.7381 99.9998 52.1026C100.033 39.9784 90.6021 29.9336 78.4996 29.2032Z" fill="#CDD4D8"/>
<path d="M47.9089 95.7406C60.5581 95.7406 70.8124 85.4863 70.8124 72.8371C70.8124 60.1878 60.5581 49.9336 47.9089 49.9336C35.2596 49.9336 25.0054 60.1878 25.0054 72.8371C25.0054 85.4863 35.2596 95.7406 47.9089 95.7406Z" fill="#40C79E"/>
<path d="M47.9089 87.4118C46.7589 87.4118 45.8267 86.4795 45.8267 85.3296V60.3439C45.8267 59.194 46.7589 58.2617 47.9089 58.2617C49.0588 58.2617 49.9911 59.194 49.9911 60.3439V85.3296C49.9909 86.4795 49.0588 87.4118 47.9089 87.4118Z" fill="#FAFAFA"/>
<path d="M47.9089 87.4127C47.3563 87.4137 46.8259 87.1951 46.4347 86.8047L38.1061 78.4761C37.3072 77.649 37.3302 76.3308 38.1573 75.5318C38.9642 74.7524 40.2434 74.7524 41.0503 75.5318L47.9089 82.3863L54.7634 75.5318C55.5904 74.7329 56.9086 74.7559 57.7076 75.583C58.487 76.39 58.487 77.6691 57.7076 78.4761L49.379 86.8047C48.9886 87.1939 48.46 87.4125 47.9089 87.4127Z" fill="#FAFAFA"/>
</g>
<defs>
<clipPath id="clip0_58_894">
<rect width="100" height="100" fill="white"/>
</clipPath>
</defs>
</svg>
