<svg width="100" height="100" viewBox="0 0 100 100" fill="none" xmlns="http://www.w3.org/2000/svg">
<g clip-path="url(#clip0_58_835)">
<path d="M43.9988 50.6859C58.08 50.6851 63.1465 36.5861 64.4728 25.0047C66.1066 10.7377 59.3599 0 43.9988 0C28.6396 0 21.8894 10.7369 23.5246 25.0047C24.8522 36.5861 29.9172 50.6869 43.9988 50.6859Z" fill="#CDD4D8"/>
<path d="M74.7888 56.5556C75.2419 56.5556 75.692 56.5691 76.1391 56.594C75.469 55.6381 74.6933 54.795 73.7857 54.1172C71.0799 52.0977 67.5757 51.4352 64.4778 50.2178C62.9698 49.6255 61.6195 49.0371 60.3518 48.3672C56.0734 53.0592 50.4941 55.5136 43.9971 55.5142C37.5022 55.5142 31.9234 53.0598 27.6455 48.3672C26.3778 49.0373 25.0272 49.6255 23.5195 50.2178C20.4216 51.4353 16.9175 52.0977 14.2116 54.1172C9.53222 57.6098 8.3229 65.4669 7.37274 70.8263C6.58859 75.2505 6.06179 79.7654 5.90803 84.2592C5.78892 87.7401 7.50754 88.2281 10.4196 89.279C14.0659 90.594 17.8307 91.5703 21.6209 92.3706C28.9407 93.9164 36.4858 95.1041 43.9984 95.1572C47.6386 95.1312 51.2861 94.8376 54.9121 94.3675C52.2273 90.4775 50.6526 85.7654 50.6526 80.6919C50.6528 67.3829 61.4801 56.5556 74.7888 56.5556Z" fill="#CDD4D8"/>
<path d="M74.7887 61.3828C64.125 61.3828 55.4797 70.0281 55.4797 80.6918C55.4797 91.3555 64.1248 100.001 74.7887 100.001C85.4526 100.001 94.0979 91.3555 94.0979 80.6918C94.0977 70.0279 85.4524 61.3828 74.7887 61.3828ZM83.2364 84.0045H78.1016V89.1392C78.1016 90.9689 76.6185 92.4523 74.7889 92.4523C72.9591 92.4523 71.4758 90.9689 71.4758 89.1392V84.0045H66.3412C64.5114 84.0045 63.0281 82.5214 63.0281 80.6915C63.0281 78.8617 64.5113 77.3784 66.3412 77.3784H71.4758V72.2438C71.4758 70.414 72.9591 68.9307 74.7889 68.9307C76.6186 68.9307 78.1016 70.414 78.1016 72.2438V77.3784H83.2364C85.0662 77.3784 86.5495 78.8617 86.5495 80.6915C86.5493 82.5215 85.0663 84.0045 83.2364 84.0045Z" fill="#40C79E"/>
</g>
<defs>
<clipPath id="clip0_58_835">
<rect width="100" height="100" fill="white"/>
</clipPath>
</defs>
</svg>
