<svg width="100" height="100" viewBox="0 0 100 100" fill="none" xmlns="http://www.w3.org/2000/svg">
<path d="M81.1251 21.0311L65 4.9375V21.0311H81.1251Z" fill="#CDD4D8"/>
<path d="M81.6876 62.9998C80.2813 61.375 78.5938 59.9687 76.6875 58.8748C73.6876 57.0936 70.1876 56.0938 66.4688 56.0938C55.2187 56.0938 46.0625 65.25 46.0625 76.4999C46.0625 80.2187 47.0625 83.7187 48.8438 86.7187C50.0626 88.8437 51.6874 90.7499 53.5938 92.3124C57.0938 95.1562 61.5938 96.875 66.4688 96.875C77.6875 96.875 86.8437 87.7188 86.8437 76.4999C86.8437 71.3436 84.9062 66.625 81.6876 62.9998ZM73.2813 79.6249H69.5938V83.3123C69.5938 85.0311 68.1876 86.4373 66.4688 86.4373C64.7188 86.4373 63.3438 85.0311 63.3438 83.3123V79.6249H59.6564C57.9064 79.6249 56.5314 78.2186 56.5314 76.4999C56.5314 74.7499 57.9064 73.3749 59.6564 73.3749H63.3438V69.6874C63.3438 67.9374 64.7188 66.5624 66.4688 66.5624C68.1876 66.5624 69.5938 67.9374 69.5938 69.6874V73.3749H73.2813C75 73.3749 76.4063 74.7499 76.4063 76.4999C76.4063 78.2186 75 79.6249 73.2813 79.6249Z" fill="#40C79E"/>
<path d="M41.375 76.4999C41.375 62.6562 52.6252 51.4063 66.4689 51.4063C70.0938 51.4063 73.5625 52.1875 76.6875 53.5936C78.9689 54.6249 81.0626 55.9687 82.9375 57.5937V27.2812H61.875C60.1563 27.2812 58.75 25.8751 58.75 24.1562V3.125H16.2814C14.5625 3.125 13.1564 4.53128 13.1564 6.25V89.8438C13.1564 91.5625 14.5625 92.9688 16.2814 92.9688H47.5625C45.9376 91.1249 44.5626 88.9999 43.5626 86.7188C42.1563 83.5938 41.375 80.125 41.375 76.4999Z" fill="#CDD4D8"/>
</svg>
