<svg width="24" height="24" viewBox="0 0 24 24" fill="none" xmlns="http://www.w3.org/2000/svg">
    <path d="M9.76094 14.3677C9.18594 13.7937 8.83594 13.0137 8.83594 12.1387C8.83594 10.3857 10.2479 8.97266 11.9999 8.97266C12.8669 8.97266 13.6649 9.32366 14.2299 9.89766" stroke="#6A6A78" stroke-width="1.5" stroke-linecap="round" stroke-linejoin="round" />
    <path d="M15.1054 12.6992C14.8734 13.9892 13.8574 15.0072 12.5684 15.2412" stroke="#6A6A78" stroke-width="1.5" stroke-linecap="round" stroke-linejoin="round" />
    <path d="M6.655 17.473C5.068 16.227 3.724 14.407 2.75 12.138C3.734 9.85896 5.087 8.02896 6.684 6.77296C8.271 5.51696 10.102 4.83496 12 4.83496C13.909 4.83496 15.739 5.52696 17.336 6.79196" stroke="#6A6A78" stroke-width="1.5" stroke-linecap="round" stroke-linejoin="round" />
    <path d="M19.4487 8.99121C20.1367 9.90521 20.7417 10.9602 21.2507 12.1372C19.2837 16.6942 15.8077 19.4392 12.0008 19.4392C11.1378 19.4392 10.2868 19.2992 9.46875 19.0262" stroke="#6A6A78" stroke-width="1.5" stroke-linecap="round" stroke-linejoin="round" />
    <path d="M19.8873 4.25L4.11328 20.024" stroke="#6A6A78" stroke-width="1.5" stroke-linecap="round" stroke-linejoin="round" />
</svg>